<?xml version="1.0" encoding="UTF-8" standalone="no"?>
<!-- Created with Inkscape (http://www.inkscape.org/) -->

<svg
   xmlns:dc="http://purl.org/dc/elements/1.1/"
   xmlns:cc="http://creativecommons.org/ns#"
   xmlns:rdf="http://www.w3.org/1999/02/22-rdf-syntax-ns#"
   xmlns:svg="http://www.w3.org/2000/svg"
   xmlns="http://www.w3.org/2000/svg"
   xmlns:sodipodi="http://sodipodi.sourceforge.net/DTD/sodipodi-0.dtd"
   xmlns:inkscape="http://www.inkscape.org/namespaces/inkscape"
   id="svg3390"
   version="1.1"
   inkscape:version="0.91 r13725"
   width="165.177"
   height="165.177"
   viewBox="0 0 165.177 165.177"
   sodipodi:docname="logo.svg"
   inkscape:export-xdpi="460.9567"
   inkscape:export-ydpi="460.9567">
  <metadata
     id="metadata3396">
    <rdf:RDF>
      <cc:Work
         rdf:about="">
        <dc:format>image/svg+xml</dc:format>
        <dc:type
           rdf:resource="http://purl.org/dc/dcmitype/StillImage" />
        <dc:title></dc:title>
      </cc:Work>
    </rdf:RDF>
  </metadata>
  <defs
     id="defs3394" />
  <sodipodi:namedview
     pagecolor="#ffffff"
     bordercolor="#666666"
     borderopacity="1"
     objecttolerance="10"
     gridtolerance="10"
     guidetolerance="10"
     inkscape:pageopacity="0"
     inkscape:pageshadow="2"
     inkscape:window-width="1863"
     inkscape:window-height="1056"
     id="namedview3392"
     showgrid="false"
     inkscape:zoom="3.5316909"
     inkscape:cx="17.003149"
     inkscape:cy="71.077245"
     inkscape:window-x="57"
     inkscape:window-y="24"
     inkscape:window-maximized="1"
     inkscape:current-layer="svg3390" />
  <a
     id="a4222"
     style="stroke-width:1;stroke-miterlimit:4;stroke-dasharray:none"
     transform="matrix(1.0645562,0,0,1.0645562,-117.14243,-15.411348)"
     inkscape:export-xdpi="460"
     inkscape:export-ydpi="460">
    <path
       style="color:#000000;font-style:normal;font-variant:normal;font-weight:normal;font-stretch:normal;font-size:medium;line-height:normal;font-family:sans-serif;text-indent:0;text-align:start;text-decoration:none;text-decoration-line:none;text-decoration-style:solid;text-decoration-color:#000000;letter-spacing:normal;word-spacing:normal;text-transform:none;direction:ltr;block-progression:tb;writing-mode:lr-tb;baseline-shift:baseline;text-anchor:start;white-space:normal;clip-rule:nonzero;display:inline;overflow:visible;visibility:visible;opacity:1;isolation:auto;mix-blend-mode:normal;color-interpolation:sRGB;color-interpolation-filters:linearRGB;solid-color:#000000;solid-opacity:1;fill:#000000;fill-opacity:1;fill-rule:evenodd;stroke:none;stroke-width:4;stroke-linecap:butt;stroke-linejoin:round;stroke-miterlimit:4;stroke-dasharray:none;stroke-dashoffset:0;stroke-opacity:1;color-rendering:auto;image-rendering:auto;shape-rendering:auto;text-rendering:auto;enable-background:accumulate"
       d="m 186.79095,14.487096 c -0.76532,-0.06507 -1.53353,0.208855 -2.07319,0.590769 -0.53966,0.381914 -0.91939,0.845485 -1.25492,1.355832 -0.67104,1.020694 -1.18075,2.286376 -1.69709,3.917052 -1.03267,3.261353 -2.01,7.972412 -3.0419,14.281186 -2.06381,12.617548 -4.30157,31.569048 -7.07088,57.056859 -0.58051,5.34278 -0.64764,5.973738 -0.64764,5.973738 l 3.97392,0.432979 c 0,0 0.069,-0.63078 0.64948,-5.973729 2.7673,-25.469344 5.00651,-44.40254 7.04152,-56.844038 1.01751,-6.22075 1.99393,-10.833063 2.90798,-13.719773 0.37989,-1.199745 0.72445,-1.892338 1.02008,-2.432792 0.3714,0.627048 0.82707,1.571122 1.31914,2.974024 1.07063,3.052407 2.27338,7.777822 3.59782,14.050016 2.2936,10.861927 5.00984,26.681597 8.2836,46.767949 l 3.163,-5.461857 c -2.92916,-17.838242 -5.3935,-32.009048 -7.53139,-42.133535 -1.34125,-6.351855 -2.55669,-11.170899 -3.74092,-14.547215 -0.59212,-1.688159 -1.16145,-3.012074 -1.83468,-4.065661 -0.67323,-1.053588 -1.5333,-2.091655 -3.06393,-2.221804 z m 16.17092,62.968215 c 0.74454,4.53423 1.49746,9.142892 2.30803,14.172941 0.002,0.0098 0.004,0.01588 0.005,0.02568 l 0,0.0037 c 0.93869,5.316554 1.9212,9.252038 2.87495,11.672258 0.47789,1.21266 0.96215,2.03609 1.28979,2.41995 0.1354,0.15864 0.18339,0.19697 0.21833,0.2275 0.0838,-0.0495 0.23863,-0.15781 0.46234,-0.38895 0.44896,-0.46386 1.06443,-1.33661 1.72643,-2.5759 1.32267,-2.47613 2.86111,-6.394237 4.55002,-11.615389 1.37493,-5.16524 2.68198,-9.055137 4.04181,-11.795184 0.68441,-1.379063 1.37322,-2.481045 2.21447,-3.340961 0.84124,-0.859916 1.98155,-1.541232 3.28959,-1.500772 1.30804,0.04046 2.38975,0.780173 3.18501,1.675067 0.79525,0.894893 1.43324,2.017703 2.05485,3.408844 1.24324,2.782283 2.38355,6.669305 3.53727,11.763995 a 2.0002,2.0002 0 0 1 0.033,0.181635 c 2.15441,16.336835 4.13384,29.961235 5.97924,40.948325 l 15.40768,0.0183 c 0.51527,-3.8545 1.03551,-8.05276 1.56315,-12.55659 L 241.50492,92.064904 218.06866,51.360591 202.96187,77.455311 Z m 54.74148,42.744479 3.33729,5.79578 c 1.19025,-9.67038 2.40833,-20.95337 3.67855,-33.917825 a 2.0002,2.0002 0 0 0 0.011,-0.146775 c 0.023,-0.952434 0.0229,-1.24593 0.0257,-1.550305 0.004,-0.03313 0.0145,-0.08594 0.0183,-0.121089 0.0372,-0.342486 0.0825,-0.936382 0.16695,-2.27134 l -3.99227,-0.251352 c -0.0646,1.021299 -0.0946,1.332447 -0.11925,1.621861 -0.0178,0.06737 -0.0339,0.122611 -0.0385,0.14861 -0.009,0.05208 -0.0117,0.08368 -0.0147,0.108246 -0.006,0.04912 -0.009,0.07231 -0.011,0.09357 -0.0137,0.17011 -0.01,0.202878 -0.011,0.302723 -5.9e-4,0.04992 1e-5,0.09905 0.002,0.166956 7e-5,0.0027 0.004,0.01998 0.004,0.02202 -0.001,0.201336 -0.006,0.599868 -0.0294,1.564984 -1.04032,10.613786 -2.04495,20.049496 -3.02723,28.433936 z m 3.33729,5.79578 c -0.28968,2.3536 -0.57741,4.60774 -0.86413,6.76631 l 4.76284,0.006 -3.89871,-6.77182 z m -0.86413,6.76631 -4.03631,-0.005 c -0.78259,5.85417 -1.55425,11.0086 -2.3172,15.35264 -1.10155,6.27185 -2.19931,10.97659 -3.24189,13.98214 -0.52129,1.50276 -1.04258,2.57922 -1.43106,3.14281 -0.0974,0.14132 -0.10907,0.1808 -0.10824,0.20181 -0.0298,-0.0304 -0.0402,-0.0346 -0.11008,-0.12476 -0.3909,-0.50451 -0.94734,-1.52447 -1.51912,-2.97769 -1.14356,-2.90644 -2.40813,-7.5351 -3.73175,-13.76747 -0.94347,-4.44242 -1.92644,-9.74366 -2.94834,-15.82783 l -4.06016,-0.006 c 1.07075,6.41698 2.09973,11.97763 3.09512,16.66443 1.34662,6.34065 2.62196,11.09491 3.92255,14.40045 0.65029,1.65276 1.29165,2.94661 2.08053,3.96476 0.78889,1.01812 1.93441,1.94411 3.42169,1.87137 1.48728,-0.0727 2.51581,-1.06159 3.25106,-2.12823 0.73525,-1.06665 1.32859,-2.40537 1.91725,-4.10236 1.17732,-3.39396 2.2813,-8.22418 3.4015,-14.60225 0.79938,-4.55138 1.60191,-9.92157 2.41445,-16.03882 z m -23.50415,-0.0293 c -1.82148,-10.91617 -3.76361,-24.33303 -5.87099,-40.306189 -1.11787,-4.92377 -2.23494,-8.630235 -3.27124,-10.949401 -0.52082,-1.165551 -1.03013,-1.975453 -1.39253,-2.383256 -0.16772,-0.188734 -0.26214,-0.260616 -0.3174,-0.299053 -0.0517,0.03298 -0.13882,0.09103 -0.30822,0.264195 -0.37352,0.381812 -0.91751,1.167782 -1.48977,2.320876 -1.14452,2.306188 -2.43559,6.052236 -3.78495,11.134704 a 2.0002,2.0002 0 0 1 -0.0294,0.100906 c -1.72792,5.343475 -3.29938,9.407758 -4.83439,12.281378 -0.7675,1.43682 -1.51819,2.58117 -2.38142,3.47306 -0.86323,0.89189 -1.94475,1.61781 -3.28409,1.64571 -1.33933,0.0279 -2.51641,-0.73606 -3.3116,-1.66772 -0.79521,-0.93169 -1.39387,-2.09631 -1.96679,-3.55012 -1.14583,-2.90765 -2.13525,-7.009702 -3.09878,-12.474026 a 2.0002,2.0002 0 0 1 -0.004,-0.02935 c -0.53645,-3.329083 -1.0212,-6.265795 -1.52829,-9.377071 l -5.26188,9.090867 -23.5335,40.64743 46.96793,0.055 18.70094,0.022 z"
       id="path4220"
       inkscape:connector-curvature="0" />
  </a>
  <text
     xml:space="preserve"
     style="font-style:normal;font-weight:normal;font-size:118.08361816px;line-height:125%;font-family:sans-serif;letter-spacing:0px;word-spacing:0px;fill:#000000;fill-opacity:1;stroke:none;stroke-width:1px;stroke-linecap:butt;stroke-linejoin:miter;stroke-opacity:1"
     x="-9.9829006"
     y="123.90897"
     id="text4186"
     sodipodi:linespacing="125%"><tspan
       sodipodi:role="line"
       id="tspan4188"
       x="-9.9829006"
       y="123.90897"
       style="font-style:normal;font-variant:normal;font-weight:bold;font-stretch:normal;font-family:Gridli;-inkscape-font-specification:'Gridli Bold'">F</tspan></text>
</svg>
