M48
;DRILL file {KiCad 5.0.2-bee76a0~70~ubuntu16.04.1} date dom 22 sep 2019 20:07:05 CEST
;FORMAT={-:-/ absolute / inch / decimal}
FMAT,2
INCH,TZ
T1C0.0130
T2C0.0150
T3C0.0200
T4C0.0236
T5C0.0295
T6C0.0315
T7C0.0340
T8C0.0343
T9C0.0354
T10C0.0394
T11C0.0433
T12C0.0512
T13C0.0472
%
G90
G05
T1
X6.265Y-2.805
T2
X4.9Y-3.88
X5.01Y-3.77
X5.1475Y-3.8125
X5.32Y-3.39
X5.3625Y-3.4475
X5.7025Y-4.3475
X5.7275Y-3.83
X5.74Y-3.9875
X5.82Y-3.985
X5.85Y-4.2525
X5.9025Y-4.09
X5.94Y-3.7
X5.995Y-2.665
X6.02Y-4.2525
X6.1075Y-3.7925
X6.1575Y-2.9925
X6.4725Y-2.665
X6.5025Y-4.275
X6.5125Y-2.625
X6.6525Y-2.625
X7.045Y-3.21
X7.17Y-3.2675
X7.65Y-2.8275
X7.78Y-3.165
X7.8775Y-2.935
X8.3925Y-3.3175
X8.585Y-2.9725
X8.94Y-2.9575
T3
X4.625Y-4.075
X4.625Y-4.15
X4.625Y-4.225
X4.625Y-4.3
X4.625Y-4.375
X4.625Y-4.45
X4.7Y-4.075
X4.7Y-4.15
X4.7Y-4.225
X4.7Y-4.3
X4.7Y-4.375
X4.7Y-4.45
X4.775Y-4.075
X4.775Y-4.15
X4.775Y-4.225
X4.775Y-4.3
X4.775Y-4.375
X4.775Y-4.45
X4.85Y-4.15
X4.85Y-4.225
X4.85Y-4.3
X4.85Y-4.375
X4.85Y-4.45
X4.945Y-4.1
X5.095Y-4.06
X6.18Y-2.72
X6.25Y-3.49
X6.336Y-3.374
X6.475Y-3.4575
X6.48Y-4.3275
X6.68Y-4.3275
X6.6925Y-3.7275
X6.948Y-4.392
X7.15Y-2.735
X7.21Y-4.13
X7.37Y-2.64
X7.5Y-3.8743
X7.8125Y-3.2225
X7.8728Y-3.5
X8.4475Y-3.204
X8.7Y-3.354
X8.7Y-3.676
T4
X6.7781Y-2.8666
X6.8766Y-2.8666
X6.975Y-2.6697
X7.0734Y-2.8666
X7.1719Y-2.8666
T5
X6.585Y-3.54
X6.585Y-3.59
X6.585Y-3.64
X5.5875Y-3.3175
X5.5875Y-3.3675
X5.5875Y-3.4175
X8.8Y-3.9
X8.85Y-3.9
X8.9Y-3.9
X8.8Y-3.2
X8.85Y-3.2
X8.9Y-3.2
T6
X6.59Y-2.745
X6.59Y-3.045
X5.09Y-4.29
X5.39Y-4.29
X4.61Y-3.45
X4.91Y-3.45
X5.52Y-3.89
X5.82Y-3.89
X5.09Y-4.17
X5.39Y-4.17
X5.02Y-3.265
X5.02Y-3.565
X7.8Y-3.02
X7.8Y-3.32
X7.205Y-3.1925
X7.205Y-3.4925
X4.61Y-3.32
X4.91Y-3.32
X5.52Y-3.77
X5.82Y-3.77
X7.3525Y-3.475
X7.6525Y-3.475
X8.13Y-3.575
X8.13Y-3.675
X8.13Y-3.775
X8.13Y-3.875
X8.43Y-3.575
X8.43Y-3.675
X8.43Y-3.775
X8.43Y-3.875
X7.94Y-3.02
X7.94Y-3.32
X7.3525Y-3.35
X7.6525Y-3.35
X6.59Y-3.135
X6.59Y-3.435
X5.145Y-3.265
X5.145Y-3.565
X6.36Y-4.13
X6.66Y-4.13
T7
X4.65Y-3.65
X4.65Y-3.95
X4.75Y-3.65
X4.75Y-3.95
X4.85Y-3.65
X4.85Y-3.95
X4.95Y-3.65
X4.95Y-3.95
X7.35Y-2.94
X7.35Y-3.24
X7.45Y-2.94
X7.45Y-3.24
X7.55Y-2.94
X7.55Y-3.24
X7.65Y-2.94
X7.65Y-3.24
X5.94Y-3.94
X5.94Y-4.04
X5.94Y-4.14
X5.94Y-4.24
X6.24Y-3.94
X6.24Y-4.04
X6.24Y-4.14
X6.24Y-4.24
X5.3Y-2.79
X5.3Y-2.89
X5.3Y-2.99
X5.3Y-3.09
X5.6Y-2.79
X5.6Y-2.89
X5.6Y-2.99
X5.6Y-3.09
T8
X8.8287Y-3.45
X8.8287Y-3.55
T9
X8.5125Y-3.13
X8.6125Y-3.13
T10
X5.65Y-4.45
X5.75Y-4.45
X5.85Y-4.45
X5.95Y-4.45
X6.05Y-4.45
X6.15Y-4.45
X6.25Y-4.45
X6.35Y-4.45
X6.45Y-4.45
X6.55Y-4.45
X6.65Y-4.45
X8.6Y-4.25
X8.8992Y-4.25
X8.6Y-2.75
X8.8992Y-2.75
X5.65Y-2.55
X5.75Y-2.55
X5.85Y-2.55
X5.95Y-2.55
X6.05Y-2.55
X6.15Y-2.55
X6.25Y-2.55
X6.35Y-2.55
X6.45Y-2.55
X6.55Y-2.55
X6.65Y-2.55
T11
X8.1Y-3.4
X8.5Y-3.4
X5.29Y-3.225
X5.29Y-3.625
X5.03Y-2.705
X5.03Y-3.105
X6.3325Y-3.225
X6.3325Y-3.625
X6.1675Y-3.225
X6.1675Y-3.625
X5.44Y-3.225
X5.44Y-3.625
X5.165Y-2.705
X5.165Y-3.105
T12
X8.05Y-2.6281
X8.05Y-2.825
X8.4437Y-2.7266
T13
X6.7781Y-2.5713
X6.7781Y-2.6697
X6.975Y-2.8666
X7.1719Y-2.5713
X7.1719Y-2.6697
T0
M30
