G04 #@! TF.GenerationSoftware,KiCad,Pcbnew,5.0.2-bee76a0~70~ubuntu16.04.1*
G04 #@! TF.CreationDate,2019-09-22T20:04:43+02:00*
G04 #@! TF.ProjectId,fiscal,66697363-616c-42e6-9b69-6361645f7063,v01*
G04 #@! TF.SameCoordinates,Original*
G04 #@! TF.FileFunction,Legend,Bot*
G04 #@! TF.FilePolarity,Positive*
%FSLAX46Y46*%
G04 Gerber Fmt 4.6, Leading zero omitted, Abs format (unit mm)*
G04 Created by KiCad (PCBNEW 5.0.2-bee76a0~70~ubuntu16.04.1) date dom 22 sep 2019 20:04:43 CEST*
%MOMM*%
%LPD*%
G01*
G04 APERTURE LIST*
%ADD10C,0.300000*%
%ADD11C,0.254000*%
%ADD12C,0.200000*%
%ADD13C,0.120000*%
%ADD14C,0.010000*%
%ADD15C,0.150000*%
%ADD16C,0.500000*%
G04 APERTURE END LIST*
D10*
X163309642Y-76262571D02*
X163023928Y-76262571D01*
X162881071Y-76334000D01*
X162738214Y-76476857D01*
X162666785Y-76762571D01*
X162666785Y-77262571D01*
X162738214Y-77548285D01*
X162881071Y-77691142D01*
X163023928Y-77762571D01*
X163309642Y-77762571D01*
X163452500Y-77691142D01*
X163595357Y-77548285D01*
X163666785Y-77262571D01*
X163666785Y-76762571D01*
X163595357Y-76476857D01*
X163452500Y-76334000D01*
X163309642Y-76262571D01*
X162023928Y-77762571D02*
X162023928Y-76262571D01*
X161381071Y-77762571D02*
X161381071Y-76976857D01*
X161452500Y-76834000D01*
X161595357Y-76762571D01*
X161809642Y-76762571D01*
X161952500Y-76834000D01*
X162023928Y-76905428D01*
X160595357Y-77691142D02*
X160595357Y-77762571D01*
X160666785Y-77905428D01*
X160738214Y-77976857D01*
X158809642Y-77762571D02*
X158809642Y-76262571D01*
X158809642Y-76834000D02*
X158666785Y-76762571D01*
X158381071Y-76762571D01*
X158238214Y-76834000D01*
X158166785Y-76905428D01*
X158095357Y-77048285D01*
X158095357Y-77476857D01*
X158166785Y-77619714D01*
X158238214Y-77691142D01*
X158381071Y-77762571D01*
X158666785Y-77762571D01*
X158809642Y-77691142D01*
X157595357Y-76762571D02*
X157238214Y-77762571D01*
X156881071Y-76762571D02*
X157238214Y-77762571D01*
X157381071Y-78119714D01*
X157452500Y-78191142D01*
X157595357Y-78262571D01*
X155381071Y-76762571D02*
X154809642Y-76762571D01*
X155166785Y-76262571D02*
X155166785Y-77548285D01*
X155095357Y-77691142D01*
X154952500Y-77762571D01*
X154809642Y-77762571D01*
X154309642Y-77762571D02*
X154309642Y-76262571D01*
X153666785Y-77762571D02*
X153666785Y-76976857D01*
X153738214Y-76834000D01*
X153881071Y-76762571D01*
X154095357Y-76762571D01*
X154238214Y-76834000D01*
X154309642Y-76905428D01*
X152381071Y-77691142D02*
X152523928Y-77762571D01*
X152809642Y-77762571D01*
X152952500Y-77691142D01*
X153023928Y-77548285D01*
X153023928Y-76976857D01*
X152952500Y-76834000D01*
X152809642Y-76762571D01*
X152523928Y-76762571D01*
X152381071Y-76834000D01*
X152309642Y-76976857D01*
X152309642Y-77119714D01*
X153023928Y-77262571D01*
X150666785Y-76762571D02*
X150381071Y-77762571D01*
X150095357Y-77048285D01*
X149809642Y-77762571D01*
X149523928Y-76762571D01*
X148309642Y-77762571D02*
X148309642Y-76976857D01*
X148381071Y-76834000D01*
X148523928Y-76762571D01*
X148809642Y-76762571D01*
X148952500Y-76834000D01*
X148309642Y-77691142D02*
X148452500Y-77762571D01*
X148809642Y-77762571D01*
X148952500Y-77691142D01*
X149023928Y-77548285D01*
X149023928Y-77405428D01*
X148952500Y-77262571D01*
X148809642Y-77191142D01*
X148452500Y-77191142D01*
X148309642Y-77119714D01*
X147738214Y-76762571D02*
X147381071Y-77762571D01*
X147023928Y-76762571D02*
X147381071Y-77762571D01*
X147523928Y-78119714D01*
X147595357Y-78191142D01*
X147738214Y-78262571D01*
X146381071Y-77691142D02*
X146381071Y-77762571D01*
X146452500Y-77905428D01*
X146523928Y-77976857D01*
X163738214Y-79312571D02*
X163452500Y-80312571D01*
X163166785Y-79598285D01*
X162881071Y-80312571D01*
X162595357Y-79312571D01*
X162023928Y-80312571D02*
X162023928Y-78812571D01*
X161381071Y-80312571D02*
X161381071Y-79526857D01*
X161452500Y-79384000D01*
X161595357Y-79312571D01*
X161809642Y-79312571D01*
X161952500Y-79384000D01*
X162023928Y-79455428D01*
X160666785Y-80312571D02*
X160666785Y-79312571D01*
X160666785Y-78812571D02*
X160738214Y-78884000D01*
X160666785Y-78955428D01*
X160595357Y-78884000D01*
X160666785Y-78812571D01*
X160666785Y-78955428D01*
X159309642Y-80241142D02*
X159452500Y-80312571D01*
X159738214Y-80312571D01*
X159881071Y-80241142D01*
X159952500Y-80169714D01*
X160023928Y-80026857D01*
X160023928Y-79598285D01*
X159952500Y-79455428D01*
X159881071Y-79384000D01*
X159738214Y-79312571D01*
X159452500Y-79312571D01*
X159309642Y-79384000D01*
X158666785Y-80312571D02*
X158666785Y-78812571D01*
X158023928Y-80312571D02*
X158023928Y-79526857D01*
X158095357Y-79384000D01*
X158238214Y-79312571D01*
X158452500Y-79312571D01*
X158595357Y-79384000D01*
X158666785Y-79455428D01*
X155952500Y-80312571D02*
X156095357Y-80241142D01*
X156166785Y-80169714D01*
X156238214Y-80026857D01*
X156238214Y-79598285D01*
X156166785Y-79455428D01*
X156095357Y-79384000D01*
X155952500Y-79312571D01*
X155738214Y-79312571D01*
X155595357Y-79384000D01*
X155523928Y-79455428D01*
X155452500Y-79598285D01*
X155452500Y-80026857D01*
X155523928Y-80169714D01*
X155595357Y-80241142D01*
X155738214Y-80312571D01*
X155952500Y-80312571D01*
X154809642Y-79312571D02*
X154809642Y-80312571D01*
X154809642Y-79455428D02*
X154738214Y-79384000D01*
X154595357Y-79312571D01*
X154381071Y-79312571D01*
X154238214Y-79384000D01*
X154166785Y-79526857D01*
X154166785Y-80312571D01*
X152881071Y-80241142D02*
X153023928Y-80312571D01*
X153309642Y-80312571D01*
X153452500Y-80241142D01*
X153523928Y-80098285D01*
X153523928Y-79526857D01*
X153452500Y-79384000D01*
X153309642Y-79312571D01*
X153023928Y-79312571D01*
X152881071Y-79384000D01*
X152809642Y-79526857D01*
X152809642Y-79669714D01*
X153523928Y-79812571D01*
X152095357Y-78812571D02*
X152238214Y-79098285D01*
X151523928Y-80241142D02*
X151381071Y-80312571D01*
X151095357Y-80312571D01*
X150952500Y-80241142D01*
X150881071Y-80098285D01*
X150881071Y-80026857D01*
X150952500Y-79884000D01*
X151095357Y-79812571D01*
X151309642Y-79812571D01*
X151452500Y-79741142D01*
X151523928Y-79598285D01*
X151523928Y-79526857D01*
X151452500Y-79384000D01*
X151309642Y-79312571D01*
X151095357Y-79312571D01*
X150952500Y-79384000D01*
X149095357Y-80312571D02*
X149095357Y-78812571D01*
X148523928Y-78812571D01*
X148381071Y-78884000D01*
X148309642Y-78955428D01*
X148238214Y-79098285D01*
X148238214Y-79312571D01*
X148309642Y-79455428D01*
X148381071Y-79526857D01*
X148523928Y-79598285D01*
X149095357Y-79598285D01*
X147595357Y-80312571D02*
X147595357Y-79312571D01*
X147595357Y-78812571D02*
X147666785Y-78884000D01*
X147595357Y-78955428D01*
X147523928Y-78884000D01*
X147595357Y-78812571D01*
X147595357Y-78955428D01*
X146881071Y-79312571D02*
X146881071Y-80312571D01*
X146881071Y-79455428D02*
X146809642Y-79384000D01*
X146666785Y-79312571D01*
X146452500Y-79312571D01*
X146309642Y-79384000D01*
X146238214Y-79526857D01*
X146238214Y-80312571D01*
X145523928Y-80312571D02*
X145523928Y-78812571D01*
X145381071Y-79741142D02*
X144952500Y-80312571D01*
X144952500Y-79312571D02*
X145523928Y-79884000D01*
X144095357Y-80169714D02*
X144023928Y-80241142D01*
X144095357Y-80312571D01*
X144166785Y-80241142D01*
X144095357Y-80169714D01*
X144095357Y-80312571D01*
X144381071Y-78884000D02*
X144238214Y-78812571D01*
X143881071Y-78812571D01*
X143738214Y-78884000D01*
X143666785Y-79026857D01*
X143666785Y-79169714D01*
X143738214Y-79312571D01*
X143809642Y-79384000D01*
X143952500Y-79455428D01*
X144023928Y-79526857D01*
X144095357Y-79669714D01*
X144095357Y-79741142D01*
D11*
X188861095Y-100493285D02*
X188679666Y-100553761D01*
X188619190Y-100614238D01*
X188558714Y-100735190D01*
X188558714Y-100916619D01*
X188619190Y-101037571D01*
X188679666Y-101098047D01*
X188800619Y-101158523D01*
X189284428Y-101158523D01*
X189284428Y-99888523D01*
X188861095Y-99888523D01*
X188740142Y-99949000D01*
X188679666Y-100009476D01*
X188619190Y-100130428D01*
X188619190Y-100251380D01*
X188679666Y-100372333D01*
X188740142Y-100432809D01*
X188861095Y-100493285D01*
X189284428Y-100493285D01*
X187470142Y-101158523D02*
X187470142Y-100493285D01*
X187530619Y-100372333D01*
X187651571Y-100311857D01*
X187893476Y-100311857D01*
X188014428Y-100372333D01*
X187470142Y-101098047D02*
X187591095Y-101158523D01*
X187893476Y-101158523D01*
X188014428Y-101098047D01*
X188074904Y-100977095D01*
X188074904Y-100856142D01*
X188014428Y-100735190D01*
X187893476Y-100674714D01*
X187591095Y-100674714D01*
X187470142Y-100614238D01*
X187046809Y-100311857D02*
X186563000Y-100311857D01*
X186865380Y-99888523D02*
X186865380Y-100977095D01*
X186804904Y-101098047D01*
X186683952Y-101158523D01*
X186563000Y-101158523D01*
X186321095Y-100311857D02*
X185837285Y-100311857D01*
X186139666Y-99888523D02*
X186139666Y-100977095D01*
X186079190Y-101098047D01*
X185958238Y-101158523D01*
X185837285Y-101158523D01*
X184930142Y-101098047D02*
X185051095Y-101158523D01*
X185293000Y-101158523D01*
X185413952Y-101098047D01*
X185474428Y-100977095D01*
X185474428Y-100493285D01*
X185413952Y-100372333D01*
X185293000Y-100311857D01*
X185051095Y-100311857D01*
X184930142Y-100372333D01*
X184869666Y-100493285D01*
X184869666Y-100614238D01*
X185474428Y-100735190D01*
X184325380Y-101158523D02*
X184325380Y-100311857D01*
X184325380Y-100553761D02*
X184264904Y-100432809D01*
X184204428Y-100372333D01*
X184083476Y-100311857D01*
X183962523Y-100311857D01*
X183660142Y-100311857D02*
X183357761Y-101158523D01*
X183055380Y-100311857D02*
X183357761Y-101158523D01*
X183478714Y-101460904D01*
X183539190Y-101521380D01*
X183660142Y-101581857D01*
X181603952Y-100311857D02*
X181603952Y-101581857D01*
X181603952Y-100372333D02*
X181483000Y-100311857D01*
X181241095Y-100311857D01*
X181120142Y-100372333D01*
X181059666Y-100432809D01*
X180999190Y-100553761D01*
X180999190Y-100916619D01*
X181059666Y-101037571D01*
X181120142Y-101098047D01*
X181241095Y-101158523D01*
X181483000Y-101158523D01*
X181603952Y-101098047D01*
X180273476Y-101158523D02*
X180394428Y-101098047D01*
X180454904Y-100977095D01*
X180454904Y-99888523D01*
X179245380Y-101158523D02*
X179245380Y-100493285D01*
X179305857Y-100372333D01*
X179426809Y-100311857D01*
X179668714Y-100311857D01*
X179789666Y-100372333D01*
X179245380Y-101098047D02*
X179366333Y-101158523D01*
X179668714Y-101158523D01*
X179789666Y-101098047D01*
X179850142Y-100977095D01*
X179850142Y-100856142D01*
X179789666Y-100735190D01*
X179668714Y-100674714D01*
X179366333Y-100674714D01*
X179245380Y-100614238D01*
X178096333Y-101098047D02*
X178217285Y-101158523D01*
X178459190Y-101158523D01*
X178580142Y-101098047D01*
X178640619Y-101037571D01*
X178701095Y-100916619D01*
X178701095Y-100553761D01*
X178640619Y-100432809D01*
X178580142Y-100372333D01*
X178459190Y-100311857D01*
X178217285Y-100311857D01*
X178096333Y-100372333D01*
X177068238Y-101098047D02*
X177189190Y-101158523D01*
X177431095Y-101158523D01*
X177552047Y-101098047D01*
X177612523Y-100977095D01*
X177612523Y-100493285D01*
X177552047Y-100372333D01*
X177431095Y-100311857D01*
X177189190Y-100311857D01*
X177068238Y-100372333D01*
X177007761Y-100493285D01*
X177007761Y-100614238D01*
X177612523Y-100735190D01*
X176463476Y-101158523D02*
X176463476Y-100311857D01*
X176463476Y-100432809D02*
X176403000Y-100372333D01*
X176282047Y-100311857D01*
X176100619Y-100311857D01*
X175979666Y-100372333D01*
X175919190Y-100493285D01*
X175919190Y-101158523D01*
X175919190Y-100493285D02*
X175858714Y-100372333D01*
X175737761Y-100311857D01*
X175556333Y-100311857D01*
X175435380Y-100372333D01*
X175374904Y-100493285D01*
X175374904Y-101158523D01*
X174286333Y-101098047D02*
X174407285Y-101158523D01*
X174649190Y-101158523D01*
X174770142Y-101098047D01*
X174830619Y-100977095D01*
X174830619Y-100493285D01*
X174770142Y-100372333D01*
X174649190Y-100311857D01*
X174407285Y-100311857D01*
X174286333Y-100372333D01*
X174225857Y-100493285D01*
X174225857Y-100614238D01*
X174830619Y-100735190D01*
X173681571Y-100311857D02*
X173681571Y-101158523D01*
X173681571Y-100432809D02*
X173621095Y-100372333D01*
X173500142Y-100311857D01*
X173318714Y-100311857D01*
X173197761Y-100372333D01*
X173137285Y-100493285D01*
X173137285Y-101158523D01*
X172713952Y-100311857D02*
X172230142Y-100311857D01*
X172532523Y-99888523D02*
X172532523Y-100977095D01*
X172472047Y-101098047D01*
X172351095Y-101158523D01*
X172230142Y-101158523D01*
D12*
X159131000Y-89344500D02*
X204089000Y-89344500D01*
X159131000Y-111315500D02*
X159131000Y-89344500D01*
X204089000Y-111315500D02*
X159131000Y-111315500D01*
X204089000Y-89344500D02*
X204089000Y-111315500D01*
D13*
G04 #@! TO.C,JP1*
X156319500Y-103205500D02*
G75*
G03X157019500Y-102505500I0J700000D01*
G01*
X155019500Y-102505500D02*
G75*
G03X155719500Y-103205500I700000J0D01*
G01*
X155719500Y-99105500D02*
G75*
G03X155019500Y-99805500I0J-700000D01*
G01*
X157019500Y-99805500D02*
G75*
G03X156319500Y-99105500I-700000J0D01*
G01*
X157019500Y-102555500D02*
X157019500Y-99755500D01*
X156319500Y-99105500D02*
X155719500Y-99105500D01*
X155019500Y-99755500D02*
X155019500Y-102555500D01*
X155719500Y-103205500D02*
X156319500Y-103205500D01*
G04 #@! TO.C,JP2*
X142492500Y-101838000D02*
X143892500Y-101838000D01*
X144592500Y-101138000D02*
X144592500Y-100538000D01*
X143892500Y-99838000D02*
X142492500Y-99838000D01*
X141792500Y-100538000D02*
X141792500Y-101138000D01*
X141792500Y-101138000D02*
G75*
G03X142492500Y-101838000I700000J0D01*
G01*
X142492500Y-99838000D02*
G75*
G03X141792500Y-100538000I0J-700000D01*
G01*
X144592500Y-100538000D02*
G75*
G03X143892500Y-99838000I-700000J0D01*
G01*
X143892500Y-101838000D02*
G75*
G03X144592500Y-101138000I0J700000D01*
G01*
G04 #@! TO.C,JP3*
X153116000Y-101709000D02*
G75*
G03X152416000Y-102409000I0J-700000D01*
G01*
X154416000Y-102409000D02*
G75*
G03X153716000Y-101709000I-700000J0D01*
G01*
X153716000Y-105809000D02*
G75*
G03X154416000Y-105109000I0J700000D01*
G01*
X152416000Y-105109000D02*
G75*
G03X153116000Y-105809000I700000J0D01*
G01*
X152416000Y-102359000D02*
X152416000Y-105159000D01*
X153116000Y-105809000D02*
X153716000Y-105809000D01*
X154416000Y-105159000D02*
X154416000Y-102359000D01*
X153716000Y-101709000D02*
X153116000Y-101709000D01*
D14*
G04 #@! TO.C,G\002A\002A\002A*
G36*
X151616934Y-70472360D02*
X154701650Y-70472360D01*
X154701650Y-72007194D01*
X152640157Y-72007194D01*
X152640157Y-72518805D01*
X154701650Y-72518805D01*
X154701650Y-74580298D01*
X155213261Y-74580298D01*
X155213261Y-72518805D01*
X155724873Y-72518805D01*
X155724873Y-75076862D01*
X154897266Y-75076862D01*
X154897266Y-75603521D01*
X156236484Y-75603521D01*
X156236484Y-74580298D01*
X156718000Y-74580298D01*
X156718000Y-74053639D01*
X156236484Y-74053639D01*
X156236484Y-73557075D01*
X156718000Y-73557075D01*
X156718000Y-73030417D01*
X156236484Y-73030417D01*
X156236484Y-72518805D01*
X156718000Y-72518805D01*
X156718000Y-72007194D01*
X156236484Y-72007194D01*
X156236484Y-71495582D01*
X156718000Y-71495582D01*
X156718000Y-70983971D01*
X156236484Y-70983971D01*
X156236484Y-70472360D01*
X155724873Y-70472360D01*
X155724873Y-72007194D01*
X155213261Y-72007194D01*
X155213261Y-70472360D01*
X155724873Y-70472360D01*
X156236484Y-70472360D01*
X156718000Y-70472360D01*
X156718000Y-69945701D01*
X156236484Y-69945701D01*
X156236484Y-69449137D01*
X155724873Y-69449137D01*
X155724873Y-69945701D01*
X152143593Y-69945701D01*
X152143593Y-69449137D01*
X155724873Y-69449137D01*
X156236484Y-69449137D01*
X156236484Y-68922478D01*
X151616934Y-68922478D01*
X151616934Y-70472360D01*
X151616934Y-70472360D01*
G37*
X151616934Y-70472360D02*
X154701650Y-70472360D01*
X154701650Y-72007194D01*
X152640157Y-72007194D01*
X152640157Y-72518805D01*
X154701650Y-72518805D01*
X154701650Y-74580298D01*
X155213261Y-74580298D01*
X155213261Y-72518805D01*
X155724873Y-72518805D01*
X155724873Y-75076862D01*
X154897266Y-75076862D01*
X154897266Y-75603521D01*
X156236484Y-75603521D01*
X156236484Y-74580298D01*
X156718000Y-74580298D01*
X156718000Y-74053639D01*
X156236484Y-74053639D01*
X156236484Y-73557075D01*
X156718000Y-73557075D01*
X156718000Y-73030417D01*
X156236484Y-73030417D01*
X156236484Y-72518805D01*
X156718000Y-72518805D01*
X156718000Y-72007194D01*
X156236484Y-72007194D01*
X156236484Y-71495582D01*
X156718000Y-71495582D01*
X156718000Y-70983971D01*
X156236484Y-70983971D01*
X156236484Y-70472360D01*
X155724873Y-70472360D01*
X155724873Y-72007194D01*
X155213261Y-72007194D01*
X155213261Y-70472360D01*
X155724873Y-70472360D01*
X156236484Y-70472360D01*
X156718000Y-70472360D01*
X156718000Y-69945701D01*
X156236484Y-69945701D01*
X156236484Y-69449137D01*
X155724873Y-69449137D01*
X155724873Y-69945701D01*
X152143593Y-69945701D01*
X152143593Y-69449137D01*
X155724873Y-69449137D01*
X156236484Y-69449137D01*
X156236484Y-68922478D01*
X151616934Y-68922478D01*
X151616934Y-70472360D01*
G36*
X150386099Y-65920289D02*
X150328250Y-65937591D01*
X150328244Y-65937594D01*
X150283661Y-65965505D01*
X150239559Y-66007218D01*
X150195702Y-66063622D01*
X150151856Y-66135607D01*
X150107786Y-66224061D01*
X150063257Y-66329875D01*
X150018035Y-66453938D01*
X149971884Y-66597140D01*
X149924571Y-66760370D01*
X149875859Y-66944517D01*
X149825516Y-67150471D01*
X149773305Y-67379121D01*
X149718992Y-67631358D01*
X149662342Y-67908070D01*
X149603120Y-68210146D01*
X149541092Y-68538477D01*
X149476023Y-68893952D01*
X149407678Y-69277461D01*
X149335823Y-69689892D01*
X149331931Y-69712466D01*
X149304408Y-69872468D01*
X149277077Y-70031893D01*
X149250632Y-70186661D01*
X149225765Y-70332688D01*
X149203172Y-70465894D01*
X149183544Y-70582196D01*
X149167577Y-70677512D01*
X149155963Y-70747760D01*
X149154865Y-70754498D01*
X149140610Y-70838633D01*
X149127199Y-70911392D01*
X149115598Y-70968007D01*
X149106777Y-71003714D01*
X149102172Y-71014066D01*
X149093187Y-71001355D01*
X149070316Y-70964522D01*
X149034705Y-70905513D01*
X148987501Y-70826278D01*
X148929852Y-70728763D01*
X148862905Y-70614917D01*
X148787806Y-70486687D01*
X148705703Y-70346023D01*
X148617743Y-70194870D01*
X148525072Y-70035178D01*
X148485995Y-69967710D01*
X148391792Y-69805365D01*
X148301790Y-69651018D01*
X148217137Y-69506591D01*
X148138979Y-69374004D01*
X148068462Y-69255178D01*
X148006733Y-69152033D01*
X147954938Y-69066490D01*
X147914223Y-69000471D01*
X147885735Y-68955895D01*
X147870620Y-68934683D01*
X147868537Y-68933202D01*
X147860009Y-68947194D01*
X147837165Y-68986073D01*
X147800698Y-69048640D01*
X147751300Y-69133695D01*
X147689664Y-69240040D01*
X147616481Y-69366476D01*
X147532445Y-69511804D01*
X147438247Y-69674825D01*
X147334580Y-69854341D01*
X147222136Y-70049151D01*
X147101608Y-70258058D01*
X146973688Y-70479862D01*
X146839068Y-70713365D01*
X146698441Y-70957367D01*
X146552499Y-71210669D01*
X146401935Y-71472074D01*
X146247440Y-71740381D01*
X146245866Y-71743114D01*
X146091505Y-72011198D01*
X145941164Y-72272238D01*
X145795530Y-72525044D01*
X145655289Y-72768429D01*
X145521126Y-73001204D01*
X145393727Y-73222182D01*
X145273779Y-73430173D01*
X145161966Y-73623989D01*
X145058974Y-73802442D01*
X144965490Y-73964345D01*
X144882200Y-74108508D01*
X144809788Y-74233743D01*
X144748941Y-74338862D01*
X144700344Y-74422677D01*
X144664684Y-74484000D01*
X144642646Y-74521641D01*
X144634916Y-74534414D01*
X144634912Y-74534405D01*
X144633299Y-74518466D01*
X144628707Y-74475821D01*
X144621490Y-74409672D01*
X144611998Y-74323224D01*
X144600584Y-74219681D01*
X144587600Y-74102245D01*
X144573398Y-73974120D01*
X144568027Y-73925736D01*
X144547107Y-73735155D01*
X144526160Y-73540101D01*
X144505502Y-73343775D01*
X144485444Y-73149379D01*
X144466303Y-72960114D01*
X144448392Y-72779181D01*
X144432025Y-72609782D01*
X144417516Y-72455117D01*
X144405181Y-72318389D01*
X144395332Y-72202799D01*
X144388285Y-72111547D01*
X144385059Y-72061594D01*
X144375965Y-71897806D01*
X144275982Y-71907251D01*
X144210017Y-71912397D01*
X144143558Y-71915872D01*
X144103715Y-71916802D01*
X144031431Y-71916909D01*
X144041012Y-72086193D01*
X144046385Y-72165609D01*
X144054960Y-72272079D01*
X144066445Y-72402765D01*
X144080551Y-72554829D01*
X144096986Y-72725434D01*
X144115461Y-72911742D01*
X144135684Y-73110914D01*
X144157364Y-73320115D01*
X144180212Y-73536505D01*
X144203937Y-73757246D01*
X144228248Y-73979502D01*
X144252854Y-74200435D01*
X144277466Y-74417206D01*
X144296973Y-74585799D01*
X144349442Y-75035198D01*
X144191245Y-75311500D01*
X144144324Y-75393806D01*
X144102933Y-75467090D01*
X144069265Y-75527416D01*
X144045510Y-75570845D01*
X144033862Y-75593442D01*
X144033048Y-75595661D01*
X144047164Y-75598585D01*
X144085786Y-75601016D01*
X144143327Y-75602729D01*
X144214201Y-75603499D01*
X144228664Y-75603521D01*
X144301431Y-75604443D01*
X144361925Y-75606964D01*
X144404559Y-75610722D01*
X144423746Y-75615350D01*
X144424280Y-75616295D01*
X144426503Y-75639227D01*
X144432776Y-75687933D01*
X144442508Y-75758454D01*
X144455109Y-75846830D01*
X144469987Y-75949101D01*
X144486551Y-76061306D01*
X144504209Y-76179487D01*
X144522370Y-76299682D01*
X144540443Y-76417933D01*
X144557837Y-76530279D01*
X144573960Y-76632759D01*
X144588221Y-76721415D01*
X144598742Y-76784741D01*
X144650627Y-77077944D01*
X144701825Y-77342066D01*
X144752675Y-77578106D01*
X144803519Y-77787061D01*
X144854696Y-77969927D01*
X144906544Y-78127703D01*
X144959405Y-78261386D01*
X145013618Y-78371973D01*
X145069522Y-78460462D01*
X145127458Y-78527849D01*
X145187765Y-78575132D01*
X145213378Y-78588997D01*
X145274642Y-78606563D01*
X145348833Y-78611720D01*
X145421929Y-78604526D01*
X145474359Y-78587953D01*
X145536393Y-78546600D01*
X145597124Y-78483881D01*
X145656846Y-78398976D01*
X145715852Y-78291066D01*
X145774434Y-78159328D01*
X145832886Y-78002943D01*
X145891502Y-77821090D01*
X145950574Y-77612949D01*
X146010396Y-77377699D01*
X146071262Y-77114520D01*
X146133463Y-76822591D01*
X146169869Y-76641791D01*
X146195579Y-76510252D01*
X146222071Y-76372177D01*
X146248003Y-76234750D01*
X146272030Y-76105154D01*
X146292808Y-75990576D01*
X146308994Y-75898197D01*
X146309207Y-75896945D01*
X146357870Y-75611045D01*
X147746679Y-75603521D01*
X146007673Y-75603521D01*
X145997296Y-75674996D01*
X145979409Y-75789501D01*
X145955794Y-75927399D01*
X145927456Y-76083714D01*
X145895404Y-76253474D01*
X145860643Y-76431704D01*
X145824181Y-76613432D01*
X145787026Y-76793681D01*
X145750183Y-76967481D01*
X145714661Y-77129855D01*
X145681466Y-77275831D01*
X145651605Y-77400434D01*
X145633988Y-77469398D01*
X145598692Y-77596816D01*
X145561185Y-77721418D01*
X145522723Y-77839893D01*
X145484560Y-77948933D01*
X145447951Y-78045227D01*
X145414150Y-78125466D01*
X145384412Y-78186340D01*
X145359992Y-78224539D01*
X145343071Y-78236815D01*
X145330259Y-78224216D01*
X145309700Y-78191126D01*
X145285760Y-78144602D01*
X145284891Y-78142768D01*
X145236685Y-78026423D01*
X145187784Y-77880143D01*
X145138220Y-77704080D01*
X145088027Y-77498383D01*
X145037236Y-77263205D01*
X144985880Y-76998696D01*
X144933992Y-76705007D01*
X144881604Y-76382290D01*
X144828748Y-76030695D01*
X144823553Y-75994753D01*
X144808921Y-75892741D01*
X144795829Y-75800646D01*
X144784860Y-75722642D01*
X144776599Y-75662900D01*
X144771628Y-75625593D01*
X144770411Y-75614806D01*
X144784925Y-75612377D01*
X144826393Y-75610128D01*
X144891672Y-75608115D01*
X144977621Y-75606396D01*
X145081099Y-75605028D01*
X145198963Y-75604069D01*
X145328072Y-75603576D01*
X145389022Y-75603521D01*
X146007673Y-75603521D01*
X147746679Y-75603521D01*
X148366697Y-75600162D01*
X148624896Y-75598759D01*
X148884256Y-75597343D01*
X149142152Y-75595928D01*
X149395961Y-75594528D01*
X149643058Y-75593159D01*
X149880819Y-75591836D01*
X150106619Y-75590572D01*
X150317835Y-75589382D01*
X150511842Y-75588282D01*
X150686015Y-75587286D01*
X150837731Y-75586408D01*
X150964365Y-75585663D01*
X151055595Y-75585114D01*
X151735665Y-75580950D01*
X150557715Y-73545689D01*
X149384238Y-71518154D01*
X149362542Y-71518154D01*
X149299692Y-71901862D01*
X149255714Y-72162884D01*
X149213770Y-72395894D01*
X149173372Y-72602868D01*
X149134030Y-72785784D01*
X149095258Y-72946619D01*
X149056566Y-73087349D01*
X149017466Y-73209952D01*
X148977470Y-73316403D01*
X148936091Y-73408680D01*
X148919540Y-73441125D01*
X148849775Y-73552241D01*
X148773420Y-73635845D01*
X148691879Y-73691531D01*
X148606556Y-73718894D01*
X148518854Y-73717528D01*
X148430177Y-73687024D01*
X148341928Y-73626979D01*
X148326083Y-73612897D01*
X148250508Y-73529733D01*
X148172561Y-73417837D01*
X148092822Y-73278428D01*
X148011867Y-73112722D01*
X147930276Y-72921937D01*
X147848626Y-72707292D01*
X147767496Y-72470005D01*
X147735103Y-72368331D01*
X147670123Y-72161708D01*
X147612515Y-71981859D01*
X147561444Y-71826609D01*
X147516072Y-71693778D01*
X147475561Y-71581188D01*
X147439077Y-71486663D01*
X147405781Y-71408023D01*
X147374837Y-71343091D01*
X147345409Y-71289688D01*
X147316658Y-71245638D01*
X147291087Y-71212681D01*
X147249231Y-71163014D01*
X147212069Y-71197633D01*
X147170782Y-71248904D01*
X147126143Y-71328123D01*
X147078883Y-71433420D01*
X147029733Y-71562927D01*
X146979424Y-71714775D01*
X146928687Y-71887095D01*
X146898309Y-71999670D01*
X146879219Y-72075477D01*
X146861771Y-72151510D01*
X146845234Y-72231975D01*
X146828877Y-72321080D01*
X146811970Y-72423030D01*
X146793782Y-72542032D01*
X146773584Y-72682292D01*
X146750644Y-72848018D01*
X146749368Y-72857372D01*
X146704538Y-73183185D01*
X146658931Y-73508958D01*
X146613217Y-73830085D01*
X146568066Y-74141960D01*
X146524148Y-74439977D01*
X146482131Y-74719530D01*
X146442686Y-74976013D01*
X146424892Y-75089386D01*
X146406656Y-75205143D01*
X146390035Y-75311457D01*
X146375593Y-75404657D01*
X146363894Y-75481071D01*
X146355501Y-75537028D01*
X146350980Y-75568856D01*
X146350346Y-75574664D01*
X146336338Y-75580333D01*
X146298455Y-75584874D01*
X146242914Y-75587744D01*
X146192349Y-75588473D01*
X144749790Y-75588473D01*
X144594845Y-75588473D01*
X144525147Y-75588127D01*
X144479872Y-75586297D01*
X144453349Y-75581801D01*
X144439909Y-75573456D01*
X144433881Y-75560079D01*
X144432608Y-75554617D01*
X144428325Y-75528444D01*
X144421282Y-75478390D01*
X144412282Y-75410454D01*
X144402128Y-75330638D01*
X144396161Y-75282359D01*
X144367007Y-75043958D01*
X144497213Y-74818502D01*
X144544203Y-74737610D01*
X144578512Y-74680210D01*
X144602232Y-74643577D01*
X144617455Y-74624984D01*
X144626272Y-74621703D01*
X144630774Y-74631007D01*
X144632356Y-74642296D01*
X144635446Y-74669445D01*
X144641785Y-74722252D01*
X144650854Y-74796517D01*
X144662138Y-74888040D01*
X144675121Y-74992622D01*
X144689286Y-75106062D01*
X144693541Y-75140010D01*
X144749790Y-75588473D01*
X146192349Y-75588473D01*
X146127491Y-75587377D01*
X146075535Y-75584412D01*
X146042698Y-75580064D01*
X146034351Y-75576106D01*
X146036630Y-75558844D01*
X146043107Y-75515339D01*
X146053245Y-75449070D01*
X146066504Y-75363513D01*
X146082346Y-75262146D01*
X146100233Y-75148448D01*
X146116487Y-75045686D01*
X146152656Y-74814180D01*
X146191634Y-74558543D01*
X146232585Y-74284515D01*
X146274676Y-73997839D01*
X146317072Y-73704256D01*
X146358940Y-73409508D01*
X146399447Y-73119336D01*
X146437757Y-72839482D01*
X146448474Y-72760053D01*
X146480022Y-72536329D01*
X146511426Y-72337709D01*
X146543794Y-72159227D01*
X146578235Y-71995919D01*
X146615857Y-71842819D01*
X146657770Y-71694962D01*
X146705081Y-71547384D01*
X146744234Y-71435393D01*
X146810480Y-71272310D01*
X146881775Y-71135414D01*
X146957356Y-71025164D01*
X147036461Y-70942021D01*
X147118329Y-70886448D01*
X147202198Y-70858903D01*
X147287305Y-70859850D01*
X147372890Y-70889748D01*
X147458189Y-70949058D01*
X147493198Y-70982287D01*
X147566556Y-71072381D01*
X147640067Y-71192234D01*
X147713575Y-71341512D01*
X147786926Y-71519880D01*
X147859965Y-71727004D01*
X147907924Y-71879291D01*
X147990160Y-72146292D01*
X148067090Y-72384786D01*
X148139140Y-72595809D01*
X148206735Y-72780397D01*
X148270298Y-72939588D01*
X148330255Y-73074419D01*
X148387030Y-73185925D01*
X148441047Y-73275144D01*
X148492732Y-73343113D01*
X148518429Y-73370024D01*
X148564633Y-73414125D01*
X148599047Y-73374282D01*
X148633646Y-73322005D01*
X148671326Y-73242949D01*
X148711056Y-73140148D01*
X148751808Y-73016638D01*
X148792554Y-72875451D01*
X148832263Y-72719623D01*
X148855994Y-72616613D01*
X148866217Y-72566563D01*
X148880494Y-72491121D01*
X148898089Y-72394606D01*
X148918266Y-72281340D01*
X148940289Y-72155640D01*
X148963421Y-72021828D01*
X148986927Y-71884222D01*
X149010070Y-71747141D01*
X149032116Y-71614906D01*
X149052327Y-71491837D01*
X149069968Y-71382252D01*
X149084303Y-71290471D01*
X149094595Y-71220814D01*
X149097640Y-71198396D01*
X149105351Y-71154333D01*
X149114187Y-71125656D01*
X149119522Y-71119398D01*
X149130699Y-71131737D01*
X149153860Y-71165763D01*
X149186137Y-71216986D01*
X149224664Y-71280916D01*
X149246845Y-71318776D01*
X149362542Y-71518154D01*
X149384238Y-71518154D01*
X149379766Y-71510429D01*
X149460072Y-71025251D01*
X149533191Y-70585727D01*
X149602336Y-70174823D01*
X149667737Y-69791358D01*
X149729623Y-69434151D01*
X149788223Y-69102021D01*
X149843768Y-68793789D01*
X149896486Y-68508274D01*
X149946609Y-68244295D01*
X149994364Y-68000671D01*
X150039981Y-67776223D01*
X150083691Y-67569769D01*
X150125722Y-67380129D01*
X150166305Y-67206123D01*
X150205669Y-67046571D01*
X150244043Y-66900291D01*
X150281657Y-66766103D01*
X150301186Y-66700069D01*
X150329369Y-66611737D01*
X150358799Y-66528441D01*
X150387671Y-66454410D01*
X150414180Y-66393871D01*
X150436520Y-66351050D01*
X150452888Y-66330175D01*
X150459173Y-66330029D01*
X150469136Y-66349002D01*
X150485687Y-66388695D01*
X150505643Y-66441363D01*
X150510454Y-66454706D01*
X150542863Y-66553748D01*
X150575911Y-66671374D01*
X150609692Y-66808238D01*
X150644302Y-66964997D01*
X150679836Y-67142304D01*
X150716390Y-67340817D01*
X150754058Y-67561190D01*
X150792937Y-67804078D01*
X150833120Y-68070137D01*
X150874705Y-68360023D01*
X150917786Y-68674390D01*
X150962459Y-69013894D01*
X151008818Y-69379190D01*
X151056960Y-69770934D01*
X151106979Y-70189782D01*
X151158971Y-70636387D01*
X151213031Y-71111407D01*
X151269255Y-71615496D01*
X151294155Y-71841672D01*
X151312032Y-72003866D01*
X151329080Y-72157016D01*
X151345001Y-72298530D01*
X151359493Y-72425818D01*
X151372258Y-72536290D01*
X151382997Y-72627353D01*
X151391409Y-72696417D01*
X151397196Y-72740890D01*
X151400057Y-72758183D01*
X151400126Y-72758296D01*
X151416276Y-72759091D01*
X151454751Y-72756920D01*
X151508011Y-72752547D01*
X151568518Y-72746736D01*
X151628732Y-72740250D01*
X151681116Y-72733854D01*
X151718130Y-72728309D01*
X151732076Y-72724675D01*
X151731476Y-72709012D01*
X151727662Y-72665715D01*
X151720887Y-72597045D01*
X151711406Y-72505261D01*
X151699472Y-72392625D01*
X151685341Y-72261396D01*
X151669265Y-72113835D01*
X151651498Y-71952203D01*
X151632296Y-71778759D01*
X151611913Y-71595764D01*
X151590601Y-71405478D01*
X151568616Y-71210162D01*
X151546211Y-71012075D01*
X151523641Y-70813479D01*
X151501159Y-70616634D01*
X151479020Y-70423800D01*
X151457478Y-70237237D01*
X151436787Y-70059206D01*
X151417201Y-69891966D01*
X151398975Y-69737780D01*
X151382361Y-69598906D01*
X151367615Y-69477605D01*
X151361310Y-69426566D01*
X151310769Y-69026742D01*
X151262151Y-68656070D01*
X151215294Y-68313677D01*
X151170034Y-67998692D01*
X151126209Y-67710244D01*
X151083655Y-67447461D01*
X151042208Y-67209473D01*
X151001706Y-66995407D01*
X150961986Y-66804392D01*
X150922884Y-66635558D01*
X150884236Y-66488031D01*
X150845881Y-66360942D01*
X150807655Y-66253419D01*
X150769394Y-66164590D01*
X150739942Y-66108616D01*
X150696441Y-66045594D01*
X150644409Y-65987782D01*
X150592697Y-65944572D01*
X150575649Y-65934287D01*
X150522880Y-65918462D01*
X150455336Y-65913855D01*
X150386099Y-65920289D01*
X150386099Y-65920289D01*
G37*
X150386099Y-65920289D02*
X150328250Y-65937591D01*
X150328244Y-65937594D01*
X150283661Y-65965505D01*
X150239559Y-66007218D01*
X150195702Y-66063622D01*
X150151856Y-66135607D01*
X150107786Y-66224061D01*
X150063257Y-66329875D01*
X150018035Y-66453938D01*
X149971884Y-66597140D01*
X149924571Y-66760370D01*
X149875859Y-66944517D01*
X149825516Y-67150471D01*
X149773305Y-67379121D01*
X149718992Y-67631358D01*
X149662342Y-67908070D01*
X149603120Y-68210146D01*
X149541092Y-68538477D01*
X149476023Y-68893952D01*
X149407678Y-69277461D01*
X149335823Y-69689892D01*
X149331931Y-69712466D01*
X149304408Y-69872468D01*
X149277077Y-70031893D01*
X149250632Y-70186661D01*
X149225765Y-70332688D01*
X149203172Y-70465894D01*
X149183544Y-70582196D01*
X149167577Y-70677512D01*
X149155963Y-70747760D01*
X149154865Y-70754498D01*
X149140610Y-70838633D01*
X149127199Y-70911392D01*
X149115598Y-70968007D01*
X149106777Y-71003714D01*
X149102172Y-71014066D01*
X149093187Y-71001355D01*
X149070316Y-70964522D01*
X149034705Y-70905513D01*
X148987501Y-70826278D01*
X148929852Y-70728763D01*
X148862905Y-70614917D01*
X148787806Y-70486687D01*
X148705703Y-70346023D01*
X148617743Y-70194870D01*
X148525072Y-70035178D01*
X148485995Y-69967710D01*
X148391792Y-69805365D01*
X148301790Y-69651018D01*
X148217137Y-69506591D01*
X148138979Y-69374004D01*
X148068462Y-69255178D01*
X148006733Y-69152033D01*
X147954938Y-69066490D01*
X147914223Y-69000471D01*
X147885735Y-68955895D01*
X147870620Y-68934683D01*
X147868537Y-68933202D01*
X147860009Y-68947194D01*
X147837165Y-68986073D01*
X147800698Y-69048640D01*
X147751300Y-69133695D01*
X147689664Y-69240040D01*
X147616481Y-69366476D01*
X147532445Y-69511804D01*
X147438247Y-69674825D01*
X147334580Y-69854341D01*
X147222136Y-70049151D01*
X147101608Y-70258058D01*
X146973688Y-70479862D01*
X146839068Y-70713365D01*
X146698441Y-70957367D01*
X146552499Y-71210669D01*
X146401935Y-71472074D01*
X146247440Y-71740381D01*
X146245866Y-71743114D01*
X146091505Y-72011198D01*
X145941164Y-72272238D01*
X145795530Y-72525044D01*
X145655289Y-72768429D01*
X145521126Y-73001204D01*
X145393727Y-73222182D01*
X145273779Y-73430173D01*
X145161966Y-73623989D01*
X145058974Y-73802442D01*
X144965490Y-73964345D01*
X144882200Y-74108508D01*
X144809788Y-74233743D01*
X144748941Y-74338862D01*
X144700344Y-74422677D01*
X144664684Y-74484000D01*
X144642646Y-74521641D01*
X144634916Y-74534414D01*
X144634912Y-74534405D01*
X144633299Y-74518466D01*
X144628707Y-74475821D01*
X144621490Y-74409672D01*
X144611998Y-74323224D01*
X144600584Y-74219681D01*
X144587600Y-74102245D01*
X144573398Y-73974120D01*
X144568027Y-73925736D01*
X144547107Y-73735155D01*
X144526160Y-73540101D01*
X144505502Y-73343775D01*
X144485444Y-73149379D01*
X144466303Y-72960114D01*
X144448392Y-72779181D01*
X144432025Y-72609782D01*
X144417516Y-72455117D01*
X144405181Y-72318389D01*
X144395332Y-72202799D01*
X144388285Y-72111547D01*
X144385059Y-72061594D01*
X144375965Y-71897806D01*
X144275982Y-71907251D01*
X144210017Y-71912397D01*
X144143558Y-71915872D01*
X144103715Y-71916802D01*
X144031431Y-71916909D01*
X144041012Y-72086193D01*
X144046385Y-72165609D01*
X144054960Y-72272079D01*
X144066445Y-72402765D01*
X144080551Y-72554829D01*
X144096986Y-72725434D01*
X144115461Y-72911742D01*
X144135684Y-73110914D01*
X144157364Y-73320115D01*
X144180212Y-73536505D01*
X144203937Y-73757246D01*
X144228248Y-73979502D01*
X144252854Y-74200435D01*
X144277466Y-74417206D01*
X144296973Y-74585799D01*
X144349442Y-75035198D01*
X144191245Y-75311500D01*
X144144324Y-75393806D01*
X144102933Y-75467090D01*
X144069265Y-75527416D01*
X144045510Y-75570845D01*
X144033862Y-75593442D01*
X144033048Y-75595661D01*
X144047164Y-75598585D01*
X144085786Y-75601016D01*
X144143327Y-75602729D01*
X144214201Y-75603499D01*
X144228664Y-75603521D01*
X144301431Y-75604443D01*
X144361925Y-75606964D01*
X144404559Y-75610722D01*
X144423746Y-75615350D01*
X144424280Y-75616295D01*
X144426503Y-75639227D01*
X144432776Y-75687933D01*
X144442508Y-75758454D01*
X144455109Y-75846830D01*
X144469987Y-75949101D01*
X144486551Y-76061306D01*
X144504209Y-76179487D01*
X144522370Y-76299682D01*
X144540443Y-76417933D01*
X144557837Y-76530279D01*
X144573960Y-76632759D01*
X144588221Y-76721415D01*
X144598742Y-76784741D01*
X144650627Y-77077944D01*
X144701825Y-77342066D01*
X144752675Y-77578106D01*
X144803519Y-77787061D01*
X144854696Y-77969927D01*
X144906544Y-78127703D01*
X144959405Y-78261386D01*
X145013618Y-78371973D01*
X145069522Y-78460462D01*
X145127458Y-78527849D01*
X145187765Y-78575132D01*
X145213378Y-78588997D01*
X145274642Y-78606563D01*
X145348833Y-78611720D01*
X145421929Y-78604526D01*
X145474359Y-78587953D01*
X145536393Y-78546600D01*
X145597124Y-78483881D01*
X145656846Y-78398976D01*
X145715852Y-78291066D01*
X145774434Y-78159328D01*
X145832886Y-78002943D01*
X145891502Y-77821090D01*
X145950574Y-77612949D01*
X146010396Y-77377699D01*
X146071262Y-77114520D01*
X146133463Y-76822591D01*
X146169869Y-76641791D01*
X146195579Y-76510252D01*
X146222071Y-76372177D01*
X146248003Y-76234750D01*
X146272030Y-76105154D01*
X146292808Y-75990576D01*
X146308994Y-75898197D01*
X146309207Y-75896945D01*
X146357870Y-75611045D01*
X147746679Y-75603521D01*
X146007673Y-75603521D01*
X145997296Y-75674996D01*
X145979409Y-75789501D01*
X145955794Y-75927399D01*
X145927456Y-76083714D01*
X145895404Y-76253474D01*
X145860643Y-76431704D01*
X145824181Y-76613432D01*
X145787026Y-76793681D01*
X145750183Y-76967481D01*
X145714661Y-77129855D01*
X145681466Y-77275831D01*
X145651605Y-77400434D01*
X145633988Y-77469398D01*
X145598692Y-77596816D01*
X145561185Y-77721418D01*
X145522723Y-77839893D01*
X145484560Y-77948933D01*
X145447951Y-78045227D01*
X145414150Y-78125466D01*
X145384412Y-78186340D01*
X145359992Y-78224539D01*
X145343071Y-78236815D01*
X145330259Y-78224216D01*
X145309700Y-78191126D01*
X145285760Y-78144602D01*
X145284891Y-78142768D01*
X145236685Y-78026423D01*
X145187784Y-77880143D01*
X145138220Y-77704080D01*
X145088027Y-77498383D01*
X145037236Y-77263205D01*
X144985880Y-76998696D01*
X144933992Y-76705007D01*
X144881604Y-76382290D01*
X144828748Y-76030695D01*
X144823553Y-75994753D01*
X144808921Y-75892741D01*
X144795829Y-75800646D01*
X144784860Y-75722642D01*
X144776599Y-75662900D01*
X144771628Y-75625593D01*
X144770411Y-75614806D01*
X144784925Y-75612377D01*
X144826393Y-75610128D01*
X144891672Y-75608115D01*
X144977621Y-75606396D01*
X145081099Y-75605028D01*
X145198963Y-75604069D01*
X145328072Y-75603576D01*
X145389022Y-75603521D01*
X146007673Y-75603521D01*
X147746679Y-75603521D01*
X148366697Y-75600162D01*
X148624896Y-75598759D01*
X148884256Y-75597343D01*
X149142152Y-75595928D01*
X149395961Y-75594528D01*
X149643058Y-75593159D01*
X149880819Y-75591836D01*
X150106619Y-75590572D01*
X150317835Y-75589382D01*
X150511842Y-75588282D01*
X150686015Y-75587286D01*
X150837731Y-75586408D01*
X150964365Y-75585663D01*
X151055595Y-75585114D01*
X151735665Y-75580950D01*
X150557715Y-73545689D01*
X149384238Y-71518154D01*
X149362542Y-71518154D01*
X149299692Y-71901862D01*
X149255714Y-72162884D01*
X149213770Y-72395894D01*
X149173372Y-72602868D01*
X149134030Y-72785784D01*
X149095258Y-72946619D01*
X149056566Y-73087349D01*
X149017466Y-73209952D01*
X148977470Y-73316403D01*
X148936091Y-73408680D01*
X148919540Y-73441125D01*
X148849775Y-73552241D01*
X148773420Y-73635845D01*
X148691879Y-73691531D01*
X148606556Y-73718894D01*
X148518854Y-73717528D01*
X148430177Y-73687024D01*
X148341928Y-73626979D01*
X148326083Y-73612897D01*
X148250508Y-73529733D01*
X148172561Y-73417837D01*
X148092822Y-73278428D01*
X148011867Y-73112722D01*
X147930276Y-72921937D01*
X147848626Y-72707292D01*
X147767496Y-72470005D01*
X147735103Y-72368331D01*
X147670123Y-72161708D01*
X147612515Y-71981859D01*
X147561444Y-71826609D01*
X147516072Y-71693778D01*
X147475561Y-71581188D01*
X147439077Y-71486663D01*
X147405781Y-71408023D01*
X147374837Y-71343091D01*
X147345409Y-71289688D01*
X147316658Y-71245638D01*
X147291087Y-71212681D01*
X147249231Y-71163014D01*
X147212069Y-71197633D01*
X147170782Y-71248904D01*
X147126143Y-71328123D01*
X147078883Y-71433420D01*
X147029733Y-71562927D01*
X146979424Y-71714775D01*
X146928687Y-71887095D01*
X146898309Y-71999670D01*
X146879219Y-72075477D01*
X146861771Y-72151510D01*
X146845234Y-72231975D01*
X146828877Y-72321080D01*
X146811970Y-72423030D01*
X146793782Y-72542032D01*
X146773584Y-72682292D01*
X146750644Y-72848018D01*
X146749368Y-72857372D01*
X146704538Y-73183185D01*
X146658931Y-73508958D01*
X146613217Y-73830085D01*
X146568066Y-74141960D01*
X146524148Y-74439977D01*
X146482131Y-74719530D01*
X146442686Y-74976013D01*
X146424892Y-75089386D01*
X146406656Y-75205143D01*
X146390035Y-75311457D01*
X146375593Y-75404657D01*
X146363894Y-75481071D01*
X146355501Y-75537028D01*
X146350980Y-75568856D01*
X146350346Y-75574664D01*
X146336338Y-75580333D01*
X146298455Y-75584874D01*
X146242914Y-75587744D01*
X146192349Y-75588473D01*
X144749790Y-75588473D01*
X144594845Y-75588473D01*
X144525147Y-75588127D01*
X144479872Y-75586297D01*
X144453349Y-75581801D01*
X144439909Y-75573456D01*
X144433881Y-75560079D01*
X144432608Y-75554617D01*
X144428325Y-75528444D01*
X144421282Y-75478390D01*
X144412282Y-75410454D01*
X144402128Y-75330638D01*
X144396161Y-75282359D01*
X144367007Y-75043958D01*
X144497213Y-74818502D01*
X144544203Y-74737610D01*
X144578512Y-74680210D01*
X144602232Y-74643577D01*
X144617455Y-74624984D01*
X144626272Y-74621703D01*
X144630774Y-74631007D01*
X144632356Y-74642296D01*
X144635446Y-74669445D01*
X144641785Y-74722252D01*
X144650854Y-74796517D01*
X144662138Y-74888040D01*
X144675121Y-74992622D01*
X144689286Y-75106062D01*
X144693541Y-75140010D01*
X144749790Y-75588473D01*
X146192349Y-75588473D01*
X146127491Y-75587377D01*
X146075535Y-75584412D01*
X146042698Y-75580064D01*
X146034351Y-75576106D01*
X146036630Y-75558844D01*
X146043107Y-75515339D01*
X146053245Y-75449070D01*
X146066504Y-75363513D01*
X146082346Y-75262146D01*
X146100233Y-75148448D01*
X146116487Y-75045686D01*
X146152656Y-74814180D01*
X146191634Y-74558543D01*
X146232585Y-74284515D01*
X146274676Y-73997839D01*
X146317072Y-73704256D01*
X146358940Y-73409508D01*
X146399447Y-73119336D01*
X146437757Y-72839482D01*
X146448474Y-72760053D01*
X146480022Y-72536329D01*
X146511426Y-72337709D01*
X146543794Y-72159227D01*
X146578235Y-71995919D01*
X146615857Y-71842819D01*
X146657770Y-71694962D01*
X146705081Y-71547384D01*
X146744234Y-71435393D01*
X146810480Y-71272310D01*
X146881775Y-71135414D01*
X146957356Y-71025164D01*
X147036461Y-70942021D01*
X147118329Y-70886448D01*
X147202198Y-70858903D01*
X147287305Y-70859850D01*
X147372890Y-70889748D01*
X147458189Y-70949058D01*
X147493198Y-70982287D01*
X147566556Y-71072381D01*
X147640067Y-71192234D01*
X147713575Y-71341512D01*
X147786926Y-71519880D01*
X147859965Y-71727004D01*
X147907924Y-71879291D01*
X147990160Y-72146292D01*
X148067090Y-72384786D01*
X148139140Y-72595809D01*
X148206735Y-72780397D01*
X148270298Y-72939588D01*
X148330255Y-73074419D01*
X148387030Y-73185925D01*
X148441047Y-73275144D01*
X148492732Y-73343113D01*
X148518429Y-73370024D01*
X148564633Y-73414125D01*
X148599047Y-73374282D01*
X148633646Y-73322005D01*
X148671326Y-73242949D01*
X148711056Y-73140148D01*
X148751808Y-73016638D01*
X148792554Y-72875451D01*
X148832263Y-72719623D01*
X148855994Y-72616613D01*
X148866217Y-72566563D01*
X148880494Y-72491121D01*
X148898089Y-72394606D01*
X148918266Y-72281340D01*
X148940289Y-72155640D01*
X148963421Y-72021828D01*
X148986927Y-71884222D01*
X149010070Y-71747141D01*
X149032116Y-71614906D01*
X149052327Y-71491837D01*
X149069968Y-71382252D01*
X149084303Y-71290471D01*
X149094595Y-71220814D01*
X149097640Y-71198396D01*
X149105351Y-71154333D01*
X149114187Y-71125656D01*
X149119522Y-71119398D01*
X149130699Y-71131737D01*
X149153860Y-71165763D01*
X149186137Y-71216986D01*
X149224664Y-71280916D01*
X149246845Y-71318776D01*
X149362542Y-71518154D01*
X149384238Y-71518154D01*
X149379766Y-71510429D01*
X149460072Y-71025251D01*
X149533191Y-70585727D01*
X149602336Y-70174823D01*
X149667737Y-69791358D01*
X149729623Y-69434151D01*
X149788223Y-69102021D01*
X149843768Y-68793789D01*
X149896486Y-68508274D01*
X149946609Y-68244295D01*
X149994364Y-68000671D01*
X150039981Y-67776223D01*
X150083691Y-67569769D01*
X150125722Y-67380129D01*
X150166305Y-67206123D01*
X150205669Y-67046571D01*
X150244043Y-66900291D01*
X150281657Y-66766103D01*
X150301186Y-66700069D01*
X150329369Y-66611737D01*
X150358799Y-66528441D01*
X150387671Y-66454410D01*
X150414180Y-66393871D01*
X150436520Y-66351050D01*
X150452888Y-66330175D01*
X150459173Y-66330029D01*
X150469136Y-66349002D01*
X150485687Y-66388695D01*
X150505643Y-66441363D01*
X150510454Y-66454706D01*
X150542863Y-66553748D01*
X150575911Y-66671374D01*
X150609692Y-66808238D01*
X150644302Y-66964997D01*
X150679836Y-67142304D01*
X150716390Y-67340817D01*
X150754058Y-67561190D01*
X150792937Y-67804078D01*
X150833120Y-68070137D01*
X150874705Y-68360023D01*
X150917786Y-68674390D01*
X150962459Y-69013894D01*
X151008818Y-69379190D01*
X151056960Y-69770934D01*
X151106979Y-70189782D01*
X151158971Y-70636387D01*
X151213031Y-71111407D01*
X151269255Y-71615496D01*
X151294155Y-71841672D01*
X151312032Y-72003866D01*
X151329080Y-72157016D01*
X151345001Y-72298530D01*
X151359493Y-72425818D01*
X151372258Y-72536290D01*
X151382997Y-72627353D01*
X151391409Y-72696417D01*
X151397196Y-72740890D01*
X151400057Y-72758183D01*
X151400126Y-72758296D01*
X151416276Y-72759091D01*
X151454751Y-72756920D01*
X151508011Y-72752547D01*
X151568518Y-72746736D01*
X151628732Y-72740250D01*
X151681116Y-72733854D01*
X151718130Y-72728309D01*
X151732076Y-72724675D01*
X151731476Y-72709012D01*
X151727662Y-72665715D01*
X151720887Y-72597045D01*
X151711406Y-72505261D01*
X151699472Y-72392625D01*
X151685341Y-72261396D01*
X151669265Y-72113835D01*
X151651498Y-71952203D01*
X151632296Y-71778759D01*
X151611913Y-71595764D01*
X151590601Y-71405478D01*
X151568616Y-71210162D01*
X151546211Y-71012075D01*
X151523641Y-70813479D01*
X151501159Y-70616634D01*
X151479020Y-70423800D01*
X151457478Y-70237237D01*
X151436787Y-70059206D01*
X151417201Y-69891966D01*
X151398975Y-69737780D01*
X151382361Y-69598906D01*
X151367615Y-69477605D01*
X151361310Y-69426566D01*
X151310769Y-69026742D01*
X151262151Y-68656070D01*
X151215294Y-68313677D01*
X151170034Y-67998692D01*
X151126209Y-67710244D01*
X151083655Y-67447461D01*
X151042208Y-67209473D01*
X151001706Y-66995407D01*
X150961986Y-66804392D01*
X150922884Y-66635558D01*
X150884236Y-66488031D01*
X150845881Y-66360942D01*
X150807655Y-66253419D01*
X150769394Y-66164590D01*
X150739942Y-66108616D01*
X150696441Y-66045594D01*
X150644409Y-65987782D01*
X150592697Y-65944572D01*
X150575649Y-65934287D01*
X150522880Y-65918462D01*
X150455336Y-65913855D01*
X150386099Y-65920289D01*
G04 #@! TO.C,BT1*
D15*
X200525071Y-99861785D02*
X200572690Y-100004642D01*
X200620309Y-100052261D01*
X200715547Y-100099880D01*
X200858404Y-100099880D01*
X200953642Y-100052261D01*
X201001261Y-100004642D01*
X201048880Y-99909404D01*
X201048880Y-99528452D01*
X200048880Y-99528452D01*
X200048880Y-99861785D01*
X200096500Y-99957023D01*
X200144119Y-100004642D01*
X200239357Y-100052261D01*
X200334595Y-100052261D01*
X200429833Y-100004642D01*
X200477452Y-99957023D01*
X200525071Y-99861785D01*
X200525071Y-99528452D01*
X200048880Y-100385595D02*
X200048880Y-100957023D01*
X201048880Y-100671309D02*
X200048880Y-100671309D01*
X201048880Y-101814166D02*
X201048880Y-101242738D01*
X201048880Y-101528452D02*
X200048880Y-101528452D01*
X200191738Y-101433214D01*
X200286976Y-101337976D01*
X200334595Y-101242738D01*
D16*
X203571904Y-99372857D02*
X202048095Y-99372857D01*
X203571904Y-101872857D02*
X202048095Y-101872857D01*
X202810000Y-102634761D02*
X202810000Y-101110952D01*
G04 #@! TO.C,JP1*
D15*
X157440380Y-96956666D02*
X158154666Y-96956666D01*
X158297523Y-96909047D01*
X158392761Y-96813809D01*
X158440380Y-96670952D01*
X158440380Y-96575714D01*
X158440380Y-97432857D02*
X157440380Y-97432857D01*
X157440380Y-97813809D01*
X157488000Y-97909047D01*
X157535619Y-97956666D01*
X157630857Y-98004285D01*
X157773714Y-98004285D01*
X157868952Y-97956666D01*
X157916571Y-97909047D01*
X157964190Y-97813809D01*
X157964190Y-97432857D01*
X158440380Y-98956666D02*
X158440380Y-98385238D01*
X158440380Y-98670952D02*
X157440380Y-98670952D01*
X157583238Y-98575714D01*
X157678476Y-98480476D01*
X157726095Y-98385238D01*
X156471880Y-104041214D02*
X156471880Y-103469785D01*
X156471880Y-103755500D02*
X155471880Y-103755500D01*
X155614738Y-103660261D01*
X155709976Y-103565023D01*
X155757595Y-103469785D01*
X155471880Y-98222166D02*
X155471880Y-98841214D01*
X155852833Y-98507880D01*
X155852833Y-98650738D01*
X155900452Y-98745976D01*
X155948071Y-98793595D01*
X156043309Y-98841214D01*
X156281404Y-98841214D01*
X156376642Y-98793595D01*
X156424261Y-98745976D01*
X156471880Y-98650738D01*
X156471880Y-98365023D01*
X156424261Y-98269785D01*
X156376642Y-98222166D01*
G04 #@! TO.C,JP2*
X142390880Y-102608166D02*
X143105166Y-102608166D01*
X143248023Y-102560547D01*
X143343261Y-102465309D01*
X143390880Y-102322452D01*
X143390880Y-102227214D01*
X143390880Y-103084357D02*
X142390880Y-103084357D01*
X142390880Y-103465309D01*
X142438500Y-103560547D01*
X142486119Y-103608166D01*
X142581357Y-103655785D01*
X142724214Y-103655785D01*
X142819452Y-103608166D01*
X142867071Y-103560547D01*
X142914690Y-103465309D01*
X142914690Y-103084357D01*
X142486119Y-104036738D02*
X142438500Y-104084357D01*
X142390880Y-104179595D01*
X142390880Y-104417690D01*
X142438500Y-104512928D01*
X142486119Y-104560547D01*
X142581357Y-104608166D01*
X142676595Y-104608166D01*
X142819452Y-104560547D01*
X143390880Y-103989119D01*
X143390880Y-104608166D01*
G04 #@! TO.C,JP3*
X154773380Y-106227666D02*
X155487666Y-106227666D01*
X155630523Y-106180047D01*
X155725761Y-106084809D01*
X155773380Y-105941952D01*
X155773380Y-105846714D01*
X155773380Y-106703857D02*
X154773380Y-106703857D01*
X154773380Y-107084809D01*
X154821000Y-107180047D01*
X154868619Y-107227666D01*
X154963857Y-107275285D01*
X155106714Y-107275285D01*
X155201952Y-107227666D01*
X155249571Y-107180047D01*
X155297190Y-107084809D01*
X155297190Y-106703857D01*
X154773380Y-107608619D02*
X154773380Y-108227666D01*
X155154333Y-107894333D01*
X155154333Y-108037190D01*
X155201952Y-108132428D01*
X155249571Y-108180047D01*
X155344809Y-108227666D01*
X155582904Y-108227666D01*
X155678142Y-108180047D01*
X155725761Y-108132428D01*
X155773380Y-108037190D01*
X155773380Y-107751476D01*
X155725761Y-107656238D01*
X155678142Y-107608619D01*
X153868380Y-101444714D02*
X153868380Y-100873285D01*
X153868380Y-101159000D02*
X152868380Y-101159000D01*
X153011238Y-101063761D01*
X153106476Y-100968523D01*
X153154095Y-100873285D01*
X152868380Y-106025666D02*
X152868380Y-106644714D01*
X153249333Y-106311380D01*
X153249333Y-106454238D01*
X153296952Y-106549476D01*
X153344571Y-106597095D01*
X153439809Y-106644714D01*
X153677904Y-106644714D01*
X153773142Y-106597095D01*
X153820761Y-106549476D01*
X153868380Y-106454238D01*
X153868380Y-106168523D01*
X153820761Y-106073285D01*
X153773142Y-106025666D01*
G04 #@! TD*
M02*
