G04 #@! TF.GenerationSoftware,KiCad,Pcbnew,5.0.2-bee76a0~70~ubuntu16.04.1*
G04 #@! TF.CreationDate,2019-09-22T20:04:43+02:00*
G04 #@! TF.ProjectId,fiscal,66697363-616c-42e6-9b69-6361645f7063,v01*
G04 #@! TF.SameCoordinates,Original*
G04 #@! TF.FileFunction,Legend,Top*
G04 #@! TF.FilePolarity,Positive*
%FSLAX46Y46*%
G04 Gerber Fmt 4.6, Leading zero omitted, Abs format (unit mm)*
G04 Created by KiCad (PCBNEW 5.0.2-bee76a0~70~ubuntu16.04.1) date dom 22 sep 2019 20:04:43 CEST*
%MOMM*%
%LPD*%
G01*
G04 APERTURE LIST*
%ADD10C,0.177800*%
%ADD11C,0.120000*%
%ADD12C,0.500000*%
%ADD13C,0.127000*%
%ADD14C,0.304800*%
%ADD15C,0.300000*%
%ADD16C,0.152400*%
%ADD17C,0.150000*%
G04 APERTURE END LIST*
D10*
X117282141Y-65345128D02*
X116943474Y-65345128D01*
X116943474Y-65877319D02*
X116943474Y-64861319D01*
X117427284Y-64861319D01*
X117814331Y-65877319D02*
X117814331Y-64861319D01*
X118249760Y-65828938D02*
X118394903Y-65877319D01*
X118636808Y-65877319D01*
X118733570Y-65828938D01*
X118781950Y-65780557D01*
X118830331Y-65683795D01*
X118830331Y-65587033D01*
X118781950Y-65490271D01*
X118733570Y-65441890D01*
X118636808Y-65393509D01*
X118443284Y-65345128D01*
X118346522Y-65296747D01*
X118298141Y-65248366D01*
X118249760Y-65151604D01*
X118249760Y-65054842D01*
X118298141Y-64958080D01*
X118346522Y-64909700D01*
X118443284Y-64861319D01*
X118685189Y-64861319D01*
X118830331Y-64909700D01*
X119846331Y-65780557D02*
X119797950Y-65828938D01*
X119652808Y-65877319D01*
X119556046Y-65877319D01*
X119410903Y-65828938D01*
X119314141Y-65732176D01*
X119265760Y-65635414D01*
X119217379Y-65441890D01*
X119217379Y-65296747D01*
X119265760Y-65103223D01*
X119314141Y-65006461D01*
X119410903Y-64909700D01*
X119556046Y-64861319D01*
X119652808Y-64861319D01*
X119797950Y-64909700D01*
X119846331Y-64958080D01*
X120233379Y-65587033D02*
X120717189Y-65587033D01*
X120136617Y-65877319D02*
X120475284Y-64861319D01*
X120813950Y-65877319D01*
X121636427Y-65877319D02*
X121152617Y-65877319D01*
X121152617Y-64861319D01*
X122749189Y-65345128D02*
X123087855Y-65345128D01*
X123232998Y-65877319D02*
X122749189Y-65877319D01*
X122749189Y-64861319D01*
X123232998Y-64861319D01*
X123571665Y-65877319D02*
X124103855Y-65199985D01*
X123571665Y-65199985D02*
X124103855Y-65877319D01*
X124490903Y-65199985D02*
X124490903Y-66215985D01*
X124490903Y-65248366D02*
X124587665Y-65199985D01*
X124781189Y-65199985D01*
X124877950Y-65248366D01*
X124926331Y-65296747D01*
X124974712Y-65393509D01*
X124974712Y-65683795D01*
X124926331Y-65780557D01*
X124877950Y-65828938D01*
X124781189Y-65877319D01*
X124587665Y-65877319D01*
X124490903Y-65828938D01*
X125410141Y-65780557D02*
X125458522Y-65828938D01*
X125410141Y-65877319D01*
X125361760Y-65828938D01*
X125410141Y-65780557D01*
X125410141Y-65877319D01*
X116895093Y-66659880D02*
X116943474Y-66611500D01*
X117040236Y-66563119D01*
X117282141Y-66563119D01*
X117378903Y-66611500D01*
X117427284Y-66659880D01*
X117475665Y-66756642D01*
X117475665Y-66853404D01*
X117427284Y-66998547D01*
X116846712Y-67579119D01*
X117475665Y-67579119D01*
X118104617Y-66563119D02*
X118201379Y-66563119D01*
X118298141Y-66611500D01*
X118346522Y-66659880D01*
X118394903Y-66756642D01*
X118443284Y-66950166D01*
X118443284Y-67192071D01*
X118394903Y-67385595D01*
X118346522Y-67482357D01*
X118298141Y-67530738D01*
X118201379Y-67579119D01*
X118104617Y-67579119D01*
X118007855Y-67530738D01*
X117959474Y-67482357D01*
X117911093Y-67385595D01*
X117862712Y-67192071D01*
X117862712Y-66950166D01*
X117911093Y-66756642D01*
X117959474Y-66659880D01*
X118007855Y-66611500D01*
X118104617Y-66563119D01*
X119410903Y-67579119D02*
X118830331Y-67579119D01*
X119120617Y-67579119D02*
X119120617Y-66563119D01*
X119023855Y-66708261D01*
X118927093Y-66805023D01*
X118830331Y-66853404D01*
X119894712Y-67579119D02*
X120088236Y-67579119D01*
X120184998Y-67530738D01*
X120233379Y-67482357D01*
X120330141Y-67337214D01*
X120378522Y-67143690D01*
X120378522Y-66756642D01*
X120330141Y-66659880D01*
X120281760Y-66611500D01*
X120184998Y-66563119D01*
X119991474Y-66563119D01*
X119894712Y-66611500D01*
X119846331Y-66659880D01*
X119797950Y-66756642D01*
X119797950Y-66998547D01*
X119846331Y-67095309D01*
X119894712Y-67143690D01*
X119991474Y-67192071D01*
X120184998Y-67192071D01*
X120281760Y-67143690D01*
X120330141Y-67095309D01*
X120378522Y-66998547D01*
X121491284Y-66901785D02*
X121733189Y-67579119D01*
X121975093Y-66901785D01*
X122749189Y-67530738D02*
X122652427Y-67579119D01*
X122458903Y-67579119D01*
X122362141Y-67530738D01*
X122313760Y-67433976D01*
X122313760Y-67046928D01*
X122362141Y-66950166D01*
X122458903Y-66901785D01*
X122652427Y-66901785D01*
X122749189Y-66950166D01*
X122797570Y-67046928D01*
X122797570Y-67143690D01*
X122313760Y-67240452D01*
X123232998Y-67579119D02*
X123232998Y-66901785D01*
X123232998Y-67095309D02*
X123281379Y-66998547D01*
X123329760Y-66950166D01*
X123426522Y-66901785D01*
X123523284Y-66901785D01*
X123861950Y-67482357D02*
X123910331Y-67530738D01*
X123861950Y-67579119D01*
X123813570Y-67530738D01*
X123861950Y-67482357D01*
X123861950Y-67579119D01*
X123861950Y-66950166D02*
X123910331Y-66998547D01*
X123861950Y-67046928D01*
X123813570Y-66998547D01*
X123861950Y-66950166D01*
X123861950Y-67046928D01*
X125652046Y-67579119D02*
X125071474Y-67579119D01*
X125361760Y-67579119D02*
X125361760Y-66563119D01*
X125264998Y-66708261D01*
X125168236Y-66805023D01*
X125071474Y-66853404D01*
X116943474Y-68603585D02*
X116943474Y-69619585D01*
X116943474Y-68651966D02*
X117040236Y-68603585D01*
X117233760Y-68603585D01*
X117330522Y-68651966D01*
X117378903Y-68700347D01*
X117427284Y-68797109D01*
X117427284Y-69087395D01*
X117378903Y-69184157D01*
X117330522Y-69232538D01*
X117233760Y-69280919D01*
X117040236Y-69280919D01*
X116943474Y-69232538D01*
X117862712Y-68603585D02*
X117862712Y-69619585D01*
X117862712Y-68651966D02*
X117959474Y-68603585D01*
X118152998Y-68603585D01*
X118249760Y-68651966D01*
X118298141Y-68700347D01*
X118346522Y-68797109D01*
X118346522Y-69087395D01*
X118298141Y-69184157D01*
X118249760Y-69232538D01*
X118152998Y-69280919D01*
X117959474Y-69280919D01*
X117862712Y-69232538D01*
X119217379Y-69280919D02*
X119217379Y-68748728D01*
X119168998Y-68651966D01*
X119072236Y-68603585D01*
X118878712Y-68603585D01*
X118781950Y-68651966D01*
X119217379Y-69232538D02*
X119120617Y-69280919D01*
X118878712Y-69280919D01*
X118781950Y-69232538D01*
X118733570Y-69135776D01*
X118733570Y-69039014D01*
X118781950Y-68942252D01*
X118878712Y-68893871D01*
X119120617Y-68893871D01*
X119217379Y-68845490D01*
X119701189Y-68603585D02*
X119701189Y-69474442D01*
X119652808Y-69571204D01*
X119556046Y-69619585D01*
X119507665Y-69619585D01*
X119701189Y-68264919D02*
X119652808Y-68313300D01*
X119701189Y-68361680D01*
X119749570Y-68313300D01*
X119701189Y-68264919D01*
X119701189Y-68361680D01*
X120620427Y-68603585D02*
X120620427Y-69280919D01*
X120184998Y-68603585D02*
X120184998Y-69135776D01*
X120233379Y-69232538D01*
X120330141Y-69280919D01*
X120475284Y-69280919D01*
X120572046Y-69232538D01*
X120620427Y-69184157D01*
X121491284Y-69232538D02*
X121394522Y-69280919D01*
X121200998Y-69280919D01*
X121104236Y-69232538D01*
X121055855Y-69135776D01*
X121055855Y-68748728D01*
X121104236Y-68651966D01*
X121200998Y-68603585D01*
X121394522Y-68603585D01*
X121491284Y-68651966D01*
X121539665Y-68748728D01*
X121539665Y-68845490D01*
X121055855Y-68942252D01*
X122120236Y-69280919D02*
X122023474Y-69232538D01*
X121975093Y-69135776D01*
X121975093Y-68264919D01*
D11*
G04 #@! TO.C,C21*
X156102233Y-67181000D02*
X156444767Y-67181000D01*
X156102233Y-68201000D02*
X156444767Y-68201000D01*
G04 #@! TO.C,R31*
X183894000Y-69576767D02*
X183894000Y-69234233D01*
X184914000Y-69576767D02*
X184914000Y-69234233D01*
G04 #@! TO.C,R32*
X184914000Y-66084267D02*
X184914000Y-65741733D01*
X183894000Y-66084267D02*
X183894000Y-65741733D01*
G04 #@! TO.C,R39*
X159594733Y-67181000D02*
X159937267Y-67181000D01*
X159594733Y-68201000D02*
X159937267Y-68201000D01*
G04 #@! TO.C,R8*
X187293500Y-86895000D02*
X187293500Y-87225000D01*
X193833500Y-86895000D02*
X187293500Y-86895000D01*
X193833500Y-87225000D02*
X193833500Y-86895000D01*
X187293500Y-89635000D02*
X187293500Y-89305000D01*
X193833500Y-89635000D02*
X187293500Y-89635000D01*
X193833500Y-89305000D02*
X193833500Y-89635000D01*
G04 #@! TO.C,C5*
X201911000Y-65233500D02*
X199561000Y-65233500D01*
X195091000Y-65233500D02*
X197441000Y-65233500D01*
X195091000Y-70989063D02*
X195091000Y-65233500D01*
X201911000Y-70989063D02*
X201911000Y-65233500D01*
X200846563Y-72053500D02*
X199561000Y-72053500D01*
X196155437Y-72053500D02*
X197441000Y-72053500D01*
X196155437Y-72053500D02*
X195091000Y-70989063D01*
X200846563Y-72053500D02*
X201911000Y-70989063D01*
X196653500Y-73081000D02*
X196653500Y-72293500D01*
X196259750Y-72687250D02*
X197047250Y-72687250D01*
G04 #@! TO.C,C6*
X178795750Y-87585250D02*
X178795750Y-86797750D01*
X179189500Y-87191500D02*
X178402000Y-87191500D01*
X178162000Y-82998437D02*
X177097563Y-81934000D01*
X178162000Y-87689563D02*
X177097563Y-88754000D01*
X178162000Y-87689563D02*
X178162000Y-86404000D01*
X178162000Y-82998437D02*
X178162000Y-84284000D01*
X177097563Y-81934000D02*
X171342000Y-81934000D01*
X177097563Y-88754000D02*
X171342000Y-88754000D01*
X171342000Y-88754000D02*
X171342000Y-86404000D01*
X171342000Y-81934000D02*
X171342000Y-84284000D01*
G04 #@! TO.C,C1*
X192640000Y-65233500D02*
X190290000Y-65233500D01*
X185820000Y-65233500D02*
X188170000Y-65233500D01*
X185820000Y-70989063D02*
X185820000Y-65233500D01*
X192640000Y-70989063D02*
X192640000Y-65233500D01*
X191575563Y-72053500D02*
X190290000Y-72053500D01*
X186884437Y-72053500D02*
X188170000Y-72053500D01*
X186884437Y-72053500D02*
X185820000Y-70989063D01*
X191575563Y-72053500D02*
X192640000Y-70989063D01*
X187382500Y-73081000D02*
X187382500Y-72293500D01*
X186988750Y-72687250D02*
X187776250Y-72687250D01*
G04 #@! TO.C,C22*
X139720250Y-103676750D02*
X139720250Y-104464250D01*
X139326500Y-104070500D02*
X140114000Y-104070500D01*
X140354000Y-108263563D02*
X141418437Y-109328000D01*
X140354000Y-103572437D02*
X141418437Y-102508000D01*
X140354000Y-103572437D02*
X140354000Y-104858000D01*
X140354000Y-108263563D02*
X140354000Y-106978000D01*
X141418437Y-109328000D02*
X147174000Y-109328000D01*
X141418437Y-102508000D02*
X147174000Y-102508000D01*
X147174000Y-102508000D02*
X147174000Y-104858000D01*
X147174000Y-109328000D02*
X147174000Y-106978000D01*
G04 #@! TO.C,C10*
X152254000Y-76689000D02*
X152254000Y-74339000D01*
X152254000Y-69869000D02*
X152254000Y-72219000D01*
X146498437Y-69869000D02*
X152254000Y-69869000D01*
X146498437Y-76689000D02*
X152254000Y-76689000D01*
X145434000Y-75624563D02*
X145434000Y-74339000D01*
X145434000Y-70933437D02*
X145434000Y-72219000D01*
X145434000Y-70933437D02*
X146498437Y-69869000D01*
X145434000Y-75624563D02*
X146498437Y-76689000D01*
X144406500Y-71431500D02*
X145194000Y-71431500D01*
X144800250Y-71037750D02*
X144800250Y-71825250D01*
G04 #@! TO.C,C13*
X164317750Y-75520250D02*
X164317750Y-74732750D01*
X164711500Y-75126500D02*
X163924000Y-75126500D01*
X163684000Y-70933437D02*
X162619563Y-69869000D01*
X163684000Y-75624563D02*
X162619563Y-76689000D01*
X163684000Y-75624563D02*
X163684000Y-74339000D01*
X163684000Y-70933437D02*
X163684000Y-72219000D01*
X162619563Y-69869000D02*
X156864000Y-69869000D01*
X162619563Y-76689000D02*
X156864000Y-76689000D01*
X156864000Y-76689000D02*
X156864000Y-74339000D01*
X156864000Y-69869000D02*
X156864000Y-72219000D01*
G04 #@! TO.C,C14*
X117748000Y-80245000D02*
X120098000Y-80245000D01*
X124568000Y-80245000D02*
X122218000Y-80245000D01*
X124568000Y-74489437D02*
X124568000Y-80245000D01*
X117748000Y-74489437D02*
X117748000Y-80245000D01*
X118812437Y-73425000D02*
X120098000Y-73425000D01*
X123503563Y-73425000D02*
X122218000Y-73425000D01*
X123503563Y-73425000D02*
X124568000Y-74489437D01*
X118812437Y-73425000D02*
X117748000Y-74489437D01*
X123005500Y-72397500D02*
X123005500Y-73185000D01*
X123399250Y-72791250D02*
X122611750Y-72791250D01*
G04 #@! TO.C,C19*
X161564250Y-96056750D02*
X161564250Y-96844250D01*
X161170500Y-96450500D02*
X161958000Y-96450500D01*
X162198000Y-100643563D02*
X163262437Y-101708000D01*
X162198000Y-95952437D02*
X163262437Y-94888000D01*
X162198000Y-95952437D02*
X162198000Y-97238000D01*
X162198000Y-100643563D02*
X162198000Y-99358000D01*
X163262437Y-101708000D02*
X169018000Y-101708000D01*
X163262437Y-94888000D02*
X169018000Y-94888000D01*
X169018000Y-94888000D02*
X169018000Y-97238000D01*
X169018000Y-101708000D02*
X169018000Y-99358000D01*
G04 #@! TO.C,C25*
X205632000Y-76346000D02*
X205632000Y-78696000D01*
X205632000Y-83166000D02*
X205632000Y-80816000D01*
X211387563Y-83166000D02*
X205632000Y-83166000D01*
X211387563Y-76346000D02*
X205632000Y-76346000D01*
X212452000Y-77410437D02*
X212452000Y-78696000D01*
X212452000Y-82101563D02*
X212452000Y-80816000D01*
X212452000Y-82101563D02*
X211387563Y-83166000D01*
X212452000Y-77410437D02*
X211387563Y-76346000D01*
X213479500Y-81603500D02*
X212692000Y-81603500D01*
X213085750Y-81997250D02*
X213085750Y-81209750D01*
G04 #@! TO.C,C30*
X132060210Y-103126790D02*
X132847710Y-103126790D01*
X132453960Y-103520540D02*
X132453960Y-102733040D01*
X136647023Y-102493040D02*
X137711460Y-101428603D01*
X131955897Y-102493040D02*
X130891460Y-101428603D01*
X131955897Y-102493040D02*
X133241460Y-102493040D01*
X136647023Y-102493040D02*
X135361460Y-102493040D01*
X137711460Y-101428603D02*
X137711460Y-95673040D01*
X130891460Y-101428603D02*
X130891460Y-95673040D01*
X130891460Y-95673040D02*
X133241460Y-95673040D01*
X137711460Y-95673040D02*
X135361460Y-95673040D01*
G04 #@! TO.C,C12*
X147656500Y-89135000D02*
X150006500Y-89135000D01*
X154476500Y-89135000D02*
X152126500Y-89135000D01*
X154476500Y-83379437D02*
X154476500Y-89135000D01*
X147656500Y-83379437D02*
X147656500Y-89135000D01*
X148720937Y-82315000D02*
X150006500Y-82315000D01*
X153412063Y-82315000D02*
X152126500Y-82315000D01*
X153412063Y-82315000D02*
X154476500Y-83379437D01*
X148720937Y-82315000D02*
X147656500Y-83379437D01*
X152914000Y-81287500D02*
X152914000Y-82075000D01*
X153307750Y-81681250D02*
X152520250Y-81681250D01*
G04 #@! TO.C,BZ1*
X228340000Y-107950000D02*
G75*
G03X228340000Y-107950000I-6100000J0D01*
G01*
G04 #@! TO.C,BZ2*
X228340000Y-69850000D02*
G75*
G03X228340000Y-69850000I-6100000J0D01*
G01*
G04 #@! TO.C,C2*
X177113000Y-79137252D02*
X177113000Y-78614748D01*
X175693000Y-79137252D02*
X175693000Y-78614748D01*
G04 #@! TO.C,C3*
X193355500Y-68154733D02*
X193355500Y-68497267D01*
X194375500Y-68154733D02*
X194375500Y-68497267D01*
G04 #@! TO.C,C4*
X179653000Y-79137252D02*
X179653000Y-78614748D01*
X178233000Y-79137252D02*
X178233000Y-78614748D01*
G04 #@! TO.C,C7*
X148709748Y-93039000D02*
X149232252Y-93039000D01*
X148709748Y-91619000D02*
X149232252Y-91619000D01*
G04 #@! TO.C,C8*
X141993252Y-91619000D02*
X141470748Y-91619000D01*
X141993252Y-93039000D02*
X141470748Y-93039000D01*
G04 #@! TO.C,C9*
X153042252Y-91619000D02*
X152519748Y-91619000D01*
X153042252Y-93039000D02*
X152519748Y-93039000D01*
G04 #@! TO.C,C11*
X141776267Y-67816000D02*
X141433733Y-67816000D01*
X141776267Y-68836000D02*
X141433733Y-68836000D01*
G04 #@! TO.C,C15*
X218078233Y-95315500D02*
X218420767Y-95315500D01*
X218078233Y-94295500D02*
X218420767Y-94295500D01*
G04 #@! TO.C,C16*
X213697000Y-101825000D02*
X212447000Y-101825000D01*
X213072000Y-101200000D02*
X213072000Y-102450000D01*
X206116437Y-102690000D02*
X205052000Y-103754437D01*
X214507563Y-102690000D02*
X215572000Y-103754437D01*
X214507563Y-102690000D02*
X211822000Y-102690000D01*
X206116437Y-102690000D02*
X208802000Y-102690000D01*
X205052000Y-103754437D02*
X205052000Y-113210000D01*
X215572000Y-103754437D02*
X215572000Y-113210000D01*
X215572000Y-113210000D02*
X211822000Y-113210000D01*
X205052000Y-113210000D02*
X208802000Y-113210000D01*
G04 #@! TO.C,C17*
X118662267Y-89914000D02*
X118319733Y-89914000D01*
X118662267Y-90934000D02*
X118319733Y-90934000D01*
G04 #@! TO.C,C18*
X129805500Y-93860252D02*
X129805500Y-93337748D01*
X128385500Y-93860252D02*
X128385500Y-93337748D01*
G04 #@! TO.C,C20*
X158070733Y-96014000D02*
X158413267Y-96014000D01*
X158070733Y-94994000D02*
X158413267Y-94994000D01*
G04 #@! TO.C,C23*
X162223267Y-106932000D02*
X161880733Y-106932000D01*
X162223267Y-107952000D02*
X161880733Y-107952000D01*
G04 #@! TO.C,C24*
X215653252Y-74220000D02*
X215130748Y-74220000D01*
X215653252Y-75640000D02*
X215130748Y-75640000D01*
G04 #@! TO.C,C26*
X220470000Y-95586733D02*
X220470000Y-95929267D01*
X221490000Y-95586733D02*
X221490000Y-95929267D01*
G04 #@! TO.C,C28*
X126155267Y-109218000D02*
X125812733Y-109218000D01*
X126155267Y-110238000D02*
X125812733Y-110238000D01*
G04 #@! TO.C,C29*
X129288000Y-99358267D02*
X129288000Y-99015733D01*
X128268000Y-99358267D02*
X128268000Y-99015733D01*
G04 #@! TO.C,D1*
X220047500Y-81047000D02*
X220047500Y-77957000D01*
X219987500Y-79502000D02*
G75*
G03X219987500Y-79502000I-2500000J0D01*
G01*
X214497500Y-79502462D02*
G75*
G02X220047500Y-77957170I2990000J462D01*
G01*
X214497500Y-79501538D02*
G75*
G03X220047500Y-81046830I2990000J-462D01*
G01*
G04 #@! TO.C,D2*
X159375500Y-88935000D02*
X162315500Y-88935000D01*
X159375500Y-88695000D02*
X162315500Y-88695000D01*
X159375500Y-88815000D02*
X162315500Y-88815000D01*
X160845500Y-83255000D02*
X160845500Y-84275000D01*
X160845500Y-90735000D02*
X160845500Y-89715000D01*
X159375500Y-84275000D02*
X159375500Y-89715000D01*
X162315500Y-84275000D02*
X159375500Y-84275000D01*
X162315500Y-89715000D02*
X162315500Y-84275000D01*
X159375500Y-89715000D02*
X162315500Y-89715000D01*
G04 #@! TO.C,D3*
X158124500Y-85055000D02*
X155184500Y-85055000D01*
X158124500Y-85295000D02*
X155184500Y-85295000D01*
X158124500Y-85175000D02*
X155184500Y-85175000D01*
X156654500Y-90735000D02*
X156654500Y-89715000D01*
X156654500Y-83255000D02*
X156654500Y-84275000D01*
X158124500Y-89715000D02*
X158124500Y-84275000D01*
X155184500Y-89715000D02*
X158124500Y-89715000D01*
X155184500Y-84275000D02*
X155184500Y-89715000D01*
X158124500Y-84275000D02*
X155184500Y-84275000D01*
G04 #@! TO.C,D4*
X132661000Y-71847000D02*
X129721000Y-71847000D01*
X132661000Y-72087000D02*
X129721000Y-72087000D01*
X132661000Y-71967000D02*
X129721000Y-71967000D01*
X131191000Y-77527000D02*
X131191000Y-76507000D01*
X131191000Y-70047000D02*
X131191000Y-71067000D01*
X132661000Y-76507000D02*
X132661000Y-71067000D01*
X129721000Y-76507000D02*
X132661000Y-76507000D01*
X129721000Y-71067000D02*
X129721000Y-76507000D01*
X132661000Y-71067000D02*
X129721000Y-71067000D01*
G04 #@! TO.C,D5*
X136706000Y-88935000D02*
X139646000Y-88935000D01*
X136706000Y-88695000D02*
X139646000Y-88695000D01*
X136706000Y-88815000D02*
X139646000Y-88815000D01*
X138176000Y-83255000D02*
X138176000Y-84275000D01*
X138176000Y-90735000D02*
X138176000Y-89715000D01*
X136706000Y-84275000D02*
X136706000Y-89715000D01*
X139646000Y-84275000D02*
X136706000Y-84275000D01*
X139646000Y-89715000D02*
X139646000Y-84275000D01*
X136706000Y-89715000D02*
X139646000Y-89715000D01*
G04 #@! TO.C,D6*
X135836000Y-85055000D02*
X132896000Y-85055000D01*
X135836000Y-85295000D02*
X132896000Y-85295000D01*
X135836000Y-85175000D02*
X132896000Y-85175000D01*
X134366000Y-90735000D02*
X134366000Y-89715000D01*
X134366000Y-83255000D02*
X134366000Y-84275000D01*
X135836000Y-89715000D02*
X135836000Y-84275000D01*
X132896000Y-89715000D02*
X135836000Y-89715000D01*
X132896000Y-84275000D02*
X132896000Y-89715000D01*
X135836000Y-84275000D02*
X132896000Y-84275000D01*
G04 #@! TO.C,D7*
X126292000Y-75727000D02*
X129232000Y-75727000D01*
X126292000Y-75487000D02*
X129232000Y-75487000D01*
X126292000Y-75607000D02*
X129232000Y-75607000D01*
X127762000Y-70047000D02*
X127762000Y-71067000D01*
X127762000Y-77527000D02*
X127762000Y-76507000D01*
X126292000Y-71067000D02*
X126292000Y-76507000D01*
X129232000Y-71067000D02*
X126292000Y-71067000D01*
X129232000Y-76507000D02*
X129232000Y-71067000D01*
X126292000Y-76507000D02*
X129232000Y-76507000D01*
G04 #@! TO.C,D8*
X212760000Y-87830000D02*
X212760000Y-84890000D01*
X212520000Y-87830000D02*
X212520000Y-84890000D01*
X212640000Y-87830000D02*
X212640000Y-84890000D01*
X207080000Y-86360000D02*
X208100000Y-86360000D01*
X214560000Y-86360000D02*
X213540000Y-86360000D01*
X208100000Y-87830000D02*
X213540000Y-87830000D01*
X208100000Y-84890000D02*
X208100000Y-87830000D01*
X213540000Y-84890000D02*
X208100000Y-84890000D01*
X213540000Y-87830000D02*
X213540000Y-84890000D01*
D12*
G04 #@! TO.C,H1*
X171470000Y-114170000D02*
X204470000Y-114170000D01*
X171470000Y-90170000D02*
X204470000Y-90170000D01*
X171470000Y-90170000D02*
X171470000Y-114170000D01*
X204470000Y-90170000D02*
X204470000Y-114170000D01*
D13*
G04 #@! TO.C,J1*
X180165000Y-61311000D02*
X174165000Y-61311000D01*
X181665000Y-63311000D02*
X180165000Y-63311000D01*
X180165000Y-63311000D02*
X174165000Y-63311000D01*
X174165000Y-63311000D02*
X172665000Y-63311000D01*
X183165000Y-76311000D02*
X171165000Y-76311000D01*
X181665000Y-64111000D02*
X183165000Y-64111000D01*
X183165000Y-64111000D02*
X183165000Y-76311000D01*
X171165000Y-76311000D02*
X171165000Y-64111000D01*
X171165000Y-64111000D02*
X172665000Y-64111000D01*
X180165000Y-61311000D02*
X180165000Y-63311000D01*
X174165000Y-61311000D02*
X174165000Y-63311000D01*
X181665000Y-63311000D02*
X181665000Y-64111000D01*
X172665000Y-64111000D02*
X172665000Y-63311000D01*
D14*
X184123000Y-67921000D02*
G75*
G03X184123000Y-67921000I-100000J0D01*
G01*
D11*
G04 #@! TO.C,J2*
X170240000Y-64770000D02*
X170240000Y-66100000D01*
X170240000Y-66100000D02*
X168910000Y-66100000D01*
X167640000Y-66100000D02*
X142180000Y-66100000D01*
X142180000Y-63440000D02*
X142180000Y-66100000D01*
X167640000Y-63440000D02*
X142180000Y-63440000D01*
X167640000Y-63440000D02*
X167640000Y-66100000D01*
G04 #@! TO.C,J3*
X170240000Y-113030000D02*
X170240000Y-114360000D01*
X170240000Y-114360000D02*
X168910000Y-114360000D01*
X167640000Y-114360000D02*
X142180000Y-114360000D01*
X142180000Y-111700000D02*
X142180000Y-114360000D01*
X167640000Y-111700000D02*
X142180000Y-111700000D01*
X167640000Y-111700000D02*
X167640000Y-114360000D01*
D13*
G04 #@! TO.C,MK1*
X227100000Y-88900000D02*
G75*
G03X227100000Y-88900000I-4850000J0D01*
G01*
D15*
X227793000Y-90641000D02*
G75*
G03X227793000Y-90641000I-100000J0D01*
G01*
D11*
G04 #@! TO.C,Q1*
X226628478Y-100898478D02*
G75*
G03X224790000Y-96460000I-1838478J1838478D01*
G01*
X222951522Y-100898478D02*
G75*
G02X224790000Y-96460000I1838478J1838478D01*
G01*
X222990000Y-100910000D02*
X226590000Y-100910000D01*
G04 #@! TO.C,Q2*
X222951522Y-79441522D02*
G75*
G03X224790000Y-83880000I1838478J-1838478D01*
G01*
X226628478Y-79441522D02*
G75*
G02X224790000Y-83880000I-1838478J-1838478D01*
G01*
X226590000Y-79430000D02*
X222990000Y-79430000D01*
G04 #@! TO.C,Q3*
X165420522Y-93024478D02*
G75*
G03X169859000Y-91186000I1838478J1838478D01*
G01*
X165420522Y-89347522D02*
G75*
G02X169859000Y-91186000I1838478J-1838478D01*
G01*
X165409000Y-89386000D02*
X165409000Y-92986000D01*
G04 #@! TO.C,Q4*
X140084022Y-87372978D02*
G75*
G03X144522500Y-85534500I1838478J1838478D01*
G01*
X140084022Y-83696022D02*
G75*
G02X144522500Y-85534500I1838478J-1838478D01*
G01*
X140072500Y-83734500D02*
X140072500Y-87334500D01*
G04 #@! TO.C,R1*
X218420767Y-97026000D02*
X218078233Y-97026000D01*
X218420767Y-98046000D02*
X218078233Y-98046000D01*
G04 #@! TO.C,R2*
X218078233Y-100776500D02*
X218420767Y-100776500D01*
X218078233Y-99756500D02*
X218420767Y-99756500D01*
G04 #@! TO.C,R3*
X222650233Y-78932500D02*
X222992767Y-78932500D01*
X222650233Y-77912500D02*
X222992767Y-77912500D01*
G04 #@! TO.C,R4*
X222650233Y-77408500D02*
X222992767Y-77408500D01*
X222650233Y-76388500D02*
X222992767Y-76388500D01*
G04 #@! TO.C,R5*
X184377000Y-81629500D02*
X184047000Y-81629500D01*
X184377000Y-88169500D02*
X184377000Y-81629500D01*
X184047000Y-88169500D02*
X184377000Y-88169500D01*
X181637000Y-81629500D02*
X181967000Y-81629500D01*
X181637000Y-88169500D02*
X181637000Y-81629500D01*
X181967000Y-88169500D02*
X181637000Y-88169500D01*
G04 #@! TO.C,R6*
X187293500Y-83720000D02*
X187293500Y-84050000D01*
X193833500Y-83720000D02*
X187293500Y-83720000D01*
X193833500Y-84050000D02*
X193833500Y-83720000D01*
X187293500Y-86460000D02*
X187293500Y-86130000D01*
X193833500Y-86460000D02*
X187293500Y-86460000D01*
X193833500Y-86130000D02*
X193833500Y-86460000D01*
G04 #@! TO.C,R7*
X181819733Y-78361000D02*
X182162267Y-78361000D01*
X181819733Y-77341000D02*
X182162267Y-77341000D01*
G04 #@! TO.C,R9*
X216184267Y-83310000D02*
X215841733Y-83310000D01*
X216184267Y-84330000D02*
X215841733Y-84330000D01*
G04 #@! TO.C,R10*
X149650267Y-67181000D02*
X149307733Y-67181000D01*
X149650267Y-68201000D02*
X149307733Y-68201000D01*
G04 #@! TO.C,R11*
X154730267Y-69467000D02*
X154387733Y-69467000D01*
X154730267Y-70487000D02*
X154387733Y-70487000D01*
G04 #@! TO.C,R12*
X203046000Y-77248000D02*
X202716000Y-77248000D01*
X203046000Y-83788000D02*
X203046000Y-77248000D01*
X202716000Y-83788000D02*
X203046000Y-83788000D01*
X200306000Y-77248000D02*
X200636000Y-77248000D01*
X200306000Y-83788000D02*
X200306000Y-77248000D01*
X200636000Y-83788000D02*
X200306000Y-83788000D01*
G04 #@! TO.C,R13*
X173018267Y-77341000D02*
X172675733Y-77341000D01*
X173018267Y-78361000D02*
X172675733Y-78361000D01*
G04 #@! TO.C,R14*
X220470000Y-99142733D02*
X220470000Y-99485267D01*
X221490000Y-99142733D02*
X221490000Y-99485267D01*
G04 #@! TO.C,R15*
X227586000Y-77655267D02*
X227586000Y-77312733D01*
X226566000Y-77655267D02*
X226566000Y-77312733D01*
G04 #@! TO.C,R16*
X166016000Y-86709000D02*
X166346000Y-86709000D01*
X166016000Y-80169000D02*
X166016000Y-86709000D01*
X166346000Y-80169000D02*
X166016000Y-80169000D01*
X168756000Y-86709000D02*
X168426000Y-86709000D01*
X168756000Y-80169000D02*
X168756000Y-86709000D01*
X168426000Y-80169000D02*
X168756000Y-80169000D01*
G04 #@! TO.C,R17*
X196750000Y-83788000D02*
X197080000Y-83788000D01*
X196750000Y-77248000D02*
X196750000Y-83788000D01*
X197080000Y-77248000D02*
X196750000Y-77248000D01*
X199490000Y-83788000D02*
X199160000Y-83788000D01*
X199490000Y-77248000D02*
X199490000Y-83788000D01*
X199160000Y-77248000D02*
X199490000Y-77248000D01*
G04 #@! TO.C,R18*
X168756000Y-70263000D02*
X168426000Y-70263000D01*
X168756000Y-76803000D02*
X168756000Y-70263000D01*
X168426000Y-76803000D02*
X168756000Y-76803000D01*
X166016000Y-70263000D02*
X166346000Y-70263000D01*
X166016000Y-76803000D02*
X166016000Y-70263000D01*
X166346000Y-76803000D02*
X166016000Y-76803000D01*
G04 #@! TO.C,R19*
X145180233Y-93093000D02*
X145522767Y-93093000D01*
X145180233Y-92073000D02*
X145522767Y-92073000D01*
G04 #@! TO.C,R20*
X163955000Y-92094233D02*
X163955000Y-92436767D01*
X164975000Y-92094233D02*
X164975000Y-92436767D01*
G04 #@! TO.C,R21*
X141814733Y-91061000D02*
X142157267Y-91061000D01*
X141814733Y-90041000D02*
X142157267Y-90041000D01*
G04 #@! TO.C,R22*
X145540000Y-84283733D02*
X145540000Y-84626267D01*
X146560000Y-84283733D02*
X146560000Y-84626267D01*
G04 #@! TO.C,R23*
X145540000Y-87839733D02*
X145540000Y-88182267D01*
X146560000Y-87839733D02*
X146560000Y-88182267D01*
G04 #@! TO.C,R24*
X141370233Y-82488500D02*
X141712767Y-82488500D01*
X141370233Y-81468500D02*
X141712767Y-81468500D01*
G04 #@! TO.C,R25*
X138283767Y-67816000D02*
X137941233Y-67816000D01*
X138283767Y-68836000D02*
X137941233Y-68836000D01*
G04 #@! TO.C,R26*
X145116733Y-79440500D02*
X145459267Y-79440500D01*
X145116733Y-78420500D02*
X145459267Y-78420500D01*
G04 #@! TO.C,R27*
X117634000Y-86260000D02*
X117634000Y-86590000D01*
X124174000Y-86260000D02*
X117634000Y-86260000D01*
X124174000Y-86590000D02*
X124174000Y-86260000D01*
X117634000Y-89000000D02*
X117634000Y-88670000D01*
X124174000Y-89000000D02*
X117634000Y-89000000D01*
X124174000Y-88670000D02*
X124174000Y-89000000D01*
G04 #@! TO.C,R28*
X124174000Y-85698000D02*
X124174000Y-85368000D01*
X117634000Y-85698000D02*
X124174000Y-85698000D01*
X117634000Y-85368000D02*
X117634000Y-85698000D01*
X124174000Y-82958000D02*
X124174000Y-83288000D01*
X117634000Y-82958000D02*
X124174000Y-82958000D01*
X117634000Y-83288000D02*
X117634000Y-82958000D01*
G04 #@! TO.C,R29*
X128878000Y-83471000D02*
X128548000Y-83471000D01*
X128878000Y-90011000D02*
X128878000Y-83471000D01*
X128548000Y-90011000D02*
X128878000Y-90011000D01*
X126138000Y-83471000D02*
X126468000Y-83471000D01*
X126138000Y-90011000D02*
X126138000Y-83471000D01*
X126468000Y-90011000D02*
X126138000Y-90011000D01*
G04 #@! TO.C,R30*
X129313000Y-90011000D02*
X129643000Y-90011000D01*
X129313000Y-83471000D02*
X129313000Y-90011000D01*
X129643000Y-83471000D02*
X129313000Y-83471000D01*
X132053000Y-90011000D02*
X131723000Y-90011000D01*
X132053000Y-83471000D02*
X132053000Y-90011000D01*
X131723000Y-83471000D02*
X132053000Y-83471000D01*
G04 #@! TO.C,R33*
X140748000Y-94388000D02*
X140748000Y-94718000D01*
X147288000Y-94388000D02*
X140748000Y-94388000D01*
X147288000Y-94718000D02*
X147288000Y-94388000D01*
X140748000Y-97128000D02*
X140748000Y-96798000D01*
X147288000Y-97128000D02*
X140748000Y-97128000D01*
X147288000Y-96798000D02*
X147288000Y-97128000D01*
G04 #@! TO.C,R34*
X140748000Y-97436000D02*
X140748000Y-97766000D01*
X147288000Y-97436000D02*
X140748000Y-97436000D01*
X147288000Y-97766000D02*
X147288000Y-97436000D01*
X140748000Y-100176000D02*
X140748000Y-99846000D01*
X147288000Y-100176000D02*
X140748000Y-100176000D01*
X147288000Y-99846000D02*
X147288000Y-100176000D01*
G04 #@! TO.C,R35*
X162084000Y-103532000D02*
X162084000Y-103862000D01*
X168624000Y-103532000D02*
X162084000Y-103532000D01*
X168624000Y-103862000D02*
X168624000Y-103532000D01*
X162084000Y-106272000D02*
X162084000Y-105942000D01*
X168624000Y-106272000D02*
X162084000Y-106272000D01*
X168624000Y-105942000D02*
X168624000Y-106272000D01*
G04 #@! TO.C,R36*
X129826000Y-104548000D02*
X129826000Y-104878000D01*
X136366000Y-104548000D02*
X129826000Y-104548000D01*
X136366000Y-104878000D02*
X136366000Y-104548000D01*
X129826000Y-107288000D02*
X129826000Y-106958000D01*
X136366000Y-107288000D02*
X129826000Y-107288000D01*
X136366000Y-106958000D02*
X136366000Y-107288000D01*
G04 #@! TO.C,R37*
X129826000Y-107596000D02*
X129826000Y-107926000D01*
X136366000Y-107596000D02*
X129826000Y-107596000D01*
X136366000Y-107926000D02*
X136366000Y-107596000D01*
X129826000Y-110336000D02*
X129826000Y-110006000D01*
X136366000Y-110336000D02*
X129826000Y-110336000D01*
X136366000Y-110006000D02*
X136366000Y-110336000D01*
G04 #@! TO.C,R38*
X223285233Y-95315500D02*
X223627767Y-95315500D01*
X223285233Y-94295500D02*
X223627767Y-94295500D01*
G04 #@! TO.C,R41*
X173018267Y-79373000D02*
X172675733Y-79373000D01*
X173018267Y-80393000D02*
X172675733Y-80393000D01*
G04 #@! TO.C,R42*
X155069000Y-75355267D02*
X155069000Y-75012733D01*
X154049000Y-75355267D02*
X154049000Y-75012733D01*
G04 #@! TO.C,R43*
X152063267Y-94994000D02*
X151720733Y-94994000D01*
X152063267Y-96014000D02*
X151720733Y-96014000D01*
G04 #@! TO.C,RV1*
X209562030Y-74374357D02*
G75*
G02X205679000Y-72766000I-92030J5269357D01*
G01*
X204355609Y-70379881D02*
G75*
G02X204296000Y-68099000I5114391J1274881D01*
G01*
X205433379Y-65716525D02*
G75*
G02X214584000Y-67831000I4036621J-3388475D01*
G01*
X214509726Y-70645799D02*
G75*
G02X209470000Y-74375000I-5039726J1540799D01*
G01*
G04 #@! TO.C,SW1*
X210988667Y-91440000D02*
X210988667Y-90170000D01*
X212342000Y-90240000D02*
X210988667Y-90240000D01*
X212342000Y-90360000D02*
X210988667Y-90360000D01*
X212342000Y-90480000D02*
X210988667Y-90480000D01*
X212342000Y-90600000D02*
X210988667Y-90600000D01*
X212342000Y-90720000D02*
X210988667Y-90720000D01*
X212342000Y-90840000D02*
X210988667Y-90840000D01*
X212342000Y-90960000D02*
X210988667Y-90960000D01*
X212342000Y-91080000D02*
X210988667Y-91080000D01*
X212342000Y-91200000D02*
X210988667Y-91200000D01*
X212342000Y-91320000D02*
X210988667Y-91320000D01*
X208282000Y-91440000D02*
X212342000Y-91440000D01*
X208282000Y-90170000D02*
X208282000Y-91440000D01*
X212342000Y-90170000D02*
X208282000Y-90170000D01*
X212342000Y-91440000D02*
X212342000Y-90170000D01*
X210988667Y-93980000D02*
X210988667Y-92710000D01*
X212342000Y-92780000D02*
X210988667Y-92780000D01*
X212342000Y-92900000D02*
X210988667Y-92900000D01*
X212342000Y-93020000D02*
X210988667Y-93020000D01*
X212342000Y-93140000D02*
X210988667Y-93140000D01*
X212342000Y-93260000D02*
X210988667Y-93260000D01*
X212342000Y-93380000D02*
X210988667Y-93380000D01*
X212342000Y-93500000D02*
X210988667Y-93500000D01*
X212342000Y-93620000D02*
X210988667Y-93620000D01*
X212342000Y-93740000D02*
X210988667Y-93740000D01*
X212342000Y-93860000D02*
X210988667Y-93860000D01*
X208282000Y-93980000D02*
X212342000Y-93980000D01*
X208282000Y-92710000D02*
X208282000Y-93980000D01*
X212342000Y-92710000D02*
X208282000Y-92710000D01*
X212342000Y-93980000D02*
X212342000Y-92710000D01*
X210988667Y-96520000D02*
X210988667Y-95250000D01*
X212342000Y-95320000D02*
X210988667Y-95320000D01*
X212342000Y-95440000D02*
X210988667Y-95440000D01*
X212342000Y-95560000D02*
X210988667Y-95560000D01*
X212342000Y-95680000D02*
X210988667Y-95680000D01*
X212342000Y-95800000D02*
X210988667Y-95800000D01*
X212342000Y-95920000D02*
X210988667Y-95920000D01*
X212342000Y-96040000D02*
X210988667Y-96040000D01*
X212342000Y-96160000D02*
X210988667Y-96160000D01*
X212342000Y-96280000D02*
X210988667Y-96280000D01*
X212342000Y-96400000D02*
X210988667Y-96400000D01*
X208282000Y-96520000D02*
X212342000Y-96520000D01*
X208282000Y-95250000D02*
X208282000Y-96520000D01*
X212342000Y-95250000D02*
X208282000Y-95250000D01*
X212342000Y-96520000D02*
X212342000Y-95250000D01*
X210988667Y-99060000D02*
X210988667Y-97790000D01*
X212342000Y-97860000D02*
X210988667Y-97860000D01*
X212342000Y-97980000D02*
X210988667Y-97980000D01*
X212342000Y-98100000D02*
X210988667Y-98100000D01*
X212342000Y-98220000D02*
X210988667Y-98220000D01*
X212342000Y-98340000D02*
X210988667Y-98340000D01*
X212342000Y-98460000D02*
X210988667Y-98460000D01*
X212342000Y-98580000D02*
X210988667Y-98580000D01*
X212342000Y-98700000D02*
X210988667Y-98700000D01*
X212342000Y-98820000D02*
X210988667Y-98820000D01*
X212342000Y-98940000D02*
X210988667Y-98940000D01*
X208282000Y-99060000D02*
X212342000Y-99060000D01*
X208282000Y-97790000D02*
X208282000Y-99060000D01*
X212342000Y-97790000D02*
X208282000Y-97790000D01*
X212342000Y-99060000D02*
X212342000Y-97790000D01*
X215502000Y-101085000D02*
X215502000Y-99702000D01*
X215502000Y-101085000D02*
X214118000Y-101085000D01*
X205362000Y-100845000D02*
X205362000Y-88385000D01*
X215262000Y-100845000D02*
X215262000Y-88385000D01*
X215262000Y-88385000D02*
X205362000Y-88385000D01*
X215262000Y-100845000D02*
X205362000Y-100845000D01*
D16*
G04 #@! TO.C,U1*
X195707000Y-81915000D02*
X195707000Y-75057000D01*
X195707000Y-75057000D02*
X195254597Y-75057000D01*
X185293000Y-75057000D02*
X185293000Y-81915000D01*
X185293000Y-81915000D02*
X185671460Y-81915000D01*
X187708540Y-81915000D02*
X188285403Y-81915000D01*
X190174597Y-81915000D02*
X190825403Y-81915000D01*
X192714597Y-81915000D02*
X193365403Y-81915000D01*
X195254597Y-81915000D02*
X195707000Y-81915000D01*
X193365403Y-75057000D02*
X192714597Y-75057000D01*
X190825403Y-75057000D02*
X190174597Y-75057000D01*
X188285403Y-75057000D02*
X187634597Y-75057000D01*
X185745403Y-75057000D02*
X185293000Y-75057000D01*
G04 #@! TO.C,U2*
X135001000Y-79883000D02*
X141859000Y-79883000D01*
X141859000Y-79883000D02*
X141859000Y-79430597D01*
X141859000Y-69469000D02*
X135001000Y-69469000D01*
X135001000Y-69469000D02*
X135001000Y-69847460D01*
X135001000Y-71884540D02*
X135001000Y-72461403D01*
X135001000Y-74350597D02*
X135001000Y-75001403D01*
X135001000Y-76890597D02*
X135001000Y-77541403D01*
X135001000Y-79430597D02*
X135001000Y-79883000D01*
X141859000Y-77541403D02*
X141859000Y-76890597D01*
X141859000Y-75001403D02*
X141859000Y-74350597D01*
X141859000Y-72461403D02*
X141859000Y-71810597D01*
X141859000Y-69921403D02*
X141859000Y-69469000D01*
G04 #@! TO.C,U3*
X127127000Y-99949000D02*
X127127000Y-93091000D01*
X127127000Y-93091000D02*
X126674597Y-93091000D01*
X116713000Y-93091000D02*
X116713000Y-99949000D01*
X116713000Y-99949000D02*
X117091460Y-99949000D01*
X119128540Y-99949000D02*
X119705403Y-99949000D01*
X121594597Y-99949000D02*
X122245403Y-99949000D01*
X124134597Y-99949000D02*
X124785403Y-99949000D01*
X126674597Y-99949000D02*
X127127000Y-99949000D01*
X124785403Y-93091000D02*
X124134597Y-93091000D01*
X122245403Y-93091000D02*
X121594597Y-93091000D01*
X119705403Y-93091000D02*
X119054597Y-93091000D01*
X117165403Y-93091000D02*
X116713000Y-93091000D01*
G04 #@! TO.C,U4*
X151257000Y-109093000D02*
X158115000Y-109093000D01*
X158115000Y-109093000D02*
X158115000Y-108640597D01*
X158115000Y-98679000D02*
X151257000Y-98679000D01*
X151257000Y-98679000D02*
X151257000Y-99057460D01*
X151257000Y-101094540D02*
X151257000Y-101671403D01*
X151257000Y-103560597D02*
X151257000Y-104211403D01*
X151257000Y-106100597D02*
X151257000Y-106751403D01*
X151257000Y-108640597D02*
X151257000Y-109093000D01*
X158115000Y-106751403D02*
X158115000Y-106100597D01*
X158115000Y-104211403D02*
X158115000Y-103560597D01*
X158115000Y-101671403D02*
X158115000Y-101020597D01*
X158115000Y-99131403D02*
X158115000Y-98679000D01*
G04 #@! TO.C,U5*
X124589540Y-107977501D02*
X125303801Y-107977501D01*
X124589540Y-103477499D02*
X125303801Y-103477499D01*
X124589540Y-107088501D02*
X125303801Y-107088501D01*
X124589540Y-102588499D02*
X125303801Y-102588499D01*
G04 #@! TO.C,C21*
D17*
X158297642Y-69508642D02*
X158250023Y-69556261D01*
X158107166Y-69603880D01*
X158011928Y-69603880D01*
X157869071Y-69556261D01*
X157773833Y-69461023D01*
X157726214Y-69365785D01*
X157678595Y-69175309D01*
X157678595Y-69032452D01*
X157726214Y-68841976D01*
X157773833Y-68746738D01*
X157869071Y-68651500D01*
X158011928Y-68603880D01*
X158107166Y-68603880D01*
X158250023Y-68651500D01*
X158297642Y-68699119D01*
X158678595Y-68699119D02*
X158726214Y-68651500D01*
X158821452Y-68603880D01*
X159059547Y-68603880D01*
X159154785Y-68651500D01*
X159202404Y-68699119D01*
X159250023Y-68794357D01*
X159250023Y-68889595D01*
X159202404Y-69032452D01*
X158630976Y-69603880D01*
X159250023Y-69603880D01*
X160202404Y-69603880D02*
X159630976Y-69603880D01*
X159916690Y-69603880D02*
X159916690Y-68603880D01*
X159821452Y-68746738D01*
X159726214Y-68841976D01*
X159630976Y-68889595D01*
G04 #@! TO.C,R31*
X184919880Y-73413857D02*
X184443690Y-73747190D01*
X184919880Y-73985285D02*
X183919880Y-73985285D01*
X183919880Y-73604333D01*
X183967500Y-73509095D01*
X184015119Y-73461476D01*
X184110357Y-73413857D01*
X184253214Y-73413857D01*
X184348452Y-73461476D01*
X184396071Y-73509095D01*
X184443690Y-73604333D01*
X184443690Y-73985285D01*
X183919880Y-73080523D02*
X183919880Y-72461476D01*
X184300833Y-72794809D01*
X184300833Y-72651952D01*
X184348452Y-72556714D01*
X184396071Y-72509095D01*
X184491309Y-72461476D01*
X184729404Y-72461476D01*
X184824642Y-72509095D01*
X184872261Y-72556714D01*
X184919880Y-72651952D01*
X184919880Y-72937666D01*
X184872261Y-73032904D01*
X184824642Y-73080523D01*
X184919880Y-71509095D02*
X184919880Y-72080523D01*
X184919880Y-71794809D02*
X183919880Y-71794809D01*
X184062738Y-71890047D01*
X184157976Y-71985285D01*
X184205595Y-72080523D01*
G04 #@! TO.C,R32*
X185793142Y-64841380D02*
X185459809Y-64365190D01*
X185221714Y-64841380D02*
X185221714Y-63841380D01*
X185602666Y-63841380D01*
X185697904Y-63889000D01*
X185745523Y-63936619D01*
X185793142Y-64031857D01*
X185793142Y-64174714D01*
X185745523Y-64269952D01*
X185697904Y-64317571D01*
X185602666Y-64365190D01*
X185221714Y-64365190D01*
X186126476Y-63841380D02*
X186745523Y-63841380D01*
X186412190Y-64222333D01*
X186555047Y-64222333D01*
X186650285Y-64269952D01*
X186697904Y-64317571D01*
X186745523Y-64412809D01*
X186745523Y-64650904D01*
X186697904Y-64746142D01*
X186650285Y-64793761D01*
X186555047Y-64841380D01*
X186269333Y-64841380D01*
X186174095Y-64793761D01*
X186126476Y-64746142D01*
X187126476Y-63936619D02*
X187174095Y-63889000D01*
X187269333Y-63841380D01*
X187507428Y-63841380D01*
X187602666Y-63889000D01*
X187650285Y-63936619D01*
X187697904Y-64031857D01*
X187697904Y-64127095D01*
X187650285Y-64269952D01*
X187078857Y-64841380D01*
X187697904Y-64841380D01*
G04 #@! TO.C,R39*
X162171142Y-69222880D02*
X161837809Y-68746690D01*
X161599714Y-69222880D02*
X161599714Y-68222880D01*
X161980666Y-68222880D01*
X162075904Y-68270500D01*
X162123523Y-68318119D01*
X162171142Y-68413357D01*
X162171142Y-68556214D01*
X162123523Y-68651452D01*
X162075904Y-68699071D01*
X161980666Y-68746690D01*
X161599714Y-68746690D01*
X162504476Y-68222880D02*
X163123523Y-68222880D01*
X162790190Y-68603833D01*
X162933047Y-68603833D01*
X163028285Y-68651452D01*
X163075904Y-68699071D01*
X163123523Y-68794309D01*
X163123523Y-69032404D01*
X163075904Y-69127642D01*
X163028285Y-69175261D01*
X162933047Y-69222880D01*
X162647333Y-69222880D01*
X162552095Y-69175261D01*
X162504476Y-69127642D01*
X163599714Y-69222880D02*
X163790190Y-69222880D01*
X163885428Y-69175261D01*
X163933047Y-69127642D01*
X164028285Y-68984785D01*
X164075904Y-68794309D01*
X164075904Y-68413357D01*
X164028285Y-68318119D01*
X163980666Y-68270500D01*
X163885428Y-68222880D01*
X163694952Y-68222880D01*
X163599714Y-68270500D01*
X163552095Y-68318119D01*
X163504476Y-68413357D01*
X163504476Y-68651452D01*
X163552095Y-68746690D01*
X163599714Y-68794309D01*
X163694952Y-68841928D01*
X163885428Y-68841928D01*
X163980666Y-68794309D01*
X164028285Y-68746690D01*
X164075904Y-68651452D01*
G04 #@! TO.C,R8*
X196667380Y-88558666D02*
X196191190Y-88892000D01*
X196667380Y-89130095D02*
X195667380Y-89130095D01*
X195667380Y-88749142D01*
X195715000Y-88653904D01*
X195762619Y-88606285D01*
X195857857Y-88558666D01*
X196000714Y-88558666D01*
X196095952Y-88606285D01*
X196143571Y-88653904D01*
X196191190Y-88749142D01*
X196191190Y-89130095D01*
X196095952Y-87987238D02*
X196048333Y-88082476D01*
X196000714Y-88130095D01*
X195905476Y-88177714D01*
X195857857Y-88177714D01*
X195762619Y-88130095D01*
X195715000Y-88082476D01*
X195667380Y-87987238D01*
X195667380Y-87796761D01*
X195715000Y-87701523D01*
X195762619Y-87653904D01*
X195857857Y-87606285D01*
X195905476Y-87606285D01*
X196000714Y-87653904D01*
X196048333Y-87701523D01*
X196095952Y-87796761D01*
X196095952Y-87987238D01*
X196143571Y-88082476D01*
X196191190Y-88130095D01*
X196286428Y-88177714D01*
X196476904Y-88177714D01*
X196572142Y-88130095D01*
X196619761Y-88082476D01*
X196667380Y-87987238D01*
X196667380Y-87796761D01*
X196619761Y-87701523D01*
X196572142Y-87653904D01*
X196476904Y-87606285D01*
X196286428Y-87606285D01*
X196191190Y-87653904D01*
X196143571Y-87701523D01*
X196095952Y-87796761D01*
G04 #@! TO.C,C5*
X201953833Y-72747142D02*
X201906214Y-72794761D01*
X201763357Y-72842380D01*
X201668119Y-72842380D01*
X201525261Y-72794761D01*
X201430023Y-72699523D01*
X201382404Y-72604285D01*
X201334785Y-72413809D01*
X201334785Y-72270952D01*
X201382404Y-72080476D01*
X201430023Y-71985238D01*
X201525261Y-71890000D01*
X201668119Y-71842380D01*
X201763357Y-71842380D01*
X201906214Y-71890000D01*
X201953833Y-71937619D01*
X202858595Y-71842380D02*
X202382404Y-71842380D01*
X202334785Y-72318571D01*
X202382404Y-72270952D01*
X202477642Y-72223333D01*
X202715738Y-72223333D01*
X202810976Y-72270952D01*
X202858595Y-72318571D01*
X202906214Y-72413809D01*
X202906214Y-72651904D01*
X202858595Y-72747142D01*
X202810976Y-72794761D01*
X202715738Y-72842380D01*
X202477642Y-72842380D01*
X202382404Y-72794761D01*
X202334785Y-72747142D01*
G04 #@! TO.C,C6*
X178395333Y-89193642D02*
X178347714Y-89241261D01*
X178204857Y-89288880D01*
X178109619Y-89288880D01*
X177966761Y-89241261D01*
X177871523Y-89146023D01*
X177823904Y-89050785D01*
X177776285Y-88860309D01*
X177776285Y-88717452D01*
X177823904Y-88526976D01*
X177871523Y-88431738D01*
X177966761Y-88336500D01*
X178109619Y-88288880D01*
X178204857Y-88288880D01*
X178347714Y-88336500D01*
X178395333Y-88384119D01*
X179252476Y-88288880D02*
X179062000Y-88288880D01*
X178966761Y-88336500D01*
X178919142Y-88384119D01*
X178823904Y-88526976D01*
X178776285Y-88717452D01*
X178776285Y-89098404D01*
X178823904Y-89193642D01*
X178871523Y-89241261D01*
X178966761Y-89288880D01*
X179157238Y-89288880D01*
X179252476Y-89241261D01*
X179300095Y-89193642D01*
X179347714Y-89098404D01*
X179347714Y-88860309D01*
X179300095Y-88765071D01*
X179252476Y-88717452D01*
X179157238Y-88669833D01*
X178966761Y-88669833D01*
X178871523Y-88717452D01*
X178823904Y-88765071D01*
X178776285Y-88860309D01*
G04 #@! TO.C,C1*
X192746333Y-72683642D02*
X192698714Y-72731261D01*
X192555857Y-72778880D01*
X192460619Y-72778880D01*
X192317761Y-72731261D01*
X192222523Y-72636023D01*
X192174904Y-72540785D01*
X192127285Y-72350309D01*
X192127285Y-72207452D01*
X192174904Y-72016976D01*
X192222523Y-71921738D01*
X192317761Y-71826500D01*
X192460619Y-71778880D01*
X192555857Y-71778880D01*
X192698714Y-71826500D01*
X192746333Y-71874119D01*
X193698714Y-72778880D02*
X193127285Y-72778880D01*
X193413000Y-72778880D02*
X193413000Y-71778880D01*
X193317761Y-71921738D01*
X193222523Y-72016976D01*
X193127285Y-72064595D01*
G04 #@! TO.C,C22*
X140771642Y-110783642D02*
X140724023Y-110831261D01*
X140581166Y-110878880D01*
X140485928Y-110878880D01*
X140343071Y-110831261D01*
X140247833Y-110736023D01*
X140200214Y-110640785D01*
X140152595Y-110450309D01*
X140152595Y-110307452D01*
X140200214Y-110116976D01*
X140247833Y-110021738D01*
X140343071Y-109926500D01*
X140485928Y-109878880D01*
X140581166Y-109878880D01*
X140724023Y-109926500D01*
X140771642Y-109974119D01*
X141152595Y-109974119D02*
X141200214Y-109926500D01*
X141295452Y-109878880D01*
X141533547Y-109878880D01*
X141628785Y-109926500D01*
X141676404Y-109974119D01*
X141724023Y-110069357D01*
X141724023Y-110164595D01*
X141676404Y-110307452D01*
X141104976Y-110878880D01*
X141724023Y-110878880D01*
X142104976Y-109974119D02*
X142152595Y-109926500D01*
X142247833Y-109878880D01*
X142485928Y-109878880D01*
X142581166Y-109926500D01*
X142628785Y-109974119D01*
X142676404Y-110069357D01*
X142676404Y-110164595D01*
X142628785Y-110307452D01*
X142057357Y-110878880D01*
X142676404Y-110878880D01*
G04 #@! TO.C,C10*
X144645142Y-69699142D02*
X144597523Y-69746761D01*
X144454666Y-69794380D01*
X144359428Y-69794380D01*
X144216571Y-69746761D01*
X144121333Y-69651523D01*
X144073714Y-69556285D01*
X144026095Y-69365809D01*
X144026095Y-69222952D01*
X144073714Y-69032476D01*
X144121333Y-68937238D01*
X144216571Y-68842000D01*
X144359428Y-68794380D01*
X144454666Y-68794380D01*
X144597523Y-68842000D01*
X144645142Y-68889619D01*
X145597523Y-69794380D02*
X145026095Y-69794380D01*
X145311809Y-69794380D02*
X145311809Y-68794380D01*
X145216571Y-68937238D01*
X145121333Y-69032476D01*
X145026095Y-69080095D01*
X146216571Y-68794380D02*
X146311809Y-68794380D01*
X146407047Y-68842000D01*
X146454666Y-68889619D01*
X146502285Y-68984857D01*
X146549904Y-69175333D01*
X146549904Y-69413428D01*
X146502285Y-69603904D01*
X146454666Y-69699142D01*
X146407047Y-69746761D01*
X146311809Y-69794380D01*
X146216571Y-69794380D01*
X146121333Y-69746761D01*
X146073714Y-69699142D01*
X146026095Y-69603904D01*
X145978476Y-69413428D01*
X145978476Y-69175333D01*
X146026095Y-68984857D01*
X146073714Y-68889619D01*
X146121333Y-68842000D01*
X146216571Y-68794380D01*
G04 #@! TO.C,C13*
X164949142Y-71381857D02*
X164996761Y-71429476D01*
X165044380Y-71572333D01*
X165044380Y-71667571D01*
X164996761Y-71810428D01*
X164901523Y-71905666D01*
X164806285Y-71953285D01*
X164615809Y-72000904D01*
X164472952Y-72000904D01*
X164282476Y-71953285D01*
X164187238Y-71905666D01*
X164092000Y-71810428D01*
X164044380Y-71667571D01*
X164044380Y-71572333D01*
X164092000Y-71429476D01*
X164139619Y-71381857D01*
X165044380Y-70429476D02*
X165044380Y-71000904D01*
X165044380Y-70715190D02*
X164044380Y-70715190D01*
X164187238Y-70810428D01*
X164282476Y-70905666D01*
X164330095Y-71000904D01*
X164044380Y-70096142D02*
X164044380Y-69477095D01*
X164425333Y-69810428D01*
X164425333Y-69667571D01*
X164472952Y-69572333D01*
X164520571Y-69524714D01*
X164615809Y-69477095D01*
X164853904Y-69477095D01*
X164949142Y-69524714D01*
X164996761Y-69572333D01*
X165044380Y-69667571D01*
X165044380Y-69953285D01*
X164996761Y-70048523D01*
X164949142Y-70096142D01*
G04 #@! TO.C,C14*
X117594142Y-72429642D02*
X117546523Y-72477261D01*
X117403666Y-72524880D01*
X117308428Y-72524880D01*
X117165571Y-72477261D01*
X117070333Y-72382023D01*
X117022714Y-72286785D01*
X116975095Y-72096309D01*
X116975095Y-71953452D01*
X117022714Y-71762976D01*
X117070333Y-71667738D01*
X117165571Y-71572500D01*
X117308428Y-71524880D01*
X117403666Y-71524880D01*
X117546523Y-71572500D01*
X117594142Y-71620119D01*
X118546523Y-72524880D02*
X117975095Y-72524880D01*
X118260809Y-72524880D02*
X118260809Y-71524880D01*
X118165571Y-71667738D01*
X118070333Y-71762976D01*
X117975095Y-71810595D01*
X119403666Y-71858214D02*
X119403666Y-72524880D01*
X119165571Y-71477261D02*
X118927476Y-72191547D01*
X119546523Y-72191547D01*
G04 #@! TO.C,C19*
X160520142Y-102147642D02*
X160472523Y-102195261D01*
X160329666Y-102242880D01*
X160234428Y-102242880D01*
X160091571Y-102195261D01*
X159996333Y-102100023D01*
X159948714Y-102004785D01*
X159901095Y-101814309D01*
X159901095Y-101671452D01*
X159948714Y-101480976D01*
X159996333Y-101385738D01*
X160091571Y-101290500D01*
X160234428Y-101242880D01*
X160329666Y-101242880D01*
X160472523Y-101290500D01*
X160520142Y-101338119D01*
X161472523Y-102242880D02*
X160901095Y-102242880D01*
X161186809Y-102242880D02*
X161186809Y-101242880D01*
X161091571Y-101385738D01*
X160996333Y-101480976D01*
X160901095Y-101528595D01*
X161948714Y-102242880D02*
X162139190Y-102242880D01*
X162234428Y-102195261D01*
X162282047Y-102147642D01*
X162377285Y-102004785D01*
X162424904Y-101814309D01*
X162424904Y-101433357D01*
X162377285Y-101338119D01*
X162329666Y-101290500D01*
X162234428Y-101242880D01*
X162043952Y-101242880D01*
X161948714Y-101290500D01*
X161901095Y-101338119D01*
X161853476Y-101433357D01*
X161853476Y-101671452D01*
X161901095Y-101766690D01*
X161948714Y-101814309D01*
X162043952Y-101861928D01*
X162234428Y-101861928D01*
X162329666Y-101814309D01*
X162377285Y-101766690D01*
X162424904Y-101671452D01*
G04 #@! TO.C,C25*
X209224642Y-75731642D02*
X209177023Y-75779261D01*
X209034166Y-75826880D01*
X208938928Y-75826880D01*
X208796071Y-75779261D01*
X208700833Y-75684023D01*
X208653214Y-75588785D01*
X208605595Y-75398309D01*
X208605595Y-75255452D01*
X208653214Y-75064976D01*
X208700833Y-74969738D01*
X208796071Y-74874500D01*
X208938928Y-74826880D01*
X209034166Y-74826880D01*
X209177023Y-74874500D01*
X209224642Y-74922119D01*
X209605595Y-74922119D02*
X209653214Y-74874500D01*
X209748452Y-74826880D01*
X209986547Y-74826880D01*
X210081785Y-74874500D01*
X210129404Y-74922119D01*
X210177023Y-75017357D01*
X210177023Y-75112595D01*
X210129404Y-75255452D01*
X209557976Y-75826880D01*
X210177023Y-75826880D01*
X211081785Y-74826880D02*
X210605595Y-74826880D01*
X210557976Y-75303071D01*
X210605595Y-75255452D01*
X210700833Y-75207833D01*
X210938928Y-75207833D01*
X211034166Y-75255452D01*
X211081785Y-75303071D01*
X211129404Y-75398309D01*
X211129404Y-75636404D01*
X211081785Y-75731642D01*
X211034166Y-75779261D01*
X210938928Y-75826880D01*
X210700833Y-75826880D01*
X210605595Y-75779261D01*
X210557976Y-75731642D01*
G04 #@! TO.C,C30*
X131103642Y-103703357D02*
X131151261Y-103750976D01*
X131198880Y-103893833D01*
X131198880Y-103989071D01*
X131151261Y-104131928D01*
X131056023Y-104227166D01*
X130960785Y-104274785D01*
X130770309Y-104322404D01*
X130627452Y-104322404D01*
X130436976Y-104274785D01*
X130341738Y-104227166D01*
X130246500Y-104131928D01*
X130198880Y-103989071D01*
X130198880Y-103893833D01*
X130246500Y-103750976D01*
X130294119Y-103703357D01*
X130198880Y-103370023D02*
X130198880Y-102750976D01*
X130579833Y-103084309D01*
X130579833Y-102941452D01*
X130627452Y-102846214D01*
X130675071Y-102798595D01*
X130770309Y-102750976D01*
X131008404Y-102750976D01*
X131103642Y-102798595D01*
X131151261Y-102846214D01*
X131198880Y-102941452D01*
X131198880Y-103227166D01*
X131151261Y-103322404D01*
X131103642Y-103370023D01*
X130198880Y-102131928D02*
X130198880Y-102036690D01*
X130246500Y-101941452D01*
X130294119Y-101893833D01*
X130389357Y-101846214D01*
X130579833Y-101798595D01*
X130817928Y-101798595D01*
X131008404Y-101846214D01*
X131103642Y-101893833D01*
X131151261Y-101941452D01*
X131198880Y-102036690D01*
X131198880Y-102131928D01*
X131151261Y-102227166D01*
X131103642Y-102274785D01*
X131008404Y-102322404D01*
X130817928Y-102370023D01*
X130579833Y-102370023D01*
X130389357Y-102322404D01*
X130294119Y-102274785D01*
X130246500Y-102227166D01*
X130198880Y-102131928D01*
G04 #@! TO.C,C12*
X152646142Y-80557642D02*
X152598523Y-80605261D01*
X152455666Y-80652880D01*
X152360428Y-80652880D01*
X152217571Y-80605261D01*
X152122333Y-80510023D01*
X152074714Y-80414785D01*
X152027095Y-80224309D01*
X152027095Y-80081452D01*
X152074714Y-79890976D01*
X152122333Y-79795738D01*
X152217571Y-79700500D01*
X152360428Y-79652880D01*
X152455666Y-79652880D01*
X152598523Y-79700500D01*
X152646142Y-79748119D01*
X153598523Y-80652880D02*
X153027095Y-80652880D01*
X153312809Y-80652880D02*
X153312809Y-79652880D01*
X153217571Y-79795738D01*
X153122333Y-79890976D01*
X153027095Y-79938595D01*
X153979476Y-79748119D02*
X154027095Y-79700500D01*
X154122333Y-79652880D01*
X154360428Y-79652880D01*
X154455666Y-79700500D01*
X154503285Y-79748119D01*
X154550904Y-79843357D01*
X154550904Y-79938595D01*
X154503285Y-80081452D01*
X153931857Y-80652880D01*
X154550904Y-80652880D01*
G04 #@! TO.C,BZ1*
X216289047Y-113339571D02*
X216431904Y-113387190D01*
X216479523Y-113434809D01*
X216527142Y-113530047D01*
X216527142Y-113672904D01*
X216479523Y-113768142D01*
X216431904Y-113815761D01*
X216336666Y-113863380D01*
X215955714Y-113863380D01*
X215955714Y-112863380D01*
X216289047Y-112863380D01*
X216384285Y-112911000D01*
X216431904Y-112958619D01*
X216479523Y-113053857D01*
X216479523Y-113149095D01*
X216431904Y-113244333D01*
X216384285Y-113291952D01*
X216289047Y-113339571D01*
X215955714Y-113339571D01*
X216860476Y-112863380D02*
X217527142Y-112863380D01*
X216860476Y-113863380D01*
X217527142Y-113863380D01*
X218431904Y-113863380D02*
X217860476Y-113863380D01*
X218146190Y-113863380D02*
X218146190Y-112863380D01*
X218050952Y-113006238D01*
X217955714Y-113101476D01*
X217860476Y-113149095D01*
X218049047Y-105481428D02*
X218810952Y-105481428D01*
X218430000Y-105862380D02*
X218430000Y-105100476D01*
G04 #@! TO.C,BZ2*
X216416047Y-64127071D02*
X216558904Y-64174690D01*
X216606523Y-64222309D01*
X216654142Y-64317547D01*
X216654142Y-64460404D01*
X216606523Y-64555642D01*
X216558904Y-64603261D01*
X216463666Y-64650880D01*
X216082714Y-64650880D01*
X216082714Y-63650880D01*
X216416047Y-63650880D01*
X216511285Y-63698500D01*
X216558904Y-63746119D01*
X216606523Y-63841357D01*
X216606523Y-63936595D01*
X216558904Y-64031833D01*
X216511285Y-64079452D01*
X216416047Y-64127071D01*
X216082714Y-64127071D01*
X216987476Y-63650880D02*
X217654142Y-63650880D01*
X216987476Y-64650880D01*
X217654142Y-64650880D01*
X217987476Y-63746119D02*
X218035095Y-63698500D01*
X218130333Y-63650880D01*
X218368428Y-63650880D01*
X218463666Y-63698500D01*
X218511285Y-63746119D01*
X218558904Y-63841357D01*
X218558904Y-63936595D01*
X218511285Y-64079452D01*
X217939857Y-64650880D01*
X218558904Y-64650880D01*
X218049047Y-67381428D02*
X218810952Y-67381428D01*
X218430000Y-67762380D02*
X218430000Y-67000476D01*
G04 #@! TO.C,C2*
X176172833Y-81573642D02*
X176125214Y-81621261D01*
X175982357Y-81668880D01*
X175887119Y-81668880D01*
X175744261Y-81621261D01*
X175649023Y-81526023D01*
X175601404Y-81430785D01*
X175553785Y-81240309D01*
X175553785Y-81097452D01*
X175601404Y-80906976D01*
X175649023Y-80811738D01*
X175744261Y-80716500D01*
X175887119Y-80668880D01*
X175982357Y-80668880D01*
X176125214Y-80716500D01*
X176172833Y-80764119D01*
X176553785Y-80764119D02*
X176601404Y-80716500D01*
X176696642Y-80668880D01*
X176934738Y-80668880D01*
X177029976Y-80716500D01*
X177077595Y-80764119D01*
X177125214Y-80859357D01*
X177125214Y-80954595D01*
X177077595Y-81097452D01*
X176506166Y-81668880D01*
X177125214Y-81668880D01*
G04 #@! TO.C,C3*
X193635333Y-71096142D02*
X193587714Y-71143761D01*
X193444857Y-71191380D01*
X193349619Y-71191380D01*
X193206761Y-71143761D01*
X193111523Y-71048523D01*
X193063904Y-70953285D01*
X193016285Y-70762809D01*
X193016285Y-70619952D01*
X193063904Y-70429476D01*
X193111523Y-70334238D01*
X193206761Y-70239000D01*
X193349619Y-70191380D01*
X193444857Y-70191380D01*
X193587714Y-70239000D01*
X193635333Y-70286619D01*
X193968666Y-70191380D02*
X194587714Y-70191380D01*
X194254380Y-70572333D01*
X194397238Y-70572333D01*
X194492476Y-70619952D01*
X194540095Y-70667571D01*
X194587714Y-70762809D01*
X194587714Y-71000904D01*
X194540095Y-71096142D01*
X194492476Y-71143761D01*
X194397238Y-71191380D01*
X194111523Y-71191380D01*
X194016285Y-71143761D01*
X193968666Y-71096142D01*
G04 #@! TO.C,C4*
X180887642Y-79859166D02*
X180935261Y-79906785D01*
X180982880Y-80049642D01*
X180982880Y-80144880D01*
X180935261Y-80287738D01*
X180840023Y-80382976D01*
X180744785Y-80430595D01*
X180554309Y-80478214D01*
X180411452Y-80478214D01*
X180220976Y-80430595D01*
X180125738Y-80382976D01*
X180030500Y-80287738D01*
X179982880Y-80144880D01*
X179982880Y-80049642D01*
X180030500Y-79906785D01*
X180078119Y-79859166D01*
X180316214Y-79002023D02*
X180982880Y-79002023D01*
X179935261Y-79240119D02*
X180649547Y-79478214D01*
X180649547Y-78859166D01*
G04 #@! TO.C,C7*
X148804333Y-91036142D02*
X148756714Y-91083761D01*
X148613857Y-91131380D01*
X148518619Y-91131380D01*
X148375761Y-91083761D01*
X148280523Y-90988523D01*
X148232904Y-90893285D01*
X148185285Y-90702809D01*
X148185285Y-90559952D01*
X148232904Y-90369476D01*
X148280523Y-90274238D01*
X148375761Y-90179000D01*
X148518619Y-90131380D01*
X148613857Y-90131380D01*
X148756714Y-90179000D01*
X148804333Y-90226619D01*
X149137666Y-90131380D02*
X149804333Y-90131380D01*
X149375761Y-91131380D01*
G04 #@! TO.C,C8*
X141565333Y-94336142D02*
X141517714Y-94383761D01*
X141374857Y-94431380D01*
X141279619Y-94431380D01*
X141136761Y-94383761D01*
X141041523Y-94288523D01*
X140993904Y-94193285D01*
X140946285Y-94002809D01*
X140946285Y-93859952D01*
X140993904Y-93669476D01*
X141041523Y-93574238D01*
X141136761Y-93479000D01*
X141279619Y-93431380D01*
X141374857Y-93431380D01*
X141517714Y-93479000D01*
X141565333Y-93526619D01*
X142136761Y-93859952D02*
X142041523Y-93812333D01*
X141993904Y-93764714D01*
X141946285Y-93669476D01*
X141946285Y-93621857D01*
X141993904Y-93526619D01*
X142041523Y-93479000D01*
X142136761Y-93431380D01*
X142327238Y-93431380D01*
X142422476Y-93479000D01*
X142470095Y-93526619D01*
X142517714Y-93621857D01*
X142517714Y-93669476D01*
X142470095Y-93764714D01*
X142422476Y-93812333D01*
X142327238Y-93859952D01*
X142136761Y-93859952D01*
X142041523Y-93907571D01*
X141993904Y-93955190D01*
X141946285Y-94050428D01*
X141946285Y-94240904D01*
X141993904Y-94336142D01*
X142041523Y-94383761D01*
X142136761Y-94431380D01*
X142327238Y-94431380D01*
X142422476Y-94383761D01*
X142470095Y-94336142D01*
X142517714Y-94240904D01*
X142517714Y-94050428D01*
X142470095Y-93955190D01*
X142422476Y-93907571D01*
X142327238Y-93859952D01*
G04 #@! TO.C,C9*
X152614333Y-94336142D02*
X152566714Y-94383761D01*
X152423857Y-94431380D01*
X152328619Y-94431380D01*
X152185761Y-94383761D01*
X152090523Y-94288523D01*
X152042904Y-94193285D01*
X151995285Y-94002809D01*
X151995285Y-93859952D01*
X152042904Y-93669476D01*
X152090523Y-93574238D01*
X152185761Y-93479000D01*
X152328619Y-93431380D01*
X152423857Y-93431380D01*
X152566714Y-93479000D01*
X152614333Y-93526619D01*
X153090523Y-94431380D02*
X153281000Y-94431380D01*
X153376238Y-94383761D01*
X153423857Y-94336142D01*
X153519095Y-94193285D01*
X153566714Y-94002809D01*
X153566714Y-93621857D01*
X153519095Y-93526619D01*
X153471476Y-93479000D01*
X153376238Y-93431380D01*
X153185761Y-93431380D01*
X153090523Y-93479000D01*
X153042904Y-93526619D01*
X152995285Y-93621857D01*
X152995285Y-93859952D01*
X153042904Y-93955190D01*
X153090523Y-94002809D01*
X153185761Y-94050428D01*
X153376238Y-94050428D01*
X153471476Y-94002809D01*
X153519095Y-93955190D01*
X153566714Y-93859952D01*
G04 #@! TO.C,C11*
X139565142Y-67222642D02*
X139517523Y-67270261D01*
X139374666Y-67317880D01*
X139279428Y-67317880D01*
X139136571Y-67270261D01*
X139041333Y-67175023D01*
X138993714Y-67079785D01*
X138946095Y-66889309D01*
X138946095Y-66746452D01*
X138993714Y-66555976D01*
X139041333Y-66460738D01*
X139136571Y-66365500D01*
X139279428Y-66317880D01*
X139374666Y-66317880D01*
X139517523Y-66365500D01*
X139565142Y-66413119D01*
X140517523Y-67317880D02*
X139946095Y-67317880D01*
X140231809Y-67317880D02*
X140231809Y-66317880D01*
X140136571Y-66460738D01*
X140041333Y-66555976D01*
X139946095Y-66603595D01*
X141469904Y-67317880D02*
X140898476Y-67317880D01*
X141184190Y-67317880D02*
X141184190Y-66317880D01*
X141088952Y-66460738D01*
X140993714Y-66555976D01*
X140898476Y-66603595D01*
G04 #@! TO.C,C15*
X217606642Y-93732642D02*
X217559023Y-93780261D01*
X217416166Y-93827880D01*
X217320928Y-93827880D01*
X217178071Y-93780261D01*
X217082833Y-93685023D01*
X217035214Y-93589785D01*
X216987595Y-93399309D01*
X216987595Y-93256452D01*
X217035214Y-93065976D01*
X217082833Y-92970738D01*
X217178071Y-92875500D01*
X217320928Y-92827880D01*
X217416166Y-92827880D01*
X217559023Y-92875500D01*
X217606642Y-92923119D01*
X218559023Y-93827880D02*
X217987595Y-93827880D01*
X218273309Y-93827880D02*
X218273309Y-92827880D01*
X218178071Y-92970738D01*
X218082833Y-93065976D01*
X217987595Y-93113595D01*
X219463785Y-92827880D02*
X218987595Y-92827880D01*
X218939976Y-93304071D01*
X218987595Y-93256452D01*
X219082833Y-93208833D01*
X219320928Y-93208833D01*
X219416166Y-93256452D01*
X219463785Y-93304071D01*
X219511404Y-93399309D01*
X219511404Y-93637404D01*
X219463785Y-93732642D01*
X219416166Y-93780261D01*
X219320928Y-93827880D01*
X219082833Y-93827880D01*
X218987595Y-93780261D01*
X218939976Y-93732642D01*
G04 #@! TO.C,C16*
X205922642Y-102211142D02*
X205875023Y-102258761D01*
X205732166Y-102306380D01*
X205636928Y-102306380D01*
X205494071Y-102258761D01*
X205398833Y-102163523D01*
X205351214Y-102068285D01*
X205303595Y-101877809D01*
X205303595Y-101734952D01*
X205351214Y-101544476D01*
X205398833Y-101449238D01*
X205494071Y-101354000D01*
X205636928Y-101306380D01*
X205732166Y-101306380D01*
X205875023Y-101354000D01*
X205922642Y-101401619D01*
X206875023Y-102306380D02*
X206303595Y-102306380D01*
X206589309Y-102306380D02*
X206589309Y-101306380D01*
X206494071Y-101449238D01*
X206398833Y-101544476D01*
X206303595Y-101592095D01*
X207732166Y-101306380D02*
X207541690Y-101306380D01*
X207446452Y-101354000D01*
X207398833Y-101401619D01*
X207303595Y-101544476D01*
X207255976Y-101734952D01*
X207255976Y-102115904D01*
X207303595Y-102211142D01*
X207351214Y-102258761D01*
X207446452Y-102306380D01*
X207636928Y-102306380D01*
X207732166Y-102258761D01*
X207779785Y-102211142D01*
X207827404Y-102115904D01*
X207827404Y-101877809D01*
X207779785Y-101782571D01*
X207732166Y-101734952D01*
X207636928Y-101687333D01*
X207446452Y-101687333D01*
X207351214Y-101734952D01*
X207303595Y-101782571D01*
X207255976Y-101877809D01*
G04 #@! TO.C,C17*
X120959642Y-90971642D02*
X120912023Y-91019261D01*
X120769166Y-91066880D01*
X120673928Y-91066880D01*
X120531071Y-91019261D01*
X120435833Y-90924023D01*
X120388214Y-90828785D01*
X120340595Y-90638309D01*
X120340595Y-90495452D01*
X120388214Y-90304976D01*
X120435833Y-90209738D01*
X120531071Y-90114500D01*
X120673928Y-90066880D01*
X120769166Y-90066880D01*
X120912023Y-90114500D01*
X120959642Y-90162119D01*
X121912023Y-91066880D02*
X121340595Y-91066880D01*
X121626309Y-91066880D02*
X121626309Y-90066880D01*
X121531071Y-90209738D01*
X121435833Y-90304976D01*
X121340595Y-90352595D01*
X122245357Y-90066880D02*
X122912023Y-90066880D01*
X122483452Y-91066880D01*
G04 #@! TO.C,C18*
X131103642Y-94241857D02*
X131151261Y-94289476D01*
X131198880Y-94432333D01*
X131198880Y-94527571D01*
X131151261Y-94670428D01*
X131056023Y-94765666D01*
X130960785Y-94813285D01*
X130770309Y-94860904D01*
X130627452Y-94860904D01*
X130436976Y-94813285D01*
X130341738Y-94765666D01*
X130246500Y-94670428D01*
X130198880Y-94527571D01*
X130198880Y-94432333D01*
X130246500Y-94289476D01*
X130294119Y-94241857D01*
X131198880Y-93289476D02*
X131198880Y-93860904D01*
X131198880Y-93575190D02*
X130198880Y-93575190D01*
X130341738Y-93670428D01*
X130436976Y-93765666D01*
X130484595Y-93860904D01*
X130627452Y-92718047D02*
X130579833Y-92813285D01*
X130532214Y-92860904D01*
X130436976Y-92908523D01*
X130389357Y-92908523D01*
X130294119Y-92860904D01*
X130246500Y-92813285D01*
X130198880Y-92718047D01*
X130198880Y-92527571D01*
X130246500Y-92432333D01*
X130294119Y-92384714D01*
X130389357Y-92337095D01*
X130436976Y-92337095D01*
X130532214Y-92384714D01*
X130579833Y-92432333D01*
X130627452Y-92527571D01*
X130627452Y-92718047D01*
X130675071Y-92813285D01*
X130722690Y-92860904D01*
X130817928Y-92908523D01*
X131008404Y-92908523D01*
X131103642Y-92860904D01*
X131151261Y-92813285D01*
X131198880Y-92718047D01*
X131198880Y-92527571D01*
X131151261Y-92432333D01*
X131103642Y-92384714D01*
X131008404Y-92337095D01*
X130817928Y-92337095D01*
X130722690Y-92384714D01*
X130675071Y-92432333D01*
X130627452Y-92527571D01*
G04 #@! TO.C,C20*
X157599142Y-94431142D02*
X157551523Y-94478761D01*
X157408666Y-94526380D01*
X157313428Y-94526380D01*
X157170571Y-94478761D01*
X157075333Y-94383523D01*
X157027714Y-94288285D01*
X156980095Y-94097809D01*
X156980095Y-93954952D01*
X157027714Y-93764476D01*
X157075333Y-93669238D01*
X157170571Y-93574000D01*
X157313428Y-93526380D01*
X157408666Y-93526380D01*
X157551523Y-93574000D01*
X157599142Y-93621619D01*
X157980095Y-93621619D02*
X158027714Y-93574000D01*
X158122952Y-93526380D01*
X158361047Y-93526380D01*
X158456285Y-93574000D01*
X158503904Y-93621619D01*
X158551523Y-93716857D01*
X158551523Y-93812095D01*
X158503904Y-93954952D01*
X157932476Y-94526380D01*
X158551523Y-94526380D01*
X159170571Y-93526380D02*
X159265809Y-93526380D01*
X159361047Y-93574000D01*
X159408666Y-93621619D01*
X159456285Y-93716857D01*
X159503904Y-93907333D01*
X159503904Y-94145428D01*
X159456285Y-94335904D01*
X159408666Y-94431142D01*
X159361047Y-94478761D01*
X159265809Y-94526380D01*
X159170571Y-94526380D01*
X159075333Y-94478761D01*
X159027714Y-94431142D01*
X158980095Y-94335904D01*
X158932476Y-94145428D01*
X158932476Y-93907333D01*
X158980095Y-93716857D01*
X159027714Y-93621619D01*
X159075333Y-93574000D01*
X159170571Y-93526380D01*
G04 #@! TO.C,C23*
X161409142Y-109229142D02*
X161361523Y-109276761D01*
X161218666Y-109324380D01*
X161123428Y-109324380D01*
X160980571Y-109276761D01*
X160885333Y-109181523D01*
X160837714Y-109086285D01*
X160790095Y-108895809D01*
X160790095Y-108752952D01*
X160837714Y-108562476D01*
X160885333Y-108467238D01*
X160980571Y-108372000D01*
X161123428Y-108324380D01*
X161218666Y-108324380D01*
X161361523Y-108372000D01*
X161409142Y-108419619D01*
X161790095Y-108419619D02*
X161837714Y-108372000D01*
X161932952Y-108324380D01*
X162171047Y-108324380D01*
X162266285Y-108372000D01*
X162313904Y-108419619D01*
X162361523Y-108514857D01*
X162361523Y-108610095D01*
X162313904Y-108752952D01*
X161742476Y-109324380D01*
X162361523Y-109324380D01*
X162694857Y-108324380D02*
X163313904Y-108324380D01*
X162980571Y-108705333D01*
X163123428Y-108705333D01*
X163218666Y-108752952D01*
X163266285Y-108800571D01*
X163313904Y-108895809D01*
X163313904Y-109133904D01*
X163266285Y-109229142D01*
X163218666Y-109276761D01*
X163123428Y-109324380D01*
X162837714Y-109324380D01*
X162742476Y-109276761D01*
X162694857Y-109229142D01*
G04 #@! TO.C,C24*
X214495142Y-73763142D02*
X214447523Y-73810761D01*
X214304666Y-73858380D01*
X214209428Y-73858380D01*
X214066571Y-73810761D01*
X213971333Y-73715523D01*
X213923714Y-73620285D01*
X213876095Y-73429809D01*
X213876095Y-73286952D01*
X213923714Y-73096476D01*
X213971333Y-73001238D01*
X214066571Y-72906000D01*
X214209428Y-72858380D01*
X214304666Y-72858380D01*
X214447523Y-72906000D01*
X214495142Y-72953619D01*
X214876095Y-72953619D02*
X214923714Y-72906000D01*
X215018952Y-72858380D01*
X215257047Y-72858380D01*
X215352285Y-72906000D01*
X215399904Y-72953619D01*
X215447523Y-73048857D01*
X215447523Y-73144095D01*
X215399904Y-73286952D01*
X214828476Y-73858380D01*
X215447523Y-73858380D01*
X216304666Y-73191714D02*
X216304666Y-73858380D01*
X216066571Y-72810761D02*
X215828476Y-73525047D01*
X216447523Y-73525047D01*
G04 #@! TO.C,C26*
X222496142Y-96623142D02*
X222448523Y-96670761D01*
X222305666Y-96718380D01*
X222210428Y-96718380D01*
X222067571Y-96670761D01*
X221972333Y-96575523D01*
X221924714Y-96480285D01*
X221877095Y-96289809D01*
X221877095Y-96146952D01*
X221924714Y-95956476D01*
X221972333Y-95861238D01*
X222067571Y-95766000D01*
X222210428Y-95718380D01*
X222305666Y-95718380D01*
X222448523Y-95766000D01*
X222496142Y-95813619D01*
X222877095Y-95813619D02*
X222924714Y-95766000D01*
X223019952Y-95718380D01*
X223258047Y-95718380D01*
X223353285Y-95766000D01*
X223400904Y-95813619D01*
X223448523Y-95908857D01*
X223448523Y-96004095D01*
X223400904Y-96146952D01*
X222829476Y-96718380D01*
X223448523Y-96718380D01*
X224305666Y-95718380D02*
X224115190Y-95718380D01*
X224019952Y-95766000D01*
X223972333Y-95813619D01*
X223877095Y-95956476D01*
X223829476Y-96146952D01*
X223829476Y-96527904D01*
X223877095Y-96623142D01*
X223924714Y-96670761D01*
X224019952Y-96718380D01*
X224210428Y-96718380D01*
X224305666Y-96670761D01*
X224353285Y-96623142D01*
X224400904Y-96527904D01*
X224400904Y-96289809D01*
X224353285Y-96194571D01*
X224305666Y-96146952D01*
X224210428Y-96099333D01*
X224019952Y-96099333D01*
X223924714Y-96146952D01*
X223877095Y-96194571D01*
X223829476Y-96289809D01*
G04 #@! TO.C,C28*
X125468142Y-111799642D02*
X125420523Y-111847261D01*
X125277666Y-111894880D01*
X125182428Y-111894880D01*
X125039571Y-111847261D01*
X124944333Y-111752023D01*
X124896714Y-111656785D01*
X124849095Y-111466309D01*
X124849095Y-111323452D01*
X124896714Y-111132976D01*
X124944333Y-111037738D01*
X125039571Y-110942500D01*
X125182428Y-110894880D01*
X125277666Y-110894880D01*
X125420523Y-110942500D01*
X125468142Y-110990119D01*
X125849095Y-110990119D02*
X125896714Y-110942500D01*
X125991952Y-110894880D01*
X126230047Y-110894880D01*
X126325285Y-110942500D01*
X126372904Y-110990119D01*
X126420523Y-111085357D01*
X126420523Y-111180595D01*
X126372904Y-111323452D01*
X125801476Y-111894880D01*
X126420523Y-111894880D01*
X126991952Y-111323452D02*
X126896714Y-111275833D01*
X126849095Y-111228214D01*
X126801476Y-111132976D01*
X126801476Y-111085357D01*
X126849095Y-110990119D01*
X126896714Y-110942500D01*
X126991952Y-110894880D01*
X127182428Y-110894880D01*
X127277666Y-110942500D01*
X127325285Y-110990119D01*
X127372904Y-111085357D01*
X127372904Y-111132976D01*
X127325285Y-111228214D01*
X127277666Y-111275833D01*
X127182428Y-111323452D01*
X126991952Y-111323452D01*
X126896714Y-111371071D01*
X126849095Y-111418690D01*
X126801476Y-111513928D01*
X126801476Y-111704404D01*
X126849095Y-111799642D01*
X126896714Y-111847261D01*
X126991952Y-111894880D01*
X127182428Y-111894880D01*
X127277666Y-111847261D01*
X127325285Y-111799642D01*
X127372904Y-111704404D01*
X127372904Y-111513928D01*
X127325285Y-111418690D01*
X127277666Y-111371071D01*
X127182428Y-111323452D01*
G04 #@! TO.C,C29*
X130595642Y-99829857D02*
X130643261Y-99877476D01*
X130690880Y-100020333D01*
X130690880Y-100115571D01*
X130643261Y-100258428D01*
X130548023Y-100353666D01*
X130452785Y-100401285D01*
X130262309Y-100448904D01*
X130119452Y-100448904D01*
X129928976Y-100401285D01*
X129833738Y-100353666D01*
X129738500Y-100258428D01*
X129690880Y-100115571D01*
X129690880Y-100020333D01*
X129738500Y-99877476D01*
X129786119Y-99829857D01*
X129786119Y-99448904D02*
X129738500Y-99401285D01*
X129690880Y-99306047D01*
X129690880Y-99067952D01*
X129738500Y-98972714D01*
X129786119Y-98925095D01*
X129881357Y-98877476D01*
X129976595Y-98877476D01*
X130119452Y-98925095D01*
X130690880Y-99496523D01*
X130690880Y-98877476D01*
X130690880Y-98401285D02*
X130690880Y-98210809D01*
X130643261Y-98115571D01*
X130595642Y-98067952D01*
X130452785Y-97972714D01*
X130262309Y-97925095D01*
X129881357Y-97925095D01*
X129786119Y-97972714D01*
X129738500Y-98020333D01*
X129690880Y-98115571D01*
X129690880Y-98306047D01*
X129738500Y-98401285D01*
X129786119Y-98448904D01*
X129881357Y-98496523D01*
X130119452Y-98496523D01*
X130214690Y-98448904D01*
X130262309Y-98401285D01*
X130309928Y-98306047D01*
X130309928Y-98115571D01*
X130262309Y-98020333D01*
X130214690Y-97972714D01*
X130119452Y-97925095D01*
G04 #@! TO.C,D1*
X213510904Y-77604880D02*
X213510904Y-76604880D01*
X213749000Y-76604880D01*
X213891857Y-76652500D01*
X213987095Y-76747738D01*
X214034714Y-76842976D01*
X214082333Y-77033452D01*
X214082333Y-77176309D01*
X214034714Y-77366785D01*
X213987095Y-77462023D01*
X213891857Y-77557261D01*
X213749000Y-77604880D01*
X213510904Y-77604880D01*
X215034714Y-77604880D02*
X214463285Y-77604880D01*
X214749000Y-77604880D02*
X214749000Y-76604880D01*
X214653761Y-76747738D01*
X214558523Y-76842976D01*
X214463285Y-76890595D01*
G04 #@! TO.C,D2*
X159789904Y-80144880D02*
X159789904Y-79144880D01*
X160028000Y-79144880D01*
X160170857Y-79192500D01*
X160266095Y-79287738D01*
X160313714Y-79382976D01*
X160361333Y-79573452D01*
X160361333Y-79716309D01*
X160313714Y-79906785D01*
X160266095Y-80002023D01*
X160170857Y-80097261D01*
X160028000Y-80144880D01*
X159789904Y-80144880D01*
X160742285Y-79240119D02*
X160789904Y-79192500D01*
X160885142Y-79144880D01*
X161123238Y-79144880D01*
X161218476Y-79192500D01*
X161266095Y-79240119D01*
X161313714Y-79335357D01*
X161313714Y-79430595D01*
X161266095Y-79573452D01*
X160694666Y-80144880D01*
X161313714Y-80144880D01*
G04 #@! TO.C,D3*
X155916404Y-80208380D02*
X155916404Y-79208380D01*
X156154500Y-79208380D01*
X156297357Y-79256000D01*
X156392595Y-79351238D01*
X156440214Y-79446476D01*
X156487833Y-79636952D01*
X156487833Y-79779809D01*
X156440214Y-79970285D01*
X156392595Y-80065523D01*
X156297357Y-80160761D01*
X156154500Y-80208380D01*
X155916404Y-80208380D01*
X156821166Y-79208380D02*
X157440214Y-79208380D01*
X157106880Y-79589333D01*
X157249738Y-79589333D01*
X157344976Y-79636952D01*
X157392595Y-79684571D01*
X157440214Y-79779809D01*
X157440214Y-80017904D01*
X157392595Y-80113142D01*
X157344976Y-80160761D01*
X157249738Y-80208380D01*
X156964023Y-80208380D01*
X156868785Y-80160761D01*
X156821166Y-80113142D01*
G04 #@! TO.C,D4*
X130389404Y-67127380D02*
X130389404Y-66127380D01*
X130627500Y-66127380D01*
X130770357Y-66175000D01*
X130865595Y-66270238D01*
X130913214Y-66365476D01*
X130960833Y-66555952D01*
X130960833Y-66698809D01*
X130913214Y-66889285D01*
X130865595Y-66984523D01*
X130770357Y-67079761D01*
X130627500Y-67127380D01*
X130389404Y-67127380D01*
X131817976Y-66460714D02*
X131817976Y-67127380D01*
X131579880Y-66079761D02*
X131341785Y-66794047D01*
X131960833Y-66794047D01*
G04 #@! TO.C,D5*
X137056904Y-94622880D02*
X137056904Y-93622880D01*
X137295000Y-93622880D01*
X137437857Y-93670500D01*
X137533095Y-93765738D01*
X137580714Y-93860976D01*
X137628333Y-94051452D01*
X137628333Y-94194309D01*
X137580714Y-94384785D01*
X137533095Y-94480023D01*
X137437857Y-94575261D01*
X137295000Y-94622880D01*
X137056904Y-94622880D01*
X138533095Y-93622880D02*
X138056904Y-93622880D01*
X138009285Y-94099071D01*
X138056904Y-94051452D01*
X138152142Y-94003833D01*
X138390238Y-94003833D01*
X138485476Y-94051452D01*
X138533095Y-94099071D01*
X138580714Y-94194309D01*
X138580714Y-94432404D01*
X138533095Y-94527642D01*
X138485476Y-94575261D01*
X138390238Y-94622880D01*
X138152142Y-94622880D01*
X138056904Y-94575261D01*
X138009285Y-94527642D01*
G04 #@! TO.C,D6*
X132595880Y-93384595D02*
X131595880Y-93384595D01*
X131595880Y-93146500D01*
X131643500Y-93003642D01*
X131738738Y-92908404D01*
X131833976Y-92860785D01*
X132024452Y-92813166D01*
X132167309Y-92813166D01*
X132357785Y-92860785D01*
X132453023Y-92908404D01*
X132548261Y-93003642D01*
X132595880Y-93146500D01*
X132595880Y-93384595D01*
X131595880Y-91956023D02*
X131595880Y-92146500D01*
X131643500Y-92241738D01*
X131691119Y-92289357D01*
X131833976Y-92384595D01*
X132024452Y-92432214D01*
X132405404Y-92432214D01*
X132500642Y-92384595D01*
X132548261Y-92336976D01*
X132595880Y-92241738D01*
X132595880Y-92051261D01*
X132548261Y-91956023D01*
X132500642Y-91908404D01*
X132405404Y-91860785D01*
X132167309Y-91860785D01*
X132072071Y-91908404D01*
X132024452Y-91956023D01*
X131976833Y-92051261D01*
X131976833Y-92241738D01*
X132024452Y-92336976D01*
X132072071Y-92384595D01*
X132167309Y-92432214D01*
G04 #@! TO.C,D7*
X126960404Y-66936880D02*
X126960404Y-65936880D01*
X127198500Y-65936880D01*
X127341357Y-65984500D01*
X127436595Y-66079738D01*
X127484214Y-66174976D01*
X127531833Y-66365452D01*
X127531833Y-66508309D01*
X127484214Y-66698785D01*
X127436595Y-66794023D01*
X127341357Y-66889261D01*
X127198500Y-66936880D01*
X126960404Y-66936880D01*
X127865166Y-65936880D02*
X128531833Y-65936880D01*
X128103261Y-66936880D01*
G04 #@! TO.C,D8*
X210843904Y-84462880D02*
X210843904Y-83462880D01*
X211082000Y-83462880D01*
X211224857Y-83510500D01*
X211320095Y-83605738D01*
X211367714Y-83700976D01*
X211415333Y-83891452D01*
X211415333Y-84034309D01*
X211367714Y-84224785D01*
X211320095Y-84320023D01*
X211224857Y-84415261D01*
X211082000Y-84462880D01*
X210843904Y-84462880D01*
X211986761Y-83891452D02*
X211891523Y-83843833D01*
X211843904Y-83796214D01*
X211796285Y-83700976D01*
X211796285Y-83653357D01*
X211843904Y-83558119D01*
X211891523Y-83510500D01*
X211986761Y-83462880D01*
X212177238Y-83462880D01*
X212272476Y-83510500D01*
X212320095Y-83558119D01*
X212367714Y-83653357D01*
X212367714Y-83700976D01*
X212320095Y-83796214D01*
X212272476Y-83843833D01*
X212177238Y-83891452D01*
X211986761Y-83891452D01*
X211891523Y-83939071D01*
X211843904Y-83986690D01*
X211796285Y-84081928D01*
X211796285Y-84272404D01*
X211843904Y-84367642D01*
X211891523Y-84415261D01*
X211986761Y-84462880D01*
X212177238Y-84462880D01*
X212272476Y-84415261D01*
X212320095Y-84367642D01*
X212367714Y-84272404D01*
X212367714Y-84081928D01*
X212320095Y-83986690D01*
X212272476Y-83939071D01*
X212177238Y-83891452D01*
G04 #@! TO.C,H1*
X201231595Y-89733380D02*
X201231595Y-88733380D01*
X201231595Y-89209571D02*
X201803023Y-89209571D01*
X201803023Y-89733380D02*
X201803023Y-88733380D01*
X202803023Y-89733380D02*
X202231595Y-89733380D01*
X202517309Y-89733380D02*
X202517309Y-88733380D01*
X202422071Y-88876238D01*
X202326833Y-88971476D01*
X202231595Y-89019095D01*
X188112857Y-108955714D02*
X188112857Y-109622380D01*
X187684285Y-108955714D02*
X187684285Y-109479523D01*
X187731904Y-109574761D01*
X187827142Y-109622380D01*
X187970000Y-109622380D01*
X188065238Y-109574761D01*
X188112857Y-109527142D01*
X188589047Y-108622380D02*
X188589047Y-109431904D01*
X188636666Y-109527142D01*
X188684285Y-109574761D01*
X188779523Y-109622380D01*
X188970000Y-109622380D01*
X189065238Y-109574761D01*
X189112857Y-109527142D01*
X189160476Y-109431904D01*
X189160476Y-108622380D01*
X189589047Y-109574761D02*
X189731904Y-109622380D01*
X189970000Y-109622380D01*
X190065238Y-109574761D01*
X190112857Y-109527142D01*
X190160476Y-109431904D01*
X190160476Y-109336666D01*
X190112857Y-109241428D01*
X190065238Y-109193809D01*
X189970000Y-109146190D01*
X189779523Y-109098571D01*
X189684285Y-109050952D01*
X189636666Y-109003333D01*
X189589047Y-108908095D01*
X189589047Y-108812857D01*
X189636666Y-108717619D01*
X189684285Y-108670000D01*
X189779523Y-108622380D01*
X190017619Y-108622380D01*
X190160476Y-108670000D01*
X190922380Y-109098571D02*
X191065238Y-109146190D01*
X191112857Y-109193809D01*
X191160476Y-109289047D01*
X191160476Y-109431904D01*
X191112857Y-109527142D01*
X191065238Y-109574761D01*
X190970000Y-109622380D01*
X190589047Y-109622380D01*
X190589047Y-108622380D01*
X190922380Y-108622380D01*
X191017619Y-108670000D01*
X191065238Y-108717619D01*
X191112857Y-108812857D01*
X191112857Y-108908095D01*
X191065238Y-109003333D01*
X191017619Y-109050952D01*
X190922380Y-109098571D01*
X190589047Y-109098571D01*
X192779523Y-109574761D02*
X192684285Y-109622380D01*
X192493809Y-109622380D01*
X192398571Y-109574761D01*
X192350952Y-109527142D01*
X192303333Y-109431904D01*
X192303333Y-109146190D01*
X192350952Y-109050952D01*
X192398571Y-109003333D01*
X192493809Y-108955714D01*
X192684285Y-108955714D01*
X192779523Y-109003333D01*
X193350952Y-109622380D02*
X193255714Y-109574761D01*
X193208095Y-109527142D01*
X193160476Y-109431904D01*
X193160476Y-109146190D01*
X193208095Y-109050952D01*
X193255714Y-109003333D01*
X193350952Y-108955714D01*
X193493809Y-108955714D01*
X193589047Y-109003333D01*
X193636666Y-109050952D01*
X193684285Y-109146190D01*
X193684285Y-109431904D01*
X193636666Y-109527142D01*
X193589047Y-109574761D01*
X193493809Y-109622380D01*
X193350952Y-109622380D01*
X194112857Y-108955714D02*
X194112857Y-109622380D01*
X194112857Y-109050952D02*
X194160476Y-109003333D01*
X194255714Y-108955714D01*
X194398571Y-108955714D01*
X194493809Y-109003333D01*
X194541428Y-109098571D01*
X194541428Y-109622380D01*
X195017619Y-108955714D02*
X195017619Y-109622380D01*
X195017619Y-109050952D02*
X195065238Y-109003333D01*
X195160476Y-108955714D01*
X195303333Y-108955714D01*
X195398571Y-109003333D01*
X195446190Y-109098571D01*
X195446190Y-109622380D01*
X196303333Y-109574761D02*
X196208095Y-109622380D01*
X196017619Y-109622380D01*
X195922380Y-109574761D01*
X195874761Y-109479523D01*
X195874761Y-109098571D01*
X195922380Y-109003333D01*
X196017619Y-108955714D01*
X196208095Y-108955714D01*
X196303333Y-109003333D01*
X196350952Y-109098571D01*
X196350952Y-109193809D01*
X195874761Y-109289047D01*
X197208095Y-109574761D02*
X197112857Y-109622380D01*
X196922380Y-109622380D01*
X196827142Y-109574761D01*
X196779523Y-109527142D01*
X196731904Y-109431904D01*
X196731904Y-109146190D01*
X196779523Y-109050952D01*
X196827142Y-109003333D01*
X196922380Y-108955714D01*
X197112857Y-108955714D01*
X197208095Y-109003333D01*
X197493809Y-108955714D02*
X197874761Y-108955714D01*
X197636666Y-108622380D02*
X197636666Y-109479523D01*
X197684285Y-109574761D01*
X197779523Y-109622380D01*
X197874761Y-109622380D01*
X198350952Y-109622380D02*
X198255714Y-109574761D01*
X198208095Y-109527142D01*
X198160476Y-109431904D01*
X198160476Y-109146190D01*
X198208095Y-109050952D01*
X198255714Y-109003333D01*
X198350952Y-108955714D01*
X198493809Y-108955714D01*
X198589047Y-109003333D01*
X198636666Y-109050952D01*
X198684285Y-109146190D01*
X198684285Y-109431904D01*
X198636666Y-109527142D01*
X198589047Y-109574761D01*
X198493809Y-109622380D01*
X198350952Y-109622380D01*
X199112857Y-109622380D02*
X199112857Y-108955714D01*
X199112857Y-109146190D02*
X199160476Y-109050952D01*
X199208095Y-109003333D01*
X199303333Y-108955714D01*
X199398571Y-108955714D01*
X200493809Y-109622380D02*
X200493809Y-108622380D01*
X200922380Y-109622380D02*
X200922380Y-109098571D01*
X200874761Y-109003333D01*
X200779523Y-108955714D01*
X200636666Y-108955714D01*
X200541428Y-109003333D01*
X200493809Y-109050952D01*
X201779523Y-109574761D02*
X201684285Y-109622380D01*
X201493809Y-109622380D01*
X201398571Y-109574761D01*
X201350952Y-109479523D01*
X201350952Y-109098571D01*
X201398571Y-109003333D01*
X201493809Y-108955714D01*
X201684285Y-108955714D01*
X201779523Y-109003333D01*
X201827142Y-109098571D01*
X201827142Y-109193809D01*
X201350952Y-109289047D01*
X202255714Y-109622380D02*
X202255714Y-108955714D01*
X202255714Y-109146190D02*
X202303333Y-109050952D01*
X202350952Y-109003333D01*
X202446190Y-108955714D01*
X202541428Y-108955714D01*
X203255714Y-109574761D02*
X203160476Y-109622380D01*
X202970000Y-109622380D01*
X202874761Y-109574761D01*
X202827142Y-109479523D01*
X202827142Y-109098571D01*
X202874761Y-109003333D01*
X202970000Y-108955714D01*
X203160476Y-108955714D01*
X203255714Y-109003333D01*
X203303333Y-109098571D01*
X203303333Y-109193809D01*
X202827142Y-109289047D01*
G04 #@! TO.C,J1*
X169908880Y-67458767D02*
X169908880Y-68175810D01*
X169861077Y-68319218D01*
X169765471Y-68414824D01*
X169622062Y-68462627D01*
X169526457Y-68462627D01*
X170912740Y-68462627D02*
X170339105Y-68462627D01*
X170625922Y-68462627D02*
X170625922Y-67458767D01*
X170530317Y-67602175D01*
X170434711Y-67697781D01*
X170339105Y-67745584D01*
G04 #@! TO.C,J2*
X140192166Y-64222380D02*
X140192166Y-64936666D01*
X140144547Y-65079523D01*
X140049309Y-65174761D01*
X139906452Y-65222380D01*
X139811214Y-65222380D01*
X140620738Y-64317619D02*
X140668357Y-64270000D01*
X140763595Y-64222380D01*
X141001690Y-64222380D01*
X141096928Y-64270000D01*
X141144547Y-64317619D01*
X141192166Y-64412857D01*
X141192166Y-64508095D01*
X141144547Y-64650952D01*
X140573119Y-65222380D01*
X141192166Y-65222380D01*
G04 #@! TO.C,J3*
X140255666Y-112736380D02*
X140255666Y-113450666D01*
X140208047Y-113593523D01*
X140112809Y-113688761D01*
X139969952Y-113736380D01*
X139874714Y-113736380D01*
X140636619Y-112736380D02*
X141255666Y-112736380D01*
X140922333Y-113117333D01*
X141065190Y-113117333D01*
X141160428Y-113164952D01*
X141208047Y-113212571D01*
X141255666Y-113307809D01*
X141255666Y-113545904D01*
X141208047Y-113641142D01*
X141160428Y-113688761D01*
X141065190Y-113736380D01*
X140779476Y-113736380D01*
X140684238Y-113688761D01*
X140636619Y-113641142D01*
G04 #@! TO.C,MK1*
X227909539Y-86907982D02*
X226909189Y-86907982D01*
X227623725Y-86574532D01*
X226909189Y-86241082D01*
X227909539Y-86241082D01*
X227909539Y-85764725D02*
X226909189Y-85764725D01*
X227909539Y-85193096D02*
X227337910Y-85621817D01*
X226909189Y-85193096D02*
X227480817Y-85764725D01*
X227909539Y-84240382D02*
X227909539Y-84812010D01*
X227909539Y-84526196D02*
X226909189Y-84526196D01*
X227052096Y-84621467D01*
X227147367Y-84716739D01*
X227195003Y-84812010D01*
G04 #@! TO.C,Q1*
X227234761Y-102211119D02*
X227139523Y-102163500D01*
X227044285Y-102068261D01*
X226901428Y-101925404D01*
X226806190Y-101877785D01*
X226710952Y-101877785D01*
X226758571Y-102115880D02*
X226663333Y-102068261D01*
X226568095Y-101973023D01*
X226520476Y-101782547D01*
X226520476Y-101449214D01*
X226568095Y-101258738D01*
X226663333Y-101163500D01*
X226758571Y-101115880D01*
X226949047Y-101115880D01*
X227044285Y-101163500D01*
X227139523Y-101258738D01*
X227187142Y-101449214D01*
X227187142Y-101782547D01*
X227139523Y-101973023D01*
X227044285Y-102068261D01*
X226949047Y-102115880D01*
X226758571Y-102115880D01*
X228139523Y-102115880D02*
X227568095Y-102115880D01*
X227853809Y-102115880D02*
X227853809Y-101115880D01*
X227758571Y-101258738D01*
X227663333Y-101353976D01*
X227568095Y-101401595D01*
G04 #@! TO.C,Q2*
X221202261Y-83542119D02*
X221107023Y-83494500D01*
X221011785Y-83399261D01*
X220868928Y-83256404D01*
X220773690Y-83208785D01*
X220678452Y-83208785D01*
X220726071Y-83446880D02*
X220630833Y-83399261D01*
X220535595Y-83304023D01*
X220487976Y-83113547D01*
X220487976Y-82780214D01*
X220535595Y-82589738D01*
X220630833Y-82494500D01*
X220726071Y-82446880D01*
X220916547Y-82446880D01*
X221011785Y-82494500D01*
X221107023Y-82589738D01*
X221154642Y-82780214D01*
X221154642Y-83113547D01*
X221107023Y-83304023D01*
X221011785Y-83399261D01*
X220916547Y-83446880D01*
X220726071Y-83446880D01*
X221535595Y-82542119D02*
X221583214Y-82494500D01*
X221678452Y-82446880D01*
X221916547Y-82446880D01*
X222011785Y-82494500D01*
X222059404Y-82542119D01*
X222107023Y-82637357D01*
X222107023Y-82732595D01*
X222059404Y-82875452D01*
X221487976Y-83446880D01*
X222107023Y-83446880D01*
G04 #@! TO.C,Q3*
X165076119Y-89566738D02*
X165028500Y-89661976D01*
X164933261Y-89757214D01*
X164790404Y-89900071D01*
X164742785Y-89995309D01*
X164742785Y-90090547D01*
X164980880Y-90042928D02*
X164933261Y-90138166D01*
X164838023Y-90233404D01*
X164647547Y-90281023D01*
X164314214Y-90281023D01*
X164123738Y-90233404D01*
X164028500Y-90138166D01*
X163980880Y-90042928D01*
X163980880Y-89852452D01*
X164028500Y-89757214D01*
X164123738Y-89661976D01*
X164314214Y-89614357D01*
X164647547Y-89614357D01*
X164838023Y-89661976D01*
X164933261Y-89757214D01*
X164980880Y-89852452D01*
X164980880Y-90042928D01*
X163980880Y-89281023D02*
X163980880Y-88661976D01*
X164361833Y-88995309D01*
X164361833Y-88852452D01*
X164409452Y-88757214D01*
X164457071Y-88709595D01*
X164552309Y-88661976D01*
X164790404Y-88661976D01*
X164885642Y-88709595D01*
X164933261Y-88757214D01*
X164980880Y-88852452D01*
X164980880Y-89138166D01*
X164933261Y-89233404D01*
X164885642Y-89281023D01*
G04 #@! TO.C,Q4*
X144692619Y-82708738D02*
X144645000Y-82803976D01*
X144549761Y-82899214D01*
X144406904Y-83042071D01*
X144359285Y-83137309D01*
X144359285Y-83232547D01*
X144597380Y-83184928D02*
X144549761Y-83280166D01*
X144454523Y-83375404D01*
X144264047Y-83423023D01*
X143930714Y-83423023D01*
X143740238Y-83375404D01*
X143645000Y-83280166D01*
X143597380Y-83184928D01*
X143597380Y-82994452D01*
X143645000Y-82899214D01*
X143740238Y-82803976D01*
X143930714Y-82756357D01*
X144264047Y-82756357D01*
X144454523Y-82803976D01*
X144549761Y-82899214D01*
X144597380Y-82994452D01*
X144597380Y-83184928D01*
X143930714Y-81899214D02*
X144597380Y-81899214D01*
X143549761Y-82137309D02*
X144264047Y-82375404D01*
X144264047Y-81756357D01*
G04 #@! TO.C,R1*
X218146333Y-96718380D02*
X217813000Y-96242190D01*
X217574904Y-96718380D02*
X217574904Y-95718380D01*
X217955857Y-95718380D01*
X218051095Y-95766000D01*
X218098714Y-95813619D01*
X218146333Y-95908857D01*
X218146333Y-96051714D01*
X218098714Y-96146952D01*
X218051095Y-96194571D01*
X217955857Y-96242190D01*
X217574904Y-96242190D01*
X219098714Y-96718380D02*
X218527285Y-96718380D01*
X218813000Y-96718380D02*
X218813000Y-95718380D01*
X218717761Y-95861238D01*
X218622523Y-95956476D01*
X218527285Y-96004095D01*
G04 #@! TO.C,R2*
X216495333Y-99385380D02*
X216162000Y-98909190D01*
X215923904Y-99385380D02*
X215923904Y-98385380D01*
X216304857Y-98385380D01*
X216400095Y-98433000D01*
X216447714Y-98480619D01*
X216495333Y-98575857D01*
X216495333Y-98718714D01*
X216447714Y-98813952D01*
X216400095Y-98861571D01*
X216304857Y-98909190D01*
X215923904Y-98909190D01*
X216876285Y-98480619D02*
X216923904Y-98433000D01*
X217019142Y-98385380D01*
X217257238Y-98385380D01*
X217352476Y-98433000D01*
X217400095Y-98480619D01*
X217447714Y-98575857D01*
X217447714Y-98671095D01*
X217400095Y-98813952D01*
X216828666Y-99385380D01*
X217447714Y-99385380D01*
G04 #@! TO.C,R3*
X221686380Y-80303666D02*
X221210190Y-80637000D01*
X221686380Y-80875095D02*
X220686380Y-80875095D01*
X220686380Y-80494142D01*
X220734000Y-80398904D01*
X220781619Y-80351285D01*
X220876857Y-80303666D01*
X221019714Y-80303666D01*
X221114952Y-80351285D01*
X221162571Y-80398904D01*
X221210190Y-80494142D01*
X221210190Y-80875095D01*
X220686380Y-79970333D02*
X220686380Y-79351285D01*
X221067333Y-79684619D01*
X221067333Y-79541761D01*
X221114952Y-79446523D01*
X221162571Y-79398904D01*
X221257809Y-79351285D01*
X221495904Y-79351285D01*
X221591142Y-79398904D01*
X221638761Y-79446523D01*
X221686380Y-79541761D01*
X221686380Y-79827476D01*
X221638761Y-79922714D01*
X221591142Y-79970333D01*
G04 #@! TO.C,R4*
X220114833Y-77287380D02*
X219781500Y-76811190D01*
X219543404Y-77287380D02*
X219543404Y-76287380D01*
X219924357Y-76287380D01*
X220019595Y-76335000D01*
X220067214Y-76382619D01*
X220114833Y-76477857D01*
X220114833Y-76620714D01*
X220067214Y-76715952D01*
X220019595Y-76763571D01*
X219924357Y-76811190D01*
X219543404Y-76811190D01*
X220971976Y-76620714D02*
X220971976Y-77287380D01*
X220733880Y-76239761D02*
X220495785Y-76954047D01*
X221114833Y-76954047D01*
G04 #@! TO.C,R5*
X181236880Y-86590166D02*
X180760690Y-86923500D01*
X181236880Y-87161595D02*
X180236880Y-87161595D01*
X180236880Y-86780642D01*
X180284500Y-86685404D01*
X180332119Y-86637785D01*
X180427357Y-86590166D01*
X180570214Y-86590166D01*
X180665452Y-86637785D01*
X180713071Y-86685404D01*
X180760690Y-86780642D01*
X180760690Y-87161595D01*
X180236880Y-85685404D02*
X180236880Y-86161595D01*
X180713071Y-86209214D01*
X180665452Y-86161595D01*
X180617833Y-86066357D01*
X180617833Y-85828261D01*
X180665452Y-85733023D01*
X180713071Y-85685404D01*
X180808309Y-85637785D01*
X181046404Y-85637785D01*
X181141642Y-85685404D01*
X181189261Y-85733023D01*
X181236880Y-85828261D01*
X181236880Y-86066357D01*
X181189261Y-86161595D01*
X181141642Y-86209214D01*
G04 #@! TO.C,R6*
X196540380Y-85320166D02*
X196064190Y-85653500D01*
X196540380Y-85891595D02*
X195540380Y-85891595D01*
X195540380Y-85510642D01*
X195588000Y-85415404D01*
X195635619Y-85367785D01*
X195730857Y-85320166D01*
X195873714Y-85320166D01*
X195968952Y-85367785D01*
X196016571Y-85415404D01*
X196064190Y-85510642D01*
X196064190Y-85891595D01*
X195540380Y-84463023D02*
X195540380Y-84653500D01*
X195588000Y-84748738D01*
X195635619Y-84796357D01*
X195778476Y-84891595D01*
X195968952Y-84939214D01*
X196349904Y-84939214D01*
X196445142Y-84891595D01*
X196492761Y-84843976D01*
X196540380Y-84748738D01*
X196540380Y-84558261D01*
X196492761Y-84463023D01*
X196445142Y-84415404D01*
X196349904Y-84367785D01*
X196111809Y-84367785D01*
X196016571Y-84415404D01*
X195968952Y-84463023D01*
X195921333Y-84558261D01*
X195921333Y-84748738D01*
X195968952Y-84843976D01*
X196016571Y-84891595D01*
X196111809Y-84939214D01*
G04 #@! TO.C,R7*
X184538880Y-76239666D02*
X184062690Y-76573000D01*
X184538880Y-76811095D02*
X183538880Y-76811095D01*
X183538880Y-76430142D01*
X183586500Y-76334904D01*
X183634119Y-76287285D01*
X183729357Y-76239666D01*
X183872214Y-76239666D01*
X183967452Y-76287285D01*
X184015071Y-76334904D01*
X184062690Y-76430142D01*
X184062690Y-76811095D01*
X183538880Y-75906333D02*
X183538880Y-75239666D01*
X184538880Y-75668238D01*
G04 #@! TO.C,R9*
X218590833Y-84145380D02*
X218257500Y-83669190D01*
X218019404Y-84145380D02*
X218019404Y-83145380D01*
X218400357Y-83145380D01*
X218495595Y-83193000D01*
X218543214Y-83240619D01*
X218590833Y-83335857D01*
X218590833Y-83478714D01*
X218543214Y-83573952D01*
X218495595Y-83621571D01*
X218400357Y-83669190D01*
X218019404Y-83669190D01*
X219067023Y-84145380D02*
X219257500Y-84145380D01*
X219352738Y-84097761D01*
X219400357Y-84050142D01*
X219495595Y-83907285D01*
X219543214Y-83716809D01*
X219543214Y-83335857D01*
X219495595Y-83240619D01*
X219447976Y-83193000D01*
X219352738Y-83145380D01*
X219162261Y-83145380D01*
X219067023Y-83193000D01*
X219019404Y-83240619D01*
X218971785Y-83335857D01*
X218971785Y-83573952D01*
X219019404Y-83669190D01*
X219067023Y-83716809D01*
X219162261Y-83764428D01*
X219352738Y-83764428D01*
X219447976Y-83716809D01*
X219495595Y-83669190D01*
X219543214Y-83573952D01*
G04 #@! TO.C,R10*
X145724642Y-68143380D02*
X145391309Y-67667190D01*
X145153214Y-68143380D02*
X145153214Y-67143380D01*
X145534166Y-67143380D01*
X145629404Y-67191000D01*
X145677023Y-67238619D01*
X145724642Y-67333857D01*
X145724642Y-67476714D01*
X145677023Y-67571952D01*
X145629404Y-67619571D01*
X145534166Y-67667190D01*
X145153214Y-67667190D01*
X146677023Y-68143380D02*
X146105595Y-68143380D01*
X146391309Y-68143380D02*
X146391309Y-67143380D01*
X146296071Y-67286238D01*
X146200833Y-67381476D01*
X146105595Y-67429095D01*
X147296071Y-67143380D02*
X147391309Y-67143380D01*
X147486547Y-67191000D01*
X147534166Y-67238619D01*
X147581785Y-67333857D01*
X147629404Y-67524333D01*
X147629404Y-67762428D01*
X147581785Y-67952904D01*
X147534166Y-68048142D01*
X147486547Y-68095761D01*
X147391309Y-68143380D01*
X147296071Y-68143380D01*
X147200833Y-68095761D01*
X147153214Y-68048142D01*
X147105595Y-67952904D01*
X147057976Y-67762428D01*
X147057976Y-67524333D01*
X147105595Y-67333857D01*
X147153214Y-67238619D01*
X147200833Y-67191000D01*
X147296071Y-67143380D01*
G04 #@! TO.C,R11*
X153916142Y-71859380D02*
X153582809Y-71383190D01*
X153344714Y-71859380D02*
X153344714Y-70859380D01*
X153725666Y-70859380D01*
X153820904Y-70907000D01*
X153868523Y-70954619D01*
X153916142Y-71049857D01*
X153916142Y-71192714D01*
X153868523Y-71287952D01*
X153820904Y-71335571D01*
X153725666Y-71383190D01*
X153344714Y-71383190D01*
X154868523Y-71859380D02*
X154297095Y-71859380D01*
X154582809Y-71859380D02*
X154582809Y-70859380D01*
X154487571Y-71002238D01*
X154392333Y-71097476D01*
X154297095Y-71145095D01*
X155820904Y-71859380D02*
X155249476Y-71859380D01*
X155535190Y-71859380D02*
X155535190Y-70859380D01*
X155439952Y-71002238D01*
X155344714Y-71097476D01*
X155249476Y-71145095D01*
G04 #@! TO.C,R12*
X201414142Y-75318880D02*
X201080809Y-74842690D01*
X200842714Y-75318880D02*
X200842714Y-74318880D01*
X201223666Y-74318880D01*
X201318904Y-74366500D01*
X201366523Y-74414119D01*
X201414142Y-74509357D01*
X201414142Y-74652214D01*
X201366523Y-74747452D01*
X201318904Y-74795071D01*
X201223666Y-74842690D01*
X200842714Y-74842690D01*
X202366523Y-75318880D02*
X201795095Y-75318880D01*
X202080809Y-75318880D02*
X202080809Y-74318880D01*
X201985571Y-74461738D01*
X201890333Y-74556976D01*
X201795095Y-74604595D01*
X202747476Y-74414119D02*
X202795095Y-74366500D01*
X202890333Y-74318880D01*
X203128428Y-74318880D01*
X203223666Y-74366500D01*
X203271285Y-74414119D01*
X203318904Y-74509357D01*
X203318904Y-74604595D01*
X203271285Y-74747452D01*
X202699857Y-75318880D01*
X203318904Y-75318880D01*
G04 #@! TO.C,R13*
X169219642Y-78303380D02*
X168886309Y-77827190D01*
X168648214Y-78303380D02*
X168648214Y-77303380D01*
X169029166Y-77303380D01*
X169124404Y-77351000D01*
X169172023Y-77398619D01*
X169219642Y-77493857D01*
X169219642Y-77636714D01*
X169172023Y-77731952D01*
X169124404Y-77779571D01*
X169029166Y-77827190D01*
X168648214Y-77827190D01*
X170172023Y-78303380D02*
X169600595Y-78303380D01*
X169886309Y-78303380D02*
X169886309Y-77303380D01*
X169791071Y-77446238D01*
X169695833Y-77541476D01*
X169600595Y-77589095D01*
X170505357Y-77303380D02*
X171124404Y-77303380D01*
X170791071Y-77684333D01*
X170933928Y-77684333D01*
X171029166Y-77731952D01*
X171076785Y-77779571D01*
X171124404Y-77874809D01*
X171124404Y-78112904D01*
X171076785Y-78208142D01*
X171029166Y-78255761D01*
X170933928Y-78303380D01*
X170648214Y-78303380D01*
X170552976Y-78255761D01*
X170505357Y-78208142D01*
G04 #@! TO.C,R14*
X217416142Y-102369880D02*
X217082809Y-101893690D01*
X216844714Y-102369880D02*
X216844714Y-101369880D01*
X217225666Y-101369880D01*
X217320904Y-101417500D01*
X217368523Y-101465119D01*
X217416142Y-101560357D01*
X217416142Y-101703214D01*
X217368523Y-101798452D01*
X217320904Y-101846071D01*
X217225666Y-101893690D01*
X216844714Y-101893690D01*
X218368523Y-102369880D02*
X217797095Y-102369880D01*
X218082809Y-102369880D02*
X218082809Y-101369880D01*
X217987571Y-101512738D01*
X217892333Y-101607976D01*
X217797095Y-101655595D01*
X219225666Y-101703214D02*
X219225666Y-102369880D01*
X218987571Y-101322261D02*
X218749476Y-102036547D01*
X219368523Y-102036547D01*
G04 #@! TO.C,R15*
X226098380Y-78126857D02*
X225622190Y-78460190D01*
X226098380Y-78698285D02*
X225098380Y-78698285D01*
X225098380Y-78317333D01*
X225146000Y-78222095D01*
X225193619Y-78174476D01*
X225288857Y-78126857D01*
X225431714Y-78126857D01*
X225526952Y-78174476D01*
X225574571Y-78222095D01*
X225622190Y-78317333D01*
X225622190Y-78698285D01*
X226098380Y-77174476D02*
X226098380Y-77745904D01*
X226098380Y-77460190D02*
X225098380Y-77460190D01*
X225241238Y-77555428D01*
X225336476Y-77650666D01*
X225384095Y-77745904D01*
X225098380Y-76269714D02*
X225098380Y-76745904D01*
X225574571Y-76793523D01*
X225526952Y-76745904D01*
X225479333Y-76650666D01*
X225479333Y-76412571D01*
X225526952Y-76317333D01*
X225574571Y-76269714D01*
X225669809Y-76222095D01*
X225907904Y-76222095D01*
X226003142Y-76269714D01*
X226050761Y-76317333D01*
X226098380Y-76412571D01*
X226098380Y-76650666D01*
X226050761Y-76745904D01*
X226003142Y-76793523D01*
G04 #@! TO.C,R16*
X165488880Y-82367357D02*
X165012690Y-82700690D01*
X165488880Y-82938785D02*
X164488880Y-82938785D01*
X164488880Y-82557833D01*
X164536500Y-82462595D01*
X164584119Y-82414976D01*
X164679357Y-82367357D01*
X164822214Y-82367357D01*
X164917452Y-82414976D01*
X164965071Y-82462595D01*
X165012690Y-82557833D01*
X165012690Y-82938785D01*
X165488880Y-81414976D02*
X165488880Y-81986404D01*
X165488880Y-81700690D02*
X164488880Y-81700690D01*
X164631738Y-81795928D01*
X164726976Y-81891166D01*
X164774595Y-81986404D01*
X164488880Y-80557833D02*
X164488880Y-80748309D01*
X164536500Y-80843547D01*
X164584119Y-80891166D01*
X164726976Y-80986404D01*
X164917452Y-81034023D01*
X165298404Y-81034023D01*
X165393642Y-80986404D01*
X165441261Y-80938785D01*
X165488880Y-80843547D01*
X165488880Y-80653071D01*
X165441261Y-80557833D01*
X165393642Y-80510214D01*
X165298404Y-80462595D01*
X165060309Y-80462595D01*
X164965071Y-80510214D01*
X164917452Y-80557833D01*
X164869833Y-80653071D01*
X164869833Y-80843547D01*
X164917452Y-80938785D01*
X164965071Y-80986404D01*
X165060309Y-81034023D01*
G04 #@! TO.C,R17*
X197096142Y-75318880D02*
X196762809Y-74842690D01*
X196524714Y-75318880D02*
X196524714Y-74318880D01*
X196905666Y-74318880D01*
X197000904Y-74366500D01*
X197048523Y-74414119D01*
X197096142Y-74509357D01*
X197096142Y-74652214D01*
X197048523Y-74747452D01*
X197000904Y-74795071D01*
X196905666Y-74842690D01*
X196524714Y-74842690D01*
X198048523Y-75318880D02*
X197477095Y-75318880D01*
X197762809Y-75318880D02*
X197762809Y-74318880D01*
X197667571Y-74461738D01*
X197572333Y-74556976D01*
X197477095Y-74604595D01*
X198381857Y-74318880D02*
X199048523Y-74318880D01*
X198619952Y-75318880D01*
G04 #@! TO.C,R18*
X166616142Y-68333880D02*
X166282809Y-67857690D01*
X166044714Y-68333880D02*
X166044714Y-67333880D01*
X166425666Y-67333880D01*
X166520904Y-67381500D01*
X166568523Y-67429119D01*
X166616142Y-67524357D01*
X166616142Y-67667214D01*
X166568523Y-67762452D01*
X166520904Y-67810071D01*
X166425666Y-67857690D01*
X166044714Y-67857690D01*
X167568523Y-68333880D02*
X166997095Y-68333880D01*
X167282809Y-68333880D02*
X167282809Y-67333880D01*
X167187571Y-67476738D01*
X167092333Y-67571976D01*
X166997095Y-67619595D01*
X168139952Y-67762452D02*
X168044714Y-67714833D01*
X167997095Y-67667214D01*
X167949476Y-67571976D01*
X167949476Y-67524357D01*
X167997095Y-67429119D01*
X168044714Y-67381500D01*
X168139952Y-67333880D01*
X168330428Y-67333880D01*
X168425666Y-67381500D01*
X168473285Y-67429119D01*
X168520904Y-67524357D01*
X168520904Y-67571976D01*
X168473285Y-67667214D01*
X168425666Y-67714833D01*
X168330428Y-67762452D01*
X168139952Y-67762452D01*
X168044714Y-67810071D01*
X167997095Y-67857690D01*
X167949476Y-67952928D01*
X167949476Y-68143404D01*
X167997095Y-68238642D01*
X168044714Y-68286261D01*
X168139952Y-68333880D01*
X168330428Y-68333880D01*
X168425666Y-68286261D01*
X168473285Y-68238642D01*
X168520904Y-68143404D01*
X168520904Y-67952928D01*
X168473285Y-67857690D01*
X168425666Y-67810071D01*
X168330428Y-67762452D01*
G04 #@! TO.C,R19*
X144708642Y-91605380D02*
X144375309Y-91129190D01*
X144137214Y-91605380D02*
X144137214Y-90605380D01*
X144518166Y-90605380D01*
X144613404Y-90653000D01*
X144661023Y-90700619D01*
X144708642Y-90795857D01*
X144708642Y-90938714D01*
X144661023Y-91033952D01*
X144613404Y-91081571D01*
X144518166Y-91129190D01*
X144137214Y-91129190D01*
X145661023Y-91605380D02*
X145089595Y-91605380D01*
X145375309Y-91605380D02*
X145375309Y-90605380D01*
X145280071Y-90748238D01*
X145184833Y-90843476D01*
X145089595Y-90891095D01*
X146137214Y-91605380D02*
X146327690Y-91605380D01*
X146422928Y-91557761D01*
X146470547Y-91510142D01*
X146565785Y-91367285D01*
X146613404Y-91176809D01*
X146613404Y-90795857D01*
X146565785Y-90700619D01*
X146518166Y-90653000D01*
X146422928Y-90605380D01*
X146232452Y-90605380D01*
X146137214Y-90653000D01*
X146089595Y-90700619D01*
X146041976Y-90795857D01*
X146041976Y-91033952D01*
X146089595Y-91129190D01*
X146137214Y-91176809D01*
X146232452Y-91224428D01*
X146422928Y-91224428D01*
X146518166Y-91176809D01*
X146565785Y-91129190D01*
X146613404Y-91033952D01*
G04 #@! TO.C,R20*
X163583880Y-92844857D02*
X163107690Y-93178190D01*
X163583880Y-93416285D02*
X162583880Y-93416285D01*
X162583880Y-93035333D01*
X162631500Y-92940095D01*
X162679119Y-92892476D01*
X162774357Y-92844857D01*
X162917214Y-92844857D01*
X163012452Y-92892476D01*
X163060071Y-92940095D01*
X163107690Y-93035333D01*
X163107690Y-93416285D01*
X162679119Y-92463904D02*
X162631500Y-92416285D01*
X162583880Y-92321047D01*
X162583880Y-92082952D01*
X162631500Y-91987714D01*
X162679119Y-91940095D01*
X162774357Y-91892476D01*
X162869595Y-91892476D01*
X163012452Y-91940095D01*
X163583880Y-92511523D01*
X163583880Y-91892476D01*
X162583880Y-91273428D02*
X162583880Y-91178190D01*
X162631500Y-91082952D01*
X162679119Y-91035333D01*
X162774357Y-90987714D01*
X162964833Y-90940095D01*
X163202928Y-90940095D01*
X163393404Y-90987714D01*
X163488642Y-91035333D01*
X163536261Y-91082952D01*
X163583880Y-91178190D01*
X163583880Y-91273428D01*
X163536261Y-91368666D01*
X163488642Y-91416285D01*
X163393404Y-91463904D01*
X163202928Y-91511523D01*
X162964833Y-91511523D01*
X162774357Y-91463904D01*
X162679119Y-91416285D01*
X162631500Y-91368666D01*
X162583880Y-91273428D01*
G04 #@! TO.C,R21*
X141343142Y-89573380D02*
X141009809Y-89097190D01*
X140771714Y-89573380D02*
X140771714Y-88573380D01*
X141152666Y-88573380D01*
X141247904Y-88621000D01*
X141295523Y-88668619D01*
X141343142Y-88763857D01*
X141343142Y-88906714D01*
X141295523Y-89001952D01*
X141247904Y-89049571D01*
X141152666Y-89097190D01*
X140771714Y-89097190D01*
X141724095Y-88668619D02*
X141771714Y-88621000D01*
X141866952Y-88573380D01*
X142105047Y-88573380D01*
X142200285Y-88621000D01*
X142247904Y-88668619D01*
X142295523Y-88763857D01*
X142295523Y-88859095D01*
X142247904Y-89001952D01*
X141676476Y-89573380D01*
X142295523Y-89573380D01*
X143247904Y-89573380D02*
X142676476Y-89573380D01*
X142962190Y-89573380D02*
X142962190Y-88573380D01*
X142866952Y-88716238D01*
X142771714Y-88811476D01*
X142676476Y-88859095D01*
G04 #@! TO.C,R22*
X146042142Y-82113380D02*
X145708809Y-81637190D01*
X145470714Y-82113380D02*
X145470714Y-81113380D01*
X145851666Y-81113380D01*
X145946904Y-81161000D01*
X145994523Y-81208619D01*
X146042142Y-81303857D01*
X146042142Y-81446714D01*
X145994523Y-81541952D01*
X145946904Y-81589571D01*
X145851666Y-81637190D01*
X145470714Y-81637190D01*
X146423095Y-81208619D02*
X146470714Y-81161000D01*
X146565952Y-81113380D01*
X146804047Y-81113380D01*
X146899285Y-81161000D01*
X146946904Y-81208619D01*
X146994523Y-81303857D01*
X146994523Y-81399095D01*
X146946904Y-81541952D01*
X146375476Y-82113380D01*
X146994523Y-82113380D01*
X147375476Y-81208619D02*
X147423095Y-81161000D01*
X147518333Y-81113380D01*
X147756428Y-81113380D01*
X147851666Y-81161000D01*
X147899285Y-81208619D01*
X147946904Y-81303857D01*
X147946904Y-81399095D01*
X147899285Y-81541952D01*
X147327857Y-82113380D01*
X147946904Y-82113380D01*
G04 #@! TO.C,R23*
X145041880Y-89352357D02*
X144565690Y-89685690D01*
X145041880Y-89923785D02*
X144041880Y-89923785D01*
X144041880Y-89542833D01*
X144089500Y-89447595D01*
X144137119Y-89399976D01*
X144232357Y-89352357D01*
X144375214Y-89352357D01*
X144470452Y-89399976D01*
X144518071Y-89447595D01*
X144565690Y-89542833D01*
X144565690Y-89923785D01*
X144137119Y-88971404D02*
X144089500Y-88923785D01*
X144041880Y-88828547D01*
X144041880Y-88590452D01*
X144089500Y-88495214D01*
X144137119Y-88447595D01*
X144232357Y-88399976D01*
X144327595Y-88399976D01*
X144470452Y-88447595D01*
X145041880Y-89019023D01*
X145041880Y-88399976D01*
X144041880Y-88066642D02*
X144041880Y-87447595D01*
X144422833Y-87780928D01*
X144422833Y-87638071D01*
X144470452Y-87542833D01*
X144518071Y-87495214D01*
X144613309Y-87447595D01*
X144851404Y-87447595D01*
X144946642Y-87495214D01*
X144994261Y-87542833D01*
X145041880Y-87638071D01*
X145041880Y-87923785D01*
X144994261Y-88019023D01*
X144946642Y-88066642D01*
G04 #@! TO.C,R24*
X142803642Y-80906880D02*
X142470309Y-80430690D01*
X142232214Y-80906880D02*
X142232214Y-79906880D01*
X142613166Y-79906880D01*
X142708404Y-79954500D01*
X142756023Y-80002119D01*
X142803642Y-80097357D01*
X142803642Y-80240214D01*
X142756023Y-80335452D01*
X142708404Y-80383071D01*
X142613166Y-80430690D01*
X142232214Y-80430690D01*
X143184595Y-80002119D02*
X143232214Y-79954500D01*
X143327452Y-79906880D01*
X143565547Y-79906880D01*
X143660785Y-79954500D01*
X143708404Y-80002119D01*
X143756023Y-80097357D01*
X143756023Y-80192595D01*
X143708404Y-80335452D01*
X143136976Y-80906880D01*
X143756023Y-80906880D01*
X144613166Y-80240214D02*
X144613166Y-80906880D01*
X144375071Y-79859261D02*
X144136976Y-80573547D01*
X144756023Y-80573547D01*
G04 #@! TO.C,R25*
X136517142Y-67254380D02*
X136183809Y-66778190D01*
X135945714Y-67254380D02*
X135945714Y-66254380D01*
X136326666Y-66254380D01*
X136421904Y-66302000D01*
X136469523Y-66349619D01*
X136517142Y-66444857D01*
X136517142Y-66587714D01*
X136469523Y-66682952D01*
X136421904Y-66730571D01*
X136326666Y-66778190D01*
X135945714Y-66778190D01*
X136898095Y-66349619D02*
X136945714Y-66302000D01*
X137040952Y-66254380D01*
X137279047Y-66254380D01*
X137374285Y-66302000D01*
X137421904Y-66349619D01*
X137469523Y-66444857D01*
X137469523Y-66540095D01*
X137421904Y-66682952D01*
X136850476Y-67254380D01*
X137469523Y-67254380D01*
X138374285Y-66254380D02*
X137898095Y-66254380D01*
X137850476Y-66730571D01*
X137898095Y-66682952D01*
X137993333Y-66635333D01*
X138231428Y-66635333D01*
X138326666Y-66682952D01*
X138374285Y-66730571D01*
X138421904Y-66825809D01*
X138421904Y-67063904D01*
X138374285Y-67159142D01*
X138326666Y-67206761D01*
X138231428Y-67254380D01*
X137993333Y-67254380D01*
X137898095Y-67206761D01*
X137850476Y-67159142D01*
G04 #@! TO.C,R26*
X144645142Y-77952880D02*
X144311809Y-77476690D01*
X144073714Y-77952880D02*
X144073714Y-76952880D01*
X144454666Y-76952880D01*
X144549904Y-77000500D01*
X144597523Y-77048119D01*
X144645142Y-77143357D01*
X144645142Y-77286214D01*
X144597523Y-77381452D01*
X144549904Y-77429071D01*
X144454666Y-77476690D01*
X144073714Y-77476690D01*
X145026095Y-77048119D02*
X145073714Y-77000500D01*
X145168952Y-76952880D01*
X145407047Y-76952880D01*
X145502285Y-77000500D01*
X145549904Y-77048119D01*
X145597523Y-77143357D01*
X145597523Y-77238595D01*
X145549904Y-77381452D01*
X144978476Y-77952880D01*
X145597523Y-77952880D01*
X146454666Y-76952880D02*
X146264190Y-76952880D01*
X146168952Y-77000500D01*
X146121333Y-77048119D01*
X146026095Y-77190976D01*
X145978476Y-77381452D01*
X145978476Y-77762404D01*
X146026095Y-77857642D01*
X146073714Y-77905261D01*
X146168952Y-77952880D01*
X146359428Y-77952880D01*
X146454666Y-77905261D01*
X146502285Y-77857642D01*
X146549904Y-77762404D01*
X146549904Y-77524309D01*
X146502285Y-77429071D01*
X146454666Y-77381452D01*
X146359428Y-77333833D01*
X146168952Y-77333833D01*
X146073714Y-77381452D01*
X146026095Y-77429071D01*
X145978476Y-77524309D01*
G04 #@! TO.C,R27*
X123817142Y-90368380D02*
X123483809Y-89892190D01*
X123245714Y-90368380D02*
X123245714Y-89368380D01*
X123626666Y-89368380D01*
X123721904Y-89416000D01*
X123769523Y-89463619D01*
X123817142Y-89558857D01*
X123817142Y-89701714D01*
X123769523Y-89796952D01*
X123721904Y-89844571D01*
X123626666Y-89892190D01*
X123245714Y-89892190D01*
X124198095Y-89463619D02*
X124245714Y-89416000D01*
X124340952Y-89368380D01*
X124579047Y-89368380D01*
X124674285Y-89416000D01*
X124721904Y-89463619D01*
X124769523Y-89558857D01*
X124769523Y-89654095D01*
X124721904Y-89796952D01*
X124150476Y-90368380D01*
X124769523Y-90368380D01*
X125102857Y-89368380D02*
X125769523Y-89368380D01*
X125340952Y-90368380D01*
G04 #@! TO.C,R28*
X116578142Y-82557880D02*
X116244809Y-82081690D01*
X116006714Y-82557880D02*
X116006714Y-81557880D01*
X116387666Y-81557880D01*
X116482904Y-81605500D01*
X116530523Y-81653119D01*
X116578142Y-81748357D01*
X116578142Y-81891214D01*
X116530523Y-81986452D01*
X116482904Y-82034071D01*
X116387666Y-82081690D01*
X116006714Y-82081690D01*
X116959095Y-81653119D02*
X117006714Y-81605500D01*
X117101952Y-81557880D01*
X117340047Y-81557880D01*
X117435285Y-81605500D01*
X117482904Y-81653119D01*
X117530523Y-81748357D01*
X117530523Y-81843595D01*
X117482904Y-81986452D01*
X116911476Y-82557880D01*
X117530523Y-82557880D01*
X118101952Y-81986452D02*
X118006714Y-81938833D01*
X117959095Y-81891214D01*
X117911476Y-81795976D01*
X117911476Y-81748357D01*
X117959095Y-81653119D01*
X118006714Y-81605500D01*
X118101952Y-81557880D01*
X118292428Y-81557880D01*
X118387666Y-81605500D01*
X118435285Y-81653119D01*
X118482904Y-81748357D01*
X118482904Y-81795976D01*
X118435285Y-81891214D01*
X118387666Y-81938833D01*
X118292428Y-81986452D01*
X118101952Y-81986452D01*
X118006714Y-82034071D01*
X117959095Y-82081690D01*
X117911476Y-82176928D01*
X117911476Y-82367404D01*
X117959095Y-82462642D01*
X118006714Y-82510261D01*
X118101952Y-82557880D01*
X118292428Y-82557880D01*
X118387666Y-82510261D01*
X118435285Y-82462642D01*
X118482904Y-82367404D01*
X118482904Y-82176928D01*
X118435285Y-82081690D01*
X118387666Y-82034071D01*
X118292428Y-81986452D01*
G04 #@! TO.C,R29*
X126801642Y-81541880D02*
X126468309Y-81065690D01*
X126230214Y-81541880D02*
X126230214Y-80541880D01*
X126611166Y-80541880D01*
X126706404Y-80589500D01*
X126754023Y-80637119D01*
X126801642Y-80732357D01*
X126801642Y-80875214D01*
X126754023Y-80970452D01*
X126706404Y-81018071D01*
X126611166Y-81065690D01*
X126230214Y-81065690D01*
X127182595Y-80637119D02*
X127230214Y-80589500D01*
X127325452Y-80541880D01*
X127563547Y-80541880D01*
X127658785Y-80589500D01*
X127706404Y-80637119D01*
X127754023Y-80732357D01*
X127754023Y-80827595D01*
X127706404Y-80970452D01*
X127134976Y-81541880D01*
X127754023Y-81541880D01*
X128230214Y-81541880D02*
X128420690Y-81541880D01*
X128515928Y-81494261D01*
X128563547Y-81446642D01*
X128658785Y-81303785D01*
X128706404Y-81113309D01*
X128706404Y-80732357D01*
X128658785Y-80637119D01*
X128611166Y-80589500D01*
X128515928Y-80541880D01*
X128325452Y-80541880D01*
X128230214Y-80589500D01*
X128182595Y-80637119D01*
X128134976Y-80732357D01*
X128134976Y-80970452D01*
X128182595Y-81065690D01*
X128230214Y-81113309D01*
X128325452Y-81160928D01*
X128515928Y-81160928D01*
X128611166Y-81113309D01*
X128658785Y-81065690D01*
X128706404Y-80970452D01*
G04 #@! TO.C,R30*
X130103642Y-81541880D02*
X129770309Y-81065690D01*
X129532214Y-81541880D02*
X129532214Y-80541880D01*
X129913166Y-80541880D01*
X130008404Y-80589500D01*
X130056023Y-80637119D01*
X130103642Y-80732357D01*
X130103642Y-80875214D01*
X130056023Y-80970452D01*
X130008404Y-81018071D01*
X129913166Y-81065690D01*
X129532214Y-81065690D01*
X130436976Y-80541880D02*
X131056023Y-80541880D01*
X130722690Y-80922833D01*
X130865547Y-80922833D01*
X130960785Y-80970452D01*
X131008404Y-81018071D01*
X131056023Y-81113309D01*
X131056023Y-81351404D01*
X131008404Y-81446642D01*
X130960785Y-81494261D01*
X130865547Y-81541880D01*
X130579833Y-81541880D01*
X130484595Y-81494261D01*
X130436976Y-81446642D01*
X131675071Y-80541880D02*
X131770309Y-80541880D01*
X131865547Y-80589500D01*
X131913166Y-80637119D01*
X131960785Y-80732357D01*
X132008404Y-80922833D01*
X132008404Y-81160928D01*
X131960785Y-81351404D01*
X131913166Y-81446642D01*
X131865547Y-81494261D01*
X131770309Y-81541880D01*
X131675071Y-81541880D01*
X131579833Y-81494261D01*
X131532214Y-81446642D01*
X131484595Y-81351404D01*
X131436976Y-81160928D01*
X131436976Y-80922833D01*
X131484595Y-80732357D01*
X131532214Y-80637119D01*
X131579833Y-80589500D01*
X131675071Y-80541880D01*
G04 #@! TO.C,R33*
X148137642Y-94559380D02*
X147804309Y-94083190D01*
X147566214Y-94559380D02*
X147566214Y-93559380D01*
X147947166Y-93559380D01*
X148042404Y-93607000D01*
X148090023Y-93654619D01*
X148137642Y-93749857D01*
X148137642Y-93892714D01*
X148090023Y-93987952D01*
X148042404Y-94035571D01*
X147947166Y-94083190D01*
X147566214Y-94083190D01*
X148470976Y-93559380D02*
X149090023Y-93559380D01*
X148756690Y-93940333D01*
X148899547Y-93940333D01*
X148994785Y-93987952D01*
X149042404Y-94035571D01*
X149090023Y-94130809D01*
X149090023Y-94368904D01*
X149042404Y-94464142D01*
X148994785Y-94511761D01*
X148899547Y-94559380D01*
X148613833Y-94559380D01*
X148518595Y-94511761D01*
X148470976Y-94464142D01*
X149423357Y-93559380D02*
X150042404Y-93559380D01*
X149709071Y-93940333D01*
X149851928Y-93940333D01*
X149947166Y-93987952D01*
X149994785Y-94035571D01*
X150042404Y-94130809D01*
X150042404Y-94368904D01*
X149994785Y-94464142D01*
X149947166Y-94511761D01*
X149851928Y-94559380D01*
X149566214Y-94559380D01*
X149470976Y-94511761D01*
X149423357Y-94464142D01*
G04 #@! TO.C,R34*
X141724142Y-101607880D02*
X141390809Y-101131690D01*
X141152714Y-101607880D02*
X141152714Y-100607880D01*
X141533666Y-100607880D01*
X141628904Y-100655500D01*
X141676523Y-100703119D01*
X141724142Y-100798357D01*
X141724142Y-100941214D01*
X141676523Y-101036452D01*
X141628904Y-101084071D01*
X141533666Y-101131690D01*
X141152714Y-101131690D01*
X142057476Y-100607880D02*
X142676523Y-100607880D01*
X142343190Y-100988833D01*
X142486047Y-100988833D01*
X142581285Y-101036452D01*
X142628904Y-101084071D01*
X142676523Y-101179309D01*
X142676523Y-101417404D01*
X142628904Y-101512642D01*
X142581285Y-101560261D01*
X142486047Y-101607880D01*
X142200333Y-101607880D01*
X142105095Y-101560261D01*
X142057476Y-101512642D01*
X143533666Y-100941214D02*
X143533666Y-101607880D01*
X143295571Y-100560261D02*
X143057476Y-101274547D01*
X143676523Y-101274547D01*
G04 #@! TO.C,R35*
X164711142Y-107724380D02*
X164377809Y-107248190D01*
X164139714Y-107724380D02*
X164139714Y-106724380D01*
X164520666Y-106724380D01*
X164615904Y-106772000D01*
X164663523Y-106819619D01*
X164711142Y-106914857D01*
X164711142Y-107057714D01*
X164663523Y-107152952D01*
X164615904Y-107200571D01*
X164520666Y-107248190D01*
X164139714Y-107248190D01*
X165044476Y-106724380D02*
X165663523Y-106724380D01*
X165330190Y-107105333D01*
X165473047Y-107105333D01*
X165568285Y-107152952D01*
X165615904Y-107200571D01*
X165663523Y-107295809D01*
X165663523Y-107533904D01*
X165615904Y-107629142D01*
X165568285Y-107676761D01*
X165473047Y-107724380D01*
X165187333Y-107724380D01*
X165092095Y-107676761D01*
X165044476Y-107629142D01*
X166568285Y-106724380D02*
X166092095Y-106724380D01*
X166044476Y-107200571D01*
X166092095Y-107152952D01*
X166187333Y-107105333D01*
X166425428Y-107105333D01*
X166520666Y-107152952D01*
X166568285Y-107200571D01*
X166615904Y-107295809D01*
X166615904Y-107533904D01*
X166568285Y-107629142D01*
X166520666Y-107676761D01*
X166425428Y-107724380D01*
X166187333Y-107724380D01*
X166092095Y-107676761D01*
X166044476Y-107629142D01*
G04 #@! TO.C,R36*
X136453642Y-104084380D02*
X136120309Y-103608190D01*
X135882214Y-104084380D02*
X135882214Y-103084380D01*
X136263166Y-103084380D01*
X136358404Y-103132000D01*
X136406023Y-103179619D01*
X136453642Y-103274857D01*
X136453642Y-103417714D01*
X136406023Y-103512952D01*
X136358404Y-103560571D01*
X136263166Y-103608190D01*
X135882214Y-103608190D01*
X136786976Y-103084380D02*
X137406023Y-103084380D01*
X137072690Y-103465333D01*
X137215547Y-103465333D01*
X137310785Y-103512952D01*
X137358404Y-103560571D01*
X137406023Y-103655809D01*
X137406023Y-103893904D01*
X137358404Y-103989142D01*
X137310785Y-104036761D01*
X137215547Y-104084380D01*
X136929833Y-104084380D01*
X136834595Y-104036761D01*
X136786976Y-103989142D01*
X138263166Y-103084380D02*
X138072690Y-103084380D01*
X137977452Y-103132000D01*
X137929833Y-103179619D01*
X137834595Y-103322476D01*
X137786976Y-103512952D01*
X137786976Y-103893904D01*
X137834595Y-103989142D01*
X137882214Y-104036761D01*
X137977452Y-104084380D01*
X138167928Y-104084380D01*
X138263166Y-104036761D01*
X138310785Y-103989142D01*
X138358404Y-103893904D01*
X138358404Y-103655809D01*
X138310785Y-103560571D01*
X138263166Y-103512952D01*
X138167928Y-103465333D01*
X137977452Y-103465333D01*
X137882214Y-103512952D01*
X137834595Y-103560571D01*
X137786976Y-103655809D01*
G04 #@! TO.C,R37*
X132707142Y-111958380D02*
X132373809Y-111482190D01*
X132135714Y-111958380D02*
X132135714Y-110958380D01*
X132516666Y-110958380D01*
X132611904Y-111006000D01*
X132659523Y-111053619D01*
X132707142Y-111148857D01*
X132707142Y-111291714D01*
X132659523Y-111386952D01*
X132611904Y-111434571D01*
X132516666Y-111482190D01*
X132135714Y-111482190D01*
X133040476Y-110958380D02*
X133659523Y-110958380D01*
X133326190Y-111339333D01*
X133469047Y-111339333D01*
X133564285Y-111386952D01*
X133611904Y-111434571D01*
X133659523Y-111529809D01*
X133659523Y-111767904D01*
X133611904Y-111863142D01*
X133564285Y-111910761D01*
X133469047Y-111958380D01*
X133183333Y-111958380D01*
X133088095Y-111910761D01*
X133040476Y-111863142D01*
X133992857Y-110958380D02*
X134659523Y-110958380D01*
X134230952Y-111958380D01*
G04 #@! TO.C,R38*
X225861642Y-95257880D02*
X225528309Y-94781690D01*
X225290214Y-95257880D02*
X225290214Y-94257880D01*
X225671166Y-94257880D01*
X225766404Y-94305500D01*
X225814023Y-94353119D01*
X225861642Y-94448357D01*
X225861642Y-94591214D01*
X225814023Y-94686452D01*
X225766404Y-94734071D01*
X225671166Y-94781690D01*
X225290214Y-94781690D01*
X226194976Y-94257880D02*
X226814023Y-94257880D01*
X226480690Y-94638833D01*
X226623547Y-94638833D01*
X226718785Y-94686452D01*
X226766404Y-94734071D01*
X226814023Y-94829309D01*
X226814023Y-95067404D01*
X226766404Y-95162642D01*
X226718785Y-95210261D01*
X226623547Y-95257880D01*
X226337833Y-95257880D01*
X226242595Y-95210261D01*
X226194976Y-95162642D01*
X227385452Y-94686452D02*
X227290214Y-94638833D01*
X227242595Y-94591214D01*
X227194976Y-94495976D01*
X227194976Y-94448357D01*
X227242595Y-94353119D01*
X227290214Y-94305500D01*
X227385452Y-94257880D01*
X227575928Y-94257880D01*
X227671166Y-94305500D01*
X227718785Y-94353119D01*
X227766404Y-94448357D01*
X227766404Y-94495976D01*
X227718785Y-94591214D01*
X227671166Y-94638833D01*
X227575928Y-94686452D01*
X227385452Y-94686452D01*
X227290214Y-94734071D01*
X227242595Y-94781690D01*
X227194976Y-94876928D01*
X227194976Y-95067404D01*
X227242595Y-95162642D01*
X227290214Y-95210261D01*
X227385452Y-95257880D01*
X227575928Y-95257880D01*
X227671166Y-95210261D01*
X227718785Y-95162642D01*
X227766404Y-95067404D01*
X227766404Y-94876928D01*
X227718785Y-94781690D01*
X227671166Y-94734071D01*
X227575928Y-94686452D01*
G04 #@! TO.C,R41*
X172204142Y-81765380D02*
X171870809Y-81289190D01*
X171632714Y-81765380D02*
X171632714Y-80765380D01*
X172013666Y-80765380D01*
X172108904Y-80813000D01*
X172156523Y-80860619D01*
X172204142Y-80955857D01*
X172204142Y-81098714D01*
X172156523Y-81193952D01*
X172108904Y-81241571D01*
X172013666Y-81289190D01*
X171632714Y-81289190D01*
X173061285Y-81098714D02*
X173061285Y-81765380D01*
X172823190Y-80717761D02*
X172585095Y-81432047D01*
X173204142Y-81432047D01*
X174108904Y-81765380D02*
X173537476Y-81765380D01*
X173823190Y-81765380D02*
X173823190Y-80765380D01*
X173727952Y-80908238D01*
X173632714Y-81003476D01*
X173537476Y-81051095D01*
G04 #@! TO.C,R42*
X153789142Y-78176380D02*
X153455809Y-77700190D01*
X153217714Y-78176380D02*
X153217714Y-77176380D01*
X153598666Y-77176380D01*
X153693904Y-77224000D01*
X153741523Y-77271619D01*
X153789142Y-77366857D01*
X153789142Y-77509714D01*
X153741523Y-77604952D01*
X153693904Y-77652571D01*
X153598666Y-77700190D01*
X153217714Y-77700190D01*
X154646285Y-77509714D02*
X154646285Y-78176380D01*
X154408190Y-77128761D02*
X154170095Y-77843047D01*
X154789142Y-77843047D01*
X155122476Y-77271619D02*
X155170095Y-77224000D01*
X155265333Y-77176380D01*
X155503428Y-77176380D01*
X155598666Y-77224000D01*
X155646285Y-77271619D01*
X155693904Y-77366857D01*
X155693904Y-77462095D01*
X155646285Y-77604952D01*
X155074857Y-78176380D01*
X155693904Y-78176380D01*
G04 #@! TO.C,R43*
X151249142Y-97386380D02*
X150915809Y-96910190D01*
X150677714Y-97386380D02*
X150677714Y-96386380D01*
X151058666Y-96386380D01*
X151153904Y-96434000D01*
X151201523Y-96481619D01*
X151249142Y-96576857D01*
X151249142Y-96719714D01*
X151201523Y-96814952D01*
X151153904Y-96862571D01*
X151058666Y-96910190D01*
X150677714Y-96910190D01*
X152106285Y-96719714D02*
X152106285Y-97386380D01*
X151868190Y-96338761D02*
X151630095Y-97053047D01*
X152249142Y-97053047D01*
X152534857Y-96386380D02*
X153153904Y-96386380D01*
X152820571Y-96767333D01*
X152963428Y-96767333D01*
X153058666Y-96814952D01*
X153106285Y-96862571D01*
X153153904Y-96957809D01*
X153153904Y-97195904D01*
X153106285Y-97291142D01*
X153058666Y-97338761D01*
X152963428Y-97386380D01*
X152677714Y-97386380D01*
X152582476Y-97338761D01*
X152534857Y-97291142D01*
G04 #@! TO.C,RV1*
X205652761Y-75763380D02*
X205319428Y-75287190D01*
X205081333Y-75763380D02*
X205081333Y-74763380D01*
X205462285Y-74763380D01*
X205557523Y-74811000D01*
X205605142Y-74858619D01*
X205652761Y-74953857D01*
X205652761Y-75096714D01*
X205605142Y-75191952D01*
X205557523Y-75239571D01*
X205462285Y-75287190D01*
X205081333Y-75287190D01*
X205938476Y-74763380D02*
X206271809Y-75763380D01*
X206605142Y-74763380D01*
X207462285Y-75763380D02*
X206890857Y-75763380D01*
X207176571Y-75763380D02*
X207176571Y-74763380D01*
X207081333Y-74906238D01*
X206986095Y-75001476D01*
X206890857Y-75049095D01*
G04 #@! TO.C,SW1*
X216685761Y-91884333D02*
X216733380Y-91741476D01*
X216733380Y-91503380D01*
X216685761Y-91408142D01*
X216638142Y-91360523D01*
X216542904Y-91312904D01*
X216447666Y-91312904D01*
X216352428Y-91360523D01*
X216304809Y-91408142D01*
X216257190Y-91503380D01*
X216209571Y-91693857D01*
X216161952Y-91789095D01*
X216114333Y-91836714D01*
X216019095Y-91884333D01*
X215923857Y-91884333D01*
X215828619Y-91836714D01*
X215781000Y-91789095D01*
X215733380Y-91693857D01*
X215733380Y-91455761D01*
X215781000Y-91312904D01*
X215733380Y-90979571D02*
X216733380Y-90741476D01*
X216019095Y-90551000D01*
X216733380Y-90360523D01*
X215733380Y-90122428D01*
X216733380Y-89217666D02*
X216733380Y-89789095D01*
X216733380Y-89503380D02*
X215733380Y-89503380D01*
X215876238Y-89598619D01*
X215971476Y-89693857D01*
X216019095Y-89789095D01*
G04 #@! TO.C,U1*
X183856380Y-79628904D02*
X184665904Y-79628904D01*
X184761142Y-79581285D01*
X184808761Y-79533666D01*
X184856380Y-79438428D01*
X184856380Y-79247952D01*
X184808761Y-79152714D01*
X184761142Y-79105095D01*
X184665904Y-79057476D01*
X183856380Y-79057476D01*
X184856380Y-78057476D02*
X184856380Y-78628904D01*
X184856380Y-78343190D02*
X183856380Y-78343190D01*
X183999238Y-78438428D01*
X184094476Y-78533666D01*
X184142095Y-78628904D01*
X184694580Y-82296000D02*
X184932676Y-82296000D01*
X184837438Y-82534095D02*
X184932676Y-82296000D01*
X184837438Y-82057904D01*
X185123152Y-82438857D02*
X184932676Y-82296000D01*
X185123152Y-82153142D01*
G04 #@! TO.C,U2*
X133921595Y-67524380D02*
X133921595Y-68333904D01*
X133969214Y-68429142D01*
X134016833Y-68476761D01*
X134112071Y-68524380D01*
X134302547Y-68524380D01*
X134397785Y-68476761D01*
X134445404Y-68429142D01*
X134493023Y-68333904D01*
X134493023Y-67524380D01*
X134921595Y-67619619D02*
X134969214Y-67572000D01*
X135064452Y-67524380D01*
X135302547Y-67524380D01*
X135397785Y-67572000D01*
X135445404Y-67619619D01*
X135493023Y-67714857D01*
X135493023Y-67810095D01*
X135445404Y-67952952D01*
X134873976Y-68524380D01*
X135493023Y-68524380D01*
X134620000Y-68870580D02*
X134620000Y-69108676D01*
X134381904Y-69013438D02*
X134620000Y-69108676D01*
X134858095Y-69013438D01*
X134477142Y-69299152D02*
X134620000Y-69108676D01*
X134762857Y-69299152D01*
G04 #@! TO.C,U3*
X127849380Y-97281904D02*
X128658904Y-97281904D01*
X128754142Y-97234285D01*
X128801761Y-97186666D01*
X128849380Y-97091428D01*
X128849380Y-96900952D01*
X128801761Y-96805714D01*
X128754142Y-96758095D01*
X128658904Y-96710476D01*
X127849380Y-96710476D01*
X127849380Y-96329523D02*
X127849380Y-95710476D01*
X128230333Y-96043809D01*
X128230333Y-95900952D01*
X128277952Y-95805714D01*
X128325571Y-95758095D01*
X128420809Y-95710476D01*
X128658904Y-95710476D01*
X128754142Y-95758095D01*
X128801761Y-95805714D01*
X128849380Y-95900952D01*
X128849380Y-96186666D01*
X128801761Y-96281904D01*
X128754142Y-96329523D01*
X116114580Y-100330000D02*
X116352676Y-100330000D01*
X116257438Y-100568095D02*
X116352676Y-100330000D01*
X116257438Y-100091904D01*
X116543152Y-100472857D02*
X116352676Y-100330000D01*
X116543152Y-100187142D01*
G04 #@! TO.C,U4*
X153924095Y-96988380D02*
X153924095Y-97797904D01*
X153971714Y-97893142D01*
X154019333Y-97940761D01*
X154114571Y-97988380D01*
X154305047Y-97988380D01*
X154400285Y-97940761D01*
X154447904Y-97893142D01*
X154495523Y-97797904D01*
X154495523Y-96988380D01*
X155400285Y-97321714D02*
X155400285Y-97988380D01*
X155162190Y-96940761D02*
X154924095Y-97655047D01*
X155543142Y-97655047D01*
X150876000Y-98080580D02*
X150876000Y-98318676D01*
X150637904Y-98223438D02*
X150876000Y-98318676D01*
X151114095Y-98223438D01*
X150733142Y-98509152D02*
X150876000Y-98318676D01*
X151018857Y-98509152D01*
G04 #@! TO.C,U5*
X125095095Y-105179880D02*
X125095095Y-105989404D01*
X125142714Y-106084642D01*
X125190333Y-106132261D01*
X125285571Y-106179880D01*
X125476047Y-106179880D01*
X125571285Y-106132261D01*
X125618904Y-106084642D01*
X125666523Y-105989404D01*
X125666523Y-105179880D01*
X126618904Y-105179880D02*
X126142714Y-105179880D01*
X126095095Y-105656071D01*
X126142714Y-105608452D01*
X126237952Y-105560833D01*
X126476047Y-105560833D01*
X126571285Y-105608452D01*
X126618904Y-105656071D01*
X126666523Y-105751309D01*
X126666523Y-105989404D01*
X126618904Y-106084642D01*
X126571285Y-106132261D01*
X126476047Y-106179880D01*
X126237952Y-106179880D01*
X126142714Y-106132261D01*
X126095095Y-106084642D01*
X125957080Y-110418001D02*
X126195176Y-110418001D01*
X126099938Y-110656096D02*
X126195176Y-110418001D01*
X126099938Y-110179905D01*
X126385652Y-110560858D02*
X126195176Y-110418001D01*
X126385652Y-110275143D01*
G04 #@! TD*
M02*
