G04 #@! TF.GenerationSoftware,KiCad,Pcbnew,5.0.2-bee76a0~70~ubuntu16.04.1*
G04 #@! TF.CreationDate,2019-09-22T20:04:44+02:00*
G04 #@! TF.ProjectId,fiscal,66697363-616c-42e6-9b69-6361645f7063,v01*
G04 #@! TF.SameCoordinates,Original*
G04 #@! TF.FileFunction,Profile,NP*
%FSLAX46Y46*%
G04 Gerber Fmt 4.6, Leading zero omitted, Abs format (unit mm)*
G04 Created by KiCad (PCBNEW 5.0.2-bee76a0~70~ubuntu16.04.1) date dom 22 sep 2019 20:04:44 CEST*
%MOMM*%
%LPD*%
G01*
G04 APERTURE LIST*
%ADD10C,0.025400*%
G04 #@! TA.AperFunction,NonConductor*
%ADD11C,0.100000*%
G04 #@! TD*
G04 APERTURE END LIST*
D10*
X228600000Y-114300000D02*
X115570000Y-114300000D01*
X228600000Y-63500000D02*
X228600000Y-114300000D01*
X115570000Y-63500000D02*
X228600000Y-63500000D01*
X115570000Y-114300000D02*
X115570000Y-63500000D01*
D11*
G04 #@! TO.C,J1*
X172465000Y-72061000D02*
X171865000Y-72061000D01*
X171865000Y-72061000D02*
X171865000Y-73561000D01*
X171865000Y-73561000D02*
X172465000Y-73561000D01*
X172465000Y-73561000D02*
X172465000Y-72061000D01*
X182465000Y-72061000D02*
X181865000Y-72061000D01*
X181865000Y-72061000D02*
X181865000Y-73561000D01*
X181865000Y-73561000D02*
X182465000Y-73561000D01*
X182465000Y-73561000D02*
X182465000Y-72061000D01*
X179965000Y-72061000D02*
X179365000Y-72061000D01*
X179365000Y-72061000D02*
X179365000Y-73561000D01*
X179365000Y-73561000D02*
X179965000Y-73561000D01*
X179965000Y-73561000D02*
X179965000Y-72061000D01*
X174965000Y-72061000D02*
X174365000Y-72061000D01*
X174365000Y-72061000D02*
X174365000Y-73561000D01*
X174365000Y-73561000D02*
X174965000Y-73561000D01*
X174965000Y-73561000D02*
X174965000Y-72061000D01*
X176415000Y-67511000D02*
X176415000Y-68111000D01*
X176415000Y-68111000D02*
X177915000Y-68111000D01*
X177915000Y-68111000D02*
X177915000Y-67511000D01*
X177915000Y-67511000D02*
X176415000Y-67511000D01*
G04 #@! TD*
M02*
